<svg xmlns="http://www.w3.org/2000/svg" width="17.367" height="18" viewBox="0 0 17.367 18">
  <g id="bill" transform="translate(-9)">
    <path id="Path_224" data-name="Path 224" d="M25.212,8.473H22.148V2.226A2.228,2.228,0,0,0,19.923,0h-8.7A2.228,2.228,0,0,0,9,2.226V14.343A3.661,3.661,0,0,0,12.657,18H23.73a2.64,2.64,0,0,0,2.637-2.637V9.628A1.157,1.157,0,0,0,25.212,8.473ZM12.657,16.945a2.6,2.6,0,0,1-2.6-2.6V2.226a1.172,1.172,0,0,1,1.171-1.171h8.7a1.172,1.172,0,0,1,1.171,1.171V15.363a2.623,2.623,0,0,0,.529,1.582Zm12.656-1.582a1.582,1.582,0,0,1-3.164,0V9.527h3.063a.1.1,0,0,1,.1.1Z" fill="#505b67"/>
    <path id="Path_225" data-name="Path 225" d="M205.931,204.249l-.28-.1v-1.7c.33.128.353.292.645.292a.549.549,0,0,0,.386-.939,2.228,2.228,0,0,0-1.03-.493v-.292a.549.549,0,1,0-1.1,0v.33a1.806,1.806,0,0,0-.812,3.061,3.986,3.986,0,0,0,.812.475v2.267a1.64,1.64,0,0,1-.706-.305.549.549,0,1,0-.6.919,2.641,2.641,0,0,0,1.307.49v.329a.549.549,0,0,0,1.1,0v-.38A2.068,2.068,0,0,0,205.931,204.249Zm-1.378-.609c-.048-.031-.093-.063-.134-.095a.715.715,0,0,1,.134-1Zm1.1,3.387v-1.708A.954.954,0,0,1,205.651,207.028Z" transform="translate(-188.274 -194.862)" fill="#505b67"/>
    <path id="Path_223" data-name="Path 223" d="M73.813,81H69.3c-.167,0-.3.313-.3.7s.135.7.3.7h4.511c.167,0,.3-.313.3-.7S73.98,81,73.813,81Z" transform="translate(-57.814 -78.159)" fill="#505b67"/>
  </g>
</svg>
