<svg xmlns="http://www.w3.org/2000/svg" width="18.185" height="16.668" viewBox="0 0 18.185 16.668">
  <path id="buy" d="M17.438,24.373H3.219l-.211-2.355a.747.747,0,0,0-.744-.68H.747a.747.747,0,0,0,0,1.494h.835L2.44,32.4a2.873,2.873,0,0,0,1.076,1.947,2.264,2.264,0,1,0,3.912.623h4.088a2.264,2.264,0,1,0,2.129-1.494H5.3a1.387,1.387,0,0,1-1.275-.841l11.936-.7a.747.747,0,0,0,.681-.564l1.518-6.07A.747.747,0,0,0,17.438,24.373ZM5.3,36.512a.771.771,0,1,1,.771-.771A.771.771,0,0,1,5.3,36.512Zm8.346,0a.771.771,0,1,1,.771-.771A.771.771,0,0,1,13.645,36.512Zm1.685-6.036-11.5.676-.474-5.285H16.482Z" transform="translate(0 -21.338)" fill="#505b67"/>
</svg>
