<svg xmlns="http://www.w3.org/2000/svg" xmlns:xlink="http://www.w3.org/1999/xlink" width="54" height="54" viewBox="0 0 54 54">
  <defs>
    <linearGradient id="linear-gradient" x1="0.5" y1="1" x2="0.5" gradientUnits="objectBoundingBox">
      <stop offset="0" stop-color="#b3c0ff"/>
      <stop offset="1" stop-color="#fff"/>
    </linearGradient>
    <linearGradient id="linear-gradient-2" x1="0.5" y1="1" x2="0.5" gradientUnits="objectBoundingBox">
      <stop offset="0" stop-color="#4460f1"/>
      <stop offset="1" stop-color="#b3c0ff"/>
    </linearGradient>
  </defs>
  <g id="clock_icon" data-name="clock icon" transform="translate(-316 -146)">
    <circle id="Ellipse_72" data-name="Ellipse 72" cx="27" cy="27" r="27" transform="translate(316 146)" fill="#4460f1" opacity="0.08"/>
    <g id="_018-clock" data-name="018-clock" transform="translate(330.661 160.661)">
      <path id="Path_267" data-name="Path 267" d="M51.022,39.394h-.113l-.008-.112a10.644,10.644,0,0,0-2.594-6.217l-.069-.08.071-.07-.544-.473L47.29,31.9l-.071.071L47.14,31.9A10.641,10.641,0,0,0,40.923,29.3l-.112-.009v-.112l-.723.056-.723-.056V29.3l-.112.008A10.641,10.641,0,0,0,33.036,31.9l-.079.069-.071-.071-.474.546-.544.473.071.07-.069.08a10.644,10.644,0,0,0-2.594,6.217l-.008.112h-.113l.056.723-.056.723h.113l.008.112a10.639,10.639,0,0,0,2.594,6.216l.069.08-.071.071.548.477.47.541.071-.07.079.07a10.641,10.641,0,0,0,6.218,2.593l.112.008v.112l.723-.056.723.056v-.112l.112-.008a10.641,10.641,0,0,0,6.218-2.593l.079-.07.071.07.47-.541.548-.477-.071-.071.069-.08A10.639,10.639,0,0,0,50.9,40.952l.008-.112h.113l-.056-.723Z" transform="translate(-27.749 -27.777)" fill="url(#linear-gradient)"/>
      <path id="Path_268" data-name="Path 268" d="M12.339,0A12.339,12.339,0,1,0,24.679,12.339,12.382,12.382,0,0,0,12.339,0Zm7.129,18.442-1.5-1.5a.726.726,0,0,0-1.027,1.027l1.5,1.5a9.247,9.247,0,0,1-5.379,2.241v-2.14a.723.723,0,0,0-1.446,0v2.14a9.247,9.247,0,0,1-5.379-2.241l1.5-1.5a.726.726,0,0,0-1.027-1.027l-1.5,1.5a9.247,9.247,0,0,1-2.241-5.379h2.14a.723.723,0,0,0,0-1.446H2.969A9.247,9.247,0,0,1,5.211,6.237l1.5,1.5a.751.751,0,0,0,1.027,0,.743.743,0,0,0,0-1.027l-1.5-1.5a9.247,9.247,0,0,1,5.379-2.241v2.14a.723.723,0,0,0,1.446,0V2.969A9.247,9.247,0,0,1,18.442,5.21l-1.5,1.5a.743.743,0,0,0,0,1.027.751.751,0,0,0,1.027,0l1.5-1.5a9.247,9.247,0,0,1,2.241,5.379h-2.14a.723.723,0,0,0,0,1.446h2.14A9.247,9.247,0,0,1,19.468,18.442Zm-6.406-6.4V8a.723.723,0,0,0-1.446,0v4.338a.732.732,0,0,0,.213.512l2.891,2.891a.723.723,0,1,0,1.022-1.022Z" fill="url(#linear-gradient-2)"/>
    </g>
  </g>
</svg>
