<svg id="_031-master-card" data-name="031-master-card" xmlns="http://www.w3.org/2000/svg" width="33.954" height="23.15" viewBox="0 0 33.954 23.15">
  <path id="Path_497" data-name="Path 497" d="M33.954,100.617a2,2,0,0,1-2.007,1.984H2.007A2,2,0,0,1,0,100.617V81.435a2,2,0,0,1,2.007-1.984h29.94a2,2,0,0,1,2.007,1.984v19.182Z" transform="translate(0 -79.451)" fill="#4a67c5"/>
  <path id="Path_499" data-name="Path 499" d="M268.876,182.286a5.154,5.154,0,0,1,1.914-4.013,5.164,5.164,0,1,0,0,8.026A5.153,5.153,0,0,1,268.876,182.286Z" transform="translate(-253.731 -170.639)" fill="#ea001b"/>
  <path id="Path_500" data-name="Path 500" d="M359.234,177.123a5.143,5.143,0,0,0-3.25,1.151,5.163,5.163,0,0,1,0,8.026,5.164,5.164,0,1,0,3.25-9.177Z" transform="translate(-338.9 -170.64)" fill="#f79f1a"/>
  <path id="Path_501" data-name="Path 501" d="M338.516,193.941a5.153,5.153,0,0,0-1.914-4.013,5.163,5.163,0,0,0,0,8.026A5.152,5.152,0,0,0,338.516,193.941Z" transform="translate(-319.535 -182.296)" fill="#ff5f01"/>
</svg>
