<svg id="_031-visa" data-name="031-visa" xmlns="http://www.w3.org/2000/svg" width="33.954" height="23.15" viewBox="0 0 33.954 23.15">
  <path id="Path_489" data-name="Path 489" d="M33.954,100.617a2,2,0,0,1-2.007,1.984H2.007A2,2,0,0,1,0,100.617V81.435a2,2,0,0,1,2.007-1.984h29.94a2,2,0,0,1,2.007,1.984v19.182Z" transform="translate(0 -79.451)" fill="#fff"/>
  <path id="Path_490" data-name="Path 490" d="M36.1,194.332l-.81-3.884a.966.966,0,0,0-1.044-.716H30.535l-.033.177A7.634,7.634,0,0,1,36.1,194.332Z" transform="translate(-28.448 -182.549)" fill="#f79f1a"/>
  <g id="Group_422" data-name="Group 422" transform="translate(0 0)">
    <path id="Path_491" data-name="Path 491" d="M187.4,190.892H185l-1.5,8.79h2.394Z" transform="translate(-171.354 -184.015)" fill="#059bbf"/>
    <path id="Path_492" data-name="Path 492" d="M70.517,199.756l3.772-8.775H71.751l-2.346,6-.25-.905a9.379,9.379,0,0,0-3.318-3.643l2.145,7.331Z" transform="translate(-61.402 -184.098)" fill="#059bbf"/>
    <path id="Path_493" data-name="Path 493" d="M248.2,194.726c.009-1-.632-1.759-2.013-2.388-.839-.406-1.351-.677-1.344-1.089,0-.364.433-.755,1.372-.755a4.423,4.423,0,0,1,1.793.337l.217.1.325-1.9a6.212,6.212,0,0,0-2.148-.367c-2.368,0-4.034,1.191-4.049,2.9-.015,1.264,1.191,1.967,2.1,2.389.932.429,1.245.7,1.239,1.089-.006.589-.743.857-1.432.857a5.027,5.027,0,0,1-2.257-.461l-.306-.141-.337,1.97a7.559,7.559,0,0,0,2.668.467C246.542,197.729,248.178,196.553,248.2,194.726Z" transform="translate(-225.415 -181.933)" fill="#059bbf"/>
    <path id="Path_494" data-name="Path 494" d="M343.405,198.49l3.069,0c.072.306.292,1.318.292,1.318h2.223l-1.94-8.784H345.2a1.192,1.192,0,0,0-1.254.728l-3.559,8.056H342.9S343.312,198.728,343.405,198.49Zm1.642-4.257c-.012.024.2-.508.319-.839l.162.758s.457,2.1.554,2.539h-1.988C344.293,196.186,345.048,194.234,345.048,194.234Z" transform="translate(-317.988 -184.141)" fill="#059bbf"/>
    <path id="Path_495" data-name="Path 495" d="M31.947,79.451H2.007A2.023,2.023,0,0,0,0,81.489V83.6H33.954V81.489A2.023,2.023,0,0,0,31.947,79.451Z" transform="translate(0 -79.451)" fill="#059bbf"/>
  </g>
  <path id="Path_496" data-name="Path 496" d="M31.947,375.025H2.007A2.023,2.023,0,0,1,0,372.986v-2.115H33.954v2.115A2.023,2.023,0,0,1,31.947,375.025Z" transform="translate(0 -351.874)" fill="#f79f1a"/>
</svg>
