<svg id="_031-discover" data-name="031-discover" xmlns="http://www.w3.org/2000/svg" width="33.954" height="23.15" viewBox="0 0 33.954 23.15">
  <path id="Path_513" data-name="Path 513" d="M33.954,100.617a2,2,0,0,1-2.007,1.984H2.007A2,2,0,0,1,0,100.617V81.435a2,2,0,0,1,2.007-1.984h29.94a2,2,0,0,1,2.007,1.984v19.182Z" transform="translate(0 -79.451)" fill="#f9eddf"/>
  <path id="Path_515" data-name="Path 515" d="M239.184,220.885A2.459,2.459,0,0,0,236.7,218.4h-.009a2.5,2.5,0,1,0,2.5,2.5S239.184,220.889,239.184,220.885Z" transform="translate(-218.663 -209.323)" fill="#f26e21"/>
  <g id="Group_424" data-name="Group 424" transform="translate(2.25 9.03)">
    <path id="Path_516" data-name="Path 516" d="M175.662,221.278a1.534,1.534,0,0,1-1.089.527A1.551,1.551,0,0,1,173,220.174a1.812,1.812,0,0,1,.47-1.21h0a1.467,1.467,0,0,1,1.019-.422,1.513,1.513,0,0,1,1.152.528v-1.1a2.413,2.413,0,0,0-1.152-.288,2.782,2.782,0,0,0-1.627.678h0a2.615,2.615,0,0,0-.87,1.868,2.44,2.44,0,0,0,2.5,2.449h.048a2.716,2.716,0,0,0,1.153-.288l-.032-1.1c-.016.016.016.031,0,.047Z" transform="translate(-162.841 -217.677)" fill="#1e1309"/>
    <path id="Path_517" data-name="Path 517" d="M309.846,221.062h0l-1.087,2.674-1.249-3.17H306.5l1.969,4.85H309l2.065-4.85h-1.008Z" transform="translate(-288.432 -220.374)" fill="#1e1309"/>
    <path id="Path_518" data-name="Path 518" d="M380.983,222.679v2.593h2.641V224.5h-1.681v-1.3h1.633v-.817h-1.633v-1.008h1.681v-.816h-2.641Z" transform="translate(-357.98 -220.374)" fill="#1e1309"/>
    <path id="Path_519" data-name="Path 519" d="M35.229,220.566H33.884v4.706h1.345a2.6,2.6,0,0,0,1.681-.528,2.374,2.374,0,0,0,.864-1.825A2.324,2.324,0,0,0,35.229,220.566Zm1.1,3.554a1.846,1.846,0,0,1-1.249.384H34.8v-3.121h.24a1.63,1.63,0,0,1,1.249.384,1.534,1.534,0,0,1,.528,1.153A1.436,1.436,0,0,1,36.333,224.12Z" transform="translate(-33.884 -220.374)" fill="#1e1309"/>
    <rect id="Rectangle_281" data-name="Rectangle 281" width="0.912" height="4.706" transform="translate(4.322 0.192)" fill="#1e1309"/>
    <path id="Path_520" data-name="Path 520" d="M120.409,221.72c-.576-.192-.72-.336-.72-.576a.608.608,0,0,1,.672-.528.929.929,0,0,1,.768.384l.48-.624a2.091,2.091,0,0,0-1.393-.528,1.409,1.409,0,0,0-1.489,1.344c0,.672.288.961,1.153,1.3a1.867,1.867,0,0,1,.625.288.528.528,0,0,1,.288.48.669.669,0,0,1-.72.672,1.12,1.12,0,0,1-1.009-.624l-.576.576a1.884,1.884,0,0,0,1.633.912,1.514,1.514,0,0,0,1.632-1.537C121.753,222.44,121.465,222.1,120.409,221.72Z" transform="translate(-112.88 -219.703)" fill="#1e1309"/>
    <path id="Path_521" data-name="Path 521" d="M432.123,223.3a1.267,1.267,0,0,0,1.1-1.344c0-.864-.624-1.393-1.681-1.393h-1.393v4.706h.912V223.4h.144l1.3,1.873h1.1Zm-.769-.576h-.288v-1.44h.288c.576,0,.913.24.913.721S431.931,222.727,431.354,222.727Z" transform="translate(-403.885 -220.374)" fill="#1e1309"/>
  </g>
</svg>
