<svg id="_031-american-express" data-name="031-american-express" xmlns="http://www.w3.org/2000/svg" width="33.954" height="23.15" viewBox="0 0 33.954 23.15">
  <path id="Path_502" data-name="Path 502" d="M33.954,100.617a2,2,0,0,1-2.007,1.984H2.007A2,2,0,0,1,0,100.617V81.435a2,2,0,0,1,2.007-1.984h29.94a2,2,0,0,1,2.007,1.984v19.182Z" transform="translate(0 -79.451)" fill="#306fc5"/>
  <g id="Group_423" data-name="Group 423" transform="translate(2.403 6.817)">
    <path id="Path_504" data-name="Path 504" d="M74.59,202.551h1l-.5-1.273Z" transform="translate(-72.116 -200.096)" fill="#fff"/>
    <path id="Path_505" data-name="Path 505" d="M155.946,286.107v.591h1.682v.637h-1.682v.682h1.864l.864-.955-.818-.955Z" transform="translate(-148.009 -279.379)" fill="#fff"/>
    <path id="Path_506" data-name="Path 506" d="M349.1,201.278l-.546,1.273H349.6Z" transform="translate(-327.813 -200.096)" fill="#fff"/>
    <path id="Path_507" data-name="Path 507" d="M213.45,283.832v-2.591l-1.182,1.273Z" transform="translate(-200.592 -274.831)" fill="#fff"/>
    <path id="Path_508" data-name="Path 508" d="M243.622,286.516a.459.459,0,0,0-.5-.409h-.954v.818h1C243.44,286.925,243.622,286.789,243.622,286.516Z" transform="translate(-228.5 -279.379)" fill="#fff"/>
    <path id="Path_509" data-name="Path 509" d="M294.894,287.487a.354.354,0,0,0,.137-.318.253.253,0,0,0-.137-.318.884.884,0,0,0-.363-.046h-.909v.727h.909A.885.885,0,0,0,294.894,287.487Z" transform="translate(-276.531 -280.031)" fill="#fff"/>
    <path id="Path_510" data-name="Path 510" d="M61.8,183.2v.546l-.277-.546H59.352v.546l-.278-.546H56.112a2.86,2.86,0,0,0-1.3.273V183.2H52.734v.273a1.351,1.351,0,0,0-.879-.273H44.4l-.509,1.137-.509-1.137h-2.36v.546l-.231-.546H38.758l-.926,2.137-1.064,2.318-.02.046h2.409l.017-.046.278-.682h.6l.278.727h2.684v-.546l.232.545h1.342l.231-.545v.546h6.433v-1.182h.093c.092,0,.092,0,.092.136v1H54.77v-.273a2.809,2.809,0,0,0,1.249.273h1.389l.278-.727h.648l.278.727H61.3v-.682l.417.682h2.175V183.2H61.8Zm-15.688,3.819h-.741v-2.5l-.046.1h0l-1.077,2.4H43.57l-1.111-2.5v2.5H40.886l-.324-.682H38.989l-.324.682h-.814l1.369-3.182h1.157l1.3,3.046v-3.046H42.9l.022.046h0l.584,1.248.419.935.015-.047.926-2.182h1.25v3.182Zm3.193-2.5H47.5v.591h1.759v.636H47.5v.637h1.8v.682H46.718v-3.228h2.592v.682Zm3.3,1.172,0,0a.522.522,0,0,1,.045.054.864.864,0,0,1,.164.533v.013s0,0,0,.007,0,0,0,0c0,.025,0,.051,0,.078v.636h-.694v-.364a1.066,1.066,0,0,0-.139-.636.421.421,0,0,0-.136-.091.939.939,0,0,0-.419-.045H50.6v1.137h-.787v-3.182h1.759a1.8,1.8,0,0,1,.926.136.765.765,0,0,1,.369.707.9.9,0,0,1-.554.839A.623.623,0,0,1,52.61,185.689Zm1.558,1.328h-.787v-3.182h.787Zm9.024,0H62.175l-1.481-2.41v2l0,0v.416h-.782v0H59.12l-.278-.682h-1.62l-.278.727h-.879a1.635,1.635,0,0,1-1.111-.364,1.581,1.581,0,0,1-.416-1.227,1.842,1.842,0,0,1,.416-1.273,1.474,1.474,0,0,1,1.157-.364h.741v.682h-.741a.863.863,0,0,0-.6.182,1.056,1.056,0,0,0-.231.727.978.978,0,0,0,.231.773.746.746,0,0,0,.555.182h.324l1.064-2.5h1.157l1.3,3.046V183.88h1.157l1.342,2.227V183.88h.787v3.137h0Z" transform="translate(-36.748 -183.198)" fill="#fff"/>
    <path id="Path_511" data-name="Path 511" d="M246.267,204.008a.244.244,0,0,0,.036-.049.491.491,0,0,0,.063-.343.257.257,0,0,0-.007-.041s0-.007,0-.011h0a.255.255,0,0,0-.138-.155.89.89,0,0,0-.364-.045h-.909v.727h.909a.886.886,0,0,0,.364-.046.171.171,0,0,0,.038-.027h0Z" transform="translate(-231.093 -202.046)" fill="#fff"/>
    <path id="Path_512" data-name="Path 512" d="M156.016,267.6a1.741,1.741,0,0,0-.227-.864v-2.046h0v-.137H153.6a1.294,1.294,0,0,0-.628.273v-.273h-2.091a1.444,1.444,0,0,0-.909.273v-.273h-3.728v.273a1.759,1.759,0,0,0-1-.273h-2.455v.273a1.727,1.727,0,0,0-1.046-.273h-2.727l-.637.682-.591-.682H133.7v4.592h4l.657-.657.57.657h2.546V268.1h.227a2.762,2.762,0,0,0,1.045-.137v1.228h2.046v-1.182h.091c.137,0,.137,0,.137.136v1.046H151.2a1.782,1.782,0,0,0,1.046-.273v.273H154.2a2.042,2.042,0,0,0,1.091-.227,1.527,1.527,0,0,0,.722-1.226c0-.016,0-.031.006-.047l0,0C156.015,267.657,156.016,267.628,156.016,267.6Zm-14.32-.273h-.909v1.182h-1.494l-.87-1,0,0-.042-.049-1,1.046h-2.909v-3.182h2.955l.807.884.17.185.023-.024.955-1.046h2.409a1.18,1.18,0,0,1,1.19.591,1.284,1.284,0,0,1,.038.318C143.014,267.143,142.378,267.325,141.7,267.325Zm4.546-.046a1.032,1.032,0,0,1,.136.591v.636h-.773V268.1a1.014,1.014,0,0,0-.137-.637c-.091-.136-.273-.136-.545-.136h-.818v1.182h-.773V265.28h1.727a1.834,1.834,0,0,1,.909.136.8.8,0,0,1,.409.728.905.905,0,0,1-.545.864A.775.775,0,0,1,146.242,267.28Zm3.137-1.319h-1.773v.591h1.728v.637h-1.728v.637h1.773v.682h-2.546V265.28h2.546Zm1.909,2.546h-1.455v-.682h1.455a.384.384,0,0,0,.318-.091.33.33,0,0,0,0-.455.386.386,0,0,0-.273-.091c-.727-.045-1.591,0-1.591-1,0-.455.273-.955,1.091-.955h1.5v.773h-1.409a.675.675,0,0,0-.318.046c-.091.046-.091.137-.091.227,0,.136.091.182.182.227a.576.576,0,0,0,.273.046h.409a1.157,1.157,0,0,1,.864.273.941.941,0,0,1,.227.682C152.47,268.189,152.061,268.507,151.288,268.507Zm3.91-.318a1.324,1.324,0,0,1-.955.318h-1.454v-.682h1.454a.384.384,0,0,0,.318-.091.329.329,0,0,0,0-.455.384.384,0,0,0-.273-.091c-.727-.045-1.591,0-1.591-1a.929.929,0,0,1,.857-.938,1.7,1.7,0,0,1,.234-.017h1.5v.773h-1.409a.672.672,0,0,0-.318.046.347.347,0,0,0-.091.227c0,.136.046.182.182.227a.575.575,0,0,0,.273.046h.409a1.42,1.42,0,0,1,.486.073.979.979,0,0,1,.636.719,1.02,1.02,0,0,1,.014.163A.925.925,0,0,1,155.2,268.189Z" transform="translate(-126.877 -259.233)" fill="#fff"/>
  </g>
</svg>
