<svg xmlns="http://www.w3.org/2000/svg" width="66.165" height="17.573" viewBox="0 0 66.165 17.573">
  <g id="logo_text" data-name="logo text" transform="translate(-29.637)">
    <path id="Path_619" data-name="Path 619" d="M73.25,5.315a4.214,4.214,0,0,1,1.845.379,3.679,3.679,0,0,1,1.29,1.024,4.269,4.269,0,0,1,.769,1.518,6.919,6.919,0,0,1,.244,1.87,7.49,7.49,0,0,1-.566,2.9,7.58,7.58,0,0,1-1.559,2.367,7.3,7.3,0,0,1-2.315,1.6,7.059,7.059,0,0,1-2.888.6h-.7a10.662,10.662,0,0,1-1.142-.1,13.014,13.014,0,0,1-1.373-.275,6.864,6.864,0,0,1-1.373-.489L69.338.549,72.78,0,71.408,5.735a5.326,5.326,0,0,1,.887-.31,3.967,3.967,0,0,1,.958-.113Zm-2.891,9.511a2.993,2.993,0,0,0,1.466-.379,3.816,3.816,0,0,0,1.192-.994,5.126,5.126,0,0,0,.788-1.436,4.887,4.887,0,0,0,.291-1.669,3.262,3.262,0,0,0-.357-1.667,1.4,1.4,0,0,0-1.312-.6,4.1,4.1,0,0,0-.824.113,1.988,1.988,0,0,0-.9.467l-1.455,6.084.233.044a1.26,1.26,0,0,0,.211.033,2.408,2.408,0,0,0,.275.014Z" transform="translate(-35.843)" fill="#505b67"/>
    <path id="Path_620" data-name="Path 620" d="M113.155,17.853H109.86l2.784-11.7h3.314Zm1.6-13.121a2.045,2.045,0,0,1-1.246-.409,1.458,1.458,0,0,1-.549-1.257,2.067,2.067,0,0,1,.189-.876,2.329,2.329,0,0,1,.5-.714A2.471,2.471,0,0,1,114.374,1a2.2,2.2,0,0,1,.879-.178,2.04,2.04,0,0,1,1.236.412,1.463,1.463,0,0,1,.549,1.257,2.079,2.079,0,0,1-.187.879,2.356,2.356,0,0,1-.5.711,2.432,2.432,0,0,1-.722.478A2.166,2.166,0,0,1,114.755,4.732Z" transform="translate(-68.038 -0.595)" fill="#505b67"/>
    <path id="Path_621" data-name="Path 621" d="M135.963,8.243l3.446-.533-.857,3.446h3.69l-.664,2.713h-3.66l-.977,4.08a4.735,4.735,0,0,0-.156.955,1.768,1.768,0,0,0,.113.769.956.956,0,0,0,.478.5,2.158,2.158,0,0,0,.988.181,5.356,5.356,0,0,0,1.035-.1,7.215,7.215,0,0,0,1.01-.275l.247,2.537a12.04,12.04,0,0,1-1.447.42,8.237,8.237,0,0,1-1.845.178,5.112,5.112,0,0,1-2.38-.456,2.633,2.633,0,0,1-1.2-1.246,3.976,3.976,0,0,1-.313-1.812,11.633,11.633,0,0,1,.313-2.155l2.18-9.206Z" transform="translate(-85.16 -5.593)" fill="#505b67"/>
    <path id="Path_622" data-name="Path 622" d="M165,26.457a8.2,8.2,0,0,1,.489-2.847,7.023,7.023,0,0,1,1.4-2.336A6.59,6.59,0,0,1,169.1,19.7a7.075,7.075,0,0,1,2.9-.579,7.7,7.7,0,0,1,1.79.189,7.38,7.38,0,0,1,1.433.5l-1.145,2.573c-.3-.121-.6-.225-.923-.321a3.989,3.989,0,0,0-1.167-.146,3.264,3.264,0,0,0-2.6,1.142,4.549,4.549,0,0,0-.969,3.048,3.135,3.135,0,0,0,.491,1.834,2.051,2.051,0,0,0,1.8.7,5.8,5.8,0,0,0,1.246-.132,6.363,6.363,0,0,0,1.068-.335l.244,2.647a11.512,11.512,0,0,1-1.373.434,7.66,7.66,0,0,1-1.8.187,6.117,6.117,0,0,1-2.356-.4,4.431,4.431,0,0,1-1.576-1.079,4.041,4.041,0,0,1-.9-1.59A6.493,6.493,0,0,1,165,26.457Z" transform="translate(-108.039 -13.869)" fill="#505b67"/>
    <path id="Path_623" data-name="Path 623" d="M206.02,31.476a5.409,5.409,0,0,1-2.048-.357,3.778,3.778,0,0,1-1.433-1,4.341,4.341,0,0,1-.857-1.524,6.2,6.2,0,0,1-.275-1.944,8.6,8.6,0,0,1,.431-2.669,7.575,7.575,0,0,1,1.268-2.391,6.812,6.812,0,0,1,2.067-1.746,5.691,5.691,0,0,1,2.8-.678,5.406,5.406,0,0,1,2.034.357,3.816,3.816,0,0,1,1.444.986,4.36,4.36,0,0,1,.854,1.524,6.219,6.219,0,0,1,.275,1.947,8.857,8.857,0,0,1-.42,2.669,7.687,7.687,0,0,1-1.246,2.4,6.518,6.518,0,0,1-2.056,1.746A5.815,5.815,0,0,1,206.02,31.476Zm1.647-9.516a2.1,2.1,0,0,0-1.29.42,3.652,3.652,0,0,0-.931,1.068,5.216,5.216,0,0,0-.582,1.411,6.072,6.072,0,0,0-.189,1.455,3.569,3.569,0,0,0,.354,1.735,1.36,1.36,0,0,0,1.29.623,2.07,2.07,0,0,0,1.29-.423,3.671,3.671,0,0,0,.933-1.068,5.241,5.241,0,0,0,.568-1.411,6.207,6.207,0,0,0,.187-1.458,3.547,3.547,0,0,0-.354-1.735,1.366,1.366,0,0,0-1.29-.62Z" transform="translate(-134.45 -13.904)" fill="#505b67"/>
    <path id="Path_624" data-name="Path 624" d="M246.525,17.853H243.23l2.779-11.7h3.317Zm1.6-13.121a2.032,2.032,0,0,1-1.244-.409,1.458,1.458,0,0,1-.549-1.257,2.067,2.067,0,0,1,.189-.876,2.323,2.323,0,0,1,.489-.714A2.52,2.52,0,0,1,247.735,1a2.2,2.2,0,0,1,.876-.178,2.04,2.04,0,0,1,1.246.412,1.463,1.463,0,0,1,.549,1.257,2.125,2.125,0,0,1-.192.879,2.3,2.3,0,0,1-.5.711,2.433,2.433,0,0,1-.722.478A2.169,2.169,0,0,1,248.125,4.732Z" transform="translate(-164.79 -0.595)" fill="#505b67"/>
    <path id="Path_625" data-name="Path 625" d="M266.963,20.059c.247-.071.527-.159.824-.255s.642-.184,1.024-.275a12.417,12.417,0,0,1,1.266-.2,14.453,14.453,0,0,1,1.59-.08q2.6,0,3.591,1.513A5.169,5.169,0,0,1,275.6,24.9l-1.513,6.315h-3.306l1.469-6.183c.088-.384.159-.758.211-1.123a2.622,2.622,0,0,0-.014-.955,1.145,1.145,0,0,0-.409-.67,1.6,1.6,0,0,0-.988-.255,6.559,6.559,0,0,0-1.312.137l-2.158,9.06H264.27Z" transform="translate(-180.054 -13.964)" fill="#505b67"/>
  </g>
</svg>
