<svg xmlns="http://www.w3.org/2000/svg" width="29.01" height="29.01" viewBox="0 0 29.01 29.01">
  <g id="logo" transform="translate(0.067 -0.013)">
    <path id="Path_617" data-name="Path 617" d="M28.513,18.025A14.5,14.5,0,1,1,17.968.47,14.5,14.5,0,0,1,28.513,18.025Z" transform="translate(0 -0.017)" fill="#f7931a"/>
    <path id="Path_618" data-name="Path 618" d="M29.4,18.516c.285-1.931-1.183-2.968-3.172-3.657l.653-2.615-1.609-.4-.634,2.547c-.417-.1-.847-.2-1.273-.3L24,11.519l-1.591-.4-.653,2.615-1.015-.227h0l-2.2-.548-.421,1.7s1.183.272,1.156.29a.847.847,0,0,1,.743.906l-.743,2.977a.852.852,0,0,1,.163.054l-.168-.045-1.038,4.174a.58.58,0,0,1-.73.376c0,.023-1.156-.285-1.156-.285l-.793,1.813,2.071.517,1.133.29-.657,2.647,1.591.394.653-2.615q.643.177,1.264.326L20.971,29.1l1.591.394.657-2.637c2.719.512,4.754.308,5.615-2.148a2.789,2.789,0,0,0-1.464-3.856A2.543,2.543,0,0,0,29.4,18.516Zm-3.625,5.1c-.489,1.976-3.816.906-4.894.639l.875-3.5c1.065.285,4.523.8,4.006,2.864Zm.494-5.125c-.453,1.813-3.217.884-4.115.662l.793-3.172c.884.218,3.775.634,3.308,2.511Z" transform="translate(-8.545 -6.081)" fill="#fff"/>
  </g>
</svg>
