<svg xmlns="http://www.w3.org/2000/svg" width="112" height="17.913" viewBox="0 0 112 17.913">
  <g id="Group_439" data-name="Group 439" transform="translate(-41.488 -8.426)">
    <g id="Group_437" data-name="Group 437" transform="translate(109.526 8.426)">
      <path id="Path_654" data-name="Path 654" d="M331.3,23.219a8.506,8.506,0,0,1,.493-2.9,6.993,6.993,0,0,1,1.424-2.383,6.746,6.746,0,0,1,2.246-1.616,7.308,7.308,0,0,1,2.958-.575,7.178,7.178,0,0,1,1.808.192,7.558,7.558,0,0,1,1.452.52l-1.15,2.629c-.3-.11-.6-.219-.931-.329a3.761,3.761,0,0,0-1.178-.137,3.27,3.27,0,0,0-2.657,1.15,4.6,4.6,0,0,0-.959,3.1,3.189,3.189,0,0,0,.493,1.863,2.1,2.1,0,0,0,1.835.712,6.34,6.34,0,0,0,1.26-.137,5.737,5.737,0,0,0,1.1-.329l.247,2.684a12.107,12.107,0,0,1-1.4.438,7.12,7.12,0,0,1-1.835.192,6.19,6.19,0,0,1-2.383-.411,4.561,4.561,0,0,1-1.616-1.1,3.925,3.925,0,0,1-.9-1.616,6.424,6.424,0,0,1-.3-1.945Zm20.3-.383a7.453,7.453,0,0,0-.192,2.575,9.688,9.688,0,0,0,.52,2.328l-3.013.438c-.082-.192-.164-.356-.247-.52s-.137-.356-.219-.575a5.152,5.152,0,0,1-1.4.849,4.4,4.4,0,0,1-1.726.329,4.642,4.642,0,0,1-1.945-.383,3.894,3.894,0,0,1-1.315-1.068,4.581,4.581,0,0,1-.74-1.561,8.563,8.563,0,0,1-.219-1.917,7.966,7.966,0,0,1,.548-2.931,7.386,7.386,0,0,1,1.534-2.41,6.972,6.972,0,0,1,2.328-1.616,7.229,7.229,0,0,1,2.9-.575c.137,0,.383,0,.712.027s.74.055,1.15.11a13.16,13.16,0,0,1,1.37.247,5.828,5.828,0,0,1,1.37.493L351.6,22.835ZM349.241,18.7a4.221,4.221,0,0,0-.52-.055,3.677,3.677,0,0,0-.575-.027,2.844,2.844,0,0,0-1.424.383,4.548,4.548,0,0,0-1.178,1.013,4.472,4.472,0,0,0-.767,1.424,5.018,5.018,0,0,0-.274,1.7,3.514,3.514,0,0,0,.356,1.726,1.432,1.432,0,0,0,1.342.63,2.025,2.025,0,0,0,.931-.192,3.564,3.564,0,0,0,.9-.685c.027-.383.082-.767.137-1.178s.137-.794.219-1.15l.849-3.588Zm7.806,6.875a2.8,2.8,0,0,0,1.589-.329.978.978,0,0,0,.438-.712,1.136,1.136,0,0,0-.082-.438.945.945,0,0,0-.247-.329,1.911,1.911,0,0,0-.493-.329c-.219-.11-.493-.247-.822-.383-.383-.164-.74-.356-1.068-.52a3.6,3.6,0,0,1-.876-.685,2.986,2.986,0,0,1-.794-2.109,3.476,3.476,0,0,1,1.342-2.9,6.18,6.18,0,0,1,3.917-1.068,7.416,7.416,0,0,1,2.164.274,10.236,10.236,0,0,1,1.534.575l-1.15,2.52a6.157,6.157,0,0,0-1.233-.466,5.526,5.526,0,0,0-1.479-.219,4.85,4.85,0,0,0-.63.027,4.381,4.381,0,0,0-.575.137,1.212,1.212,0,0,0-.411.329.869.869,0,0,0-.164.548.757.757,0,0,0,.356.685,9.233,9.233,0,0,0,.986.548c.575.274,1.068.548,1.479.794a3.868,3.868,0,0,1,.931.767,2.406,2.406,0,0,1,.52.931,4.2,4.2,0,0,1,.164,1.233,3.692,3.692,0,0,1-.3,1.424,3.15,3.15,0,0,1-.959,1.233,5.058,5.058,0,0,1-1.671.876,7.953,7.953,0,0,1-2.438.329,9.436,9.436,0,0,1-1.589-.11,11.043,11.043,0,0,1-1.26-.274,4.781,4.781,0,0,1-.9-.356,5.2,5.2,0,0,1-.575-.3L353.9,24.7c.247.137.657.329,1.205.575a5.576,5.576,0,0,0,1.945.3Zm14.49-9.7a4.36,4.36,0,0,1,1.671.274,2.892,2.892,0,0,1,1.15.794,3.462,3.462,0,0,1,.685,1.205,5.263,5.263,0,0,1,.219,1.506,8.443,8.443,0,0,1-.219,1.863l-1.534,6.409H370.14l1.479-6.272q.082-.37.164-.822a4.178,4.178,0,0,0,.082-.822,1.771,1.771,0,0,0-.3-1.013,1.387,1.387,0,0,0-1.178-.411,5.335,5.335,0,0,0-.685.055,4.305,4.305,0,0,0-.63.11L366.88,27.93h-3.369l4.054-16.982,3.506-.548-1.37,5.67.9-.164C370.934,15.906,371.235,15.878,371.537,15.878Z" transform="translate(-331.3 -10.4)" fill="#2c7"/>
    </g>
    <path id="Path_653" data-name="Path 653" d="M90.816,15.923a4.343,4.343,0,0,1,1.863.383,3.762,3.762,0,0,1,1.315,1.041,4.255,4.255,0,0,1,.767,1.534,7,7,0,0,1,.247,1.89A7.736,7.736,0,0,1,92.87,26.14a7.387,7.387,0,0,1-5.286,2.219h-.712a10.458,10.458,0,0,1-1.178-.11,9.636,9.636,0,0,1-1.4-.274,6.04,6.04,0,0,1-1.4-.493l3.917-16.434,3.506-.548-1.37,5.834a6,6,0,0,1,.9-.329,5.211,5.211,0,0,1,.959-.082Zm-2.931,9.669a3.131,3.131,0,0,0,1.479-.383,3.646,3.646,0,0,0,1.205-1.041,5.316,5.316,0,0,0,.794-1.452,5.036,5.036,0,0,0,.3-1.7,3.332,3.332,0,0,0-.356-1.7,1.418,1.418,0,0,0-1.342-.6,3.393,3.393,0,0,0-.822.11,2.192,2.192,0,0,0-.9.466l-1.479,6.19c.082.027.164.027.247.055a.534.534,0,0,0,.219.027H87.5a1.455,1.455,0,0,0,.383.027ZM98.7,28.057H95.363L98.184,16.17h3.369Zm1.616-13.339a2.1,2.1,0,0,1-1.26-.411,1.485,1.485,0,0,1-.575-1.287,2.064,2.064,0,0,1,.192-.9,2.279,2.279,0,0,1,.52-.712,3.48,3.48,0,0,1,.74-.493,2.421,2.421,0,0,1,.9-.192,2.1,2.1,0,0,1,1.26.411,1.485,1.485,0,0,1,.575,1.287,2.064,2.064,0,0,1-.192.9,2.28,2.28,0,0,1-.52.712,3.48,3.48,0,0,1-.74.493A1.985,1.985,0,0,1,100.32,14.718Zm4.109-1.506,3.506-.548-.849,3.506h3.753l-.685,2.766h-3.725l-.986,4.163a7.04,7.04,0,0,0-.164.959,1.625,1.625,0,0,0,.11.767,1.193,1.193,0,0,0,.52.52,2.421,2.421,0,0,0,.986.192,4.332,4.332,0,0,0,1.041-.11c.329-.082.685-.164,1.041-.274l.247,2.575a13.8,13.8,0,0,1-1.479.438,9.063,9.063,0,0,1-1.863.192,5.226,5.226,0,0,1-2.41-.466,2.738,2.738,0,0,1-1.233-1.26,4,4,0,0,1-.329-1.835,10.9,10.9,0,0,1,.329-2.191l2.191-9.395Zm5.916,10.08a8.506,8.506,0,0,1,.493-2.9,6.834,6.834,0,0,1,3.67-4,7.308,7.308,0,0,1,2.958-.575,7.178,7.178,0,0,1,1.808.192,6.946,6.946,0,0,1,1.452.52l-1.15,2.629c-.3-.11-.6-.219-.931-.329a3.76,3.76,0,0,0-1.178-.137,3.27,3.27,0,0,0-2.657,1.15,4.6,4.6,0,0,0-.959,3.1,3.189,3.189,0,0,0,.493,1.863,2.1,2.1,0,0,0,1.835.712,6.34,6.34,0,0,0,1.26-.137,5.737,5.737,0,0,0,1.1-.329l.247,2.684a12.107,12.107,0,0,1-1.4.438,7.12,7.12,0,0,1-1.835.192,6.189,6.189,0,0,1-2.383-.411,4.561,4.561,0,0,1-1.616-1.1,3.924,3.924,0,0,1-.9-1.616,6.424,6.424,0,0,1-.3-1.945Zm14.435,5.067A5.437,5.437,0,0,1,122.7,28a3.747,3.747,0,0,1-1.452-1.013,4.481,4.481,0,0,1-.877-1.534,6.471,6.471,0,0,1-.3-1.972,8.51,8.51,0,0,1,.438-2.712,8.294,8.294,0,0,1,1.287-2.438,6.7,6.7,0,0,1,2.109-1.78,5.7,5.7,0,0,1,2.849-.685,5.2,5.2,0,0,1,2.054.356,3.849,3.849,0,0,1,1.479,1.013,4.481,4.481,0,0,1,.876,1.534,6.47,6.47,0,0,1,.3,1.972,8.51,8.51,0,0,1-.438,2.712,7.636,7.636,0,0,1-1.26,2.438,6.913,6.913,0,0,1-2.082,1.78,5.908,5.908,0,0,1-2.9.685Zm1.671-9.669a2.058,2.058,0,0,0-1.315.438,3.739,3.739,0,0,0-.959,1.1,5.966,5.966,0,0,0-.575,1.424,5.775,5.775,0,0,0-.192,1.479,3.533,3.533,0,0,0,.356,1.78,1.413,1.413,0,0,0,1.315.63A2.058,2.058,0,0,0,126.4,25.1a3.738,3.738,0,0,0,.959-1.1,5.966,5.966,0,0,0,.575-1.424,5.775,5.775,0,0,0,.192-1.479,3.533,3.533,0,0,0-.356-1.78,1.413,1.413,0,0,0-1.315-.63Zm8.683,9.368h-3.342l2.821-11.888h3.369Zm1.643-13.339a2.1,2.1,0,0,1-1.26-.411,1.485,1.485,0,0,1-.575-1.287,2.064,2.064,0,0,1,.192-.9,2.28,2.28,0,0,1,.52-.712,3.481,3.481,0,0,1,.74-.493,2.422,2.422,0,0,1,.9-.192,2.1,2.1,0,0,1,1.26.411,1.485,1.485,0,0,1,.575,1.287,2.064,2.064,0,0,1-.192.9,2.28,2.28,0,0,1-.52.712,3.48,3.48,0,0,1-.74.493A2.148,2.148,0,0,1,136.777,14.718Zm3.588,2c.247-.082.548-.164.849-.247a8.134,8.134,0,0,1,1.041-.274c.383-.082.822-.137,1.287-.192a14.11,14.11,0,0,1,1.616-.082c1.78,0,2.986.52,3.67,1.534a5.273,5.273,0,0,1,.329,4.191l-1.534,6.409h-3.369l1.479-6.272c.082-.383.164-.767.219-1.15a2.8,2.8,0,0,0,0-.959,1.194,1.194,0,0,0-.411-.685,1.672,1.672,0,0,0-1.013-.247,7.7,7.7,0,0,0-1.342.137L141,28.085h-3.369Z" transform="translate(-41.412 -2.047)" fill="#555"/>
  </g>
</svg>
