<svg xmlns="http://www.w3.org/2000/svg" width="29" height="29" viewBox="0 0 29 29">
  <g id="Group_438" data-name="Group 438" transform="translate(-5.3 -7.3)">
    <circle id="Ellipse_131" data-name="Ellipse 131" cx="14.5" cy="14.5" r="14.5" transform="translate(5.3 7.3)" fill="#2c7"/>
    <path id="Path_655" data-name="Path 655" d="M37.113,30.789a3.554,3.554,0,0,0-1.67-1.559,2.618,2.618,0,0,0,2.027-2.518,3.776,3.776,0,0,0-.119-1.359,2.7,2.7,0,0,0-.716-1.039,5.48,5.48,0,0,0-1.113-.759A10.343,10.343,0,0,0,34.052,23l.6-2.8-1.67-.36-.557,2.717c-.278-.08-.755-.16-1.352-.28l.6-2.717-1.789-.36-.6,2.8c-.239-.04-.6-.12-1.073-.2L25.9,21.238l-.4,1.8,1.232.28a.917.917,0,0,1,.835.959L26.9,27.432c.08,0,.119.04.159.04l-.159-.04-.954,4.436a.6.6,0,0,1-.755.44l-1.232-.28L23.2,33.986l2.186.48q.239.06.6.12a2.515,2.515,0,0,0,.6.12l-.6,2.8,1.67.36.6-2.8c.318.08.755.16,1.352.28L29,38.1l1.67.36.6-2.8a13.134,13.134,0,0,0,1.63.16,8.6,8.6,0,0,0,1.431-.08,4.176,4.176,0,0,0,1.193-.4,3.023,3.023,0,0,0,.914-.839,4.064,4.064,0,0,0,.636-1.319,3.134,3.134,0,0,0,.04-2.4Zm-6.519-6.514c.04,0,.2.04.437.08s.437.08.6.12.358.08.636.16a6.413,6.413,0,0,1,.676.24c.159.08.358.2.557.32a1.7,1.7,0,0,1,.477.44,1.242,1.242,0,0,1,.239.52,1.946,1.946,0,0,1,0,.679,2.319,2.319,0,0,1-.2.559,1.13,1.13,0,0,1-.4.36,2.425,2.425,0,0,1-.477.2,2.335,2.335,0,0,1-.557.08h-.6a4.113,4.113,0,0,1-.6-.08,4.539,4.539,0,0,0-.557-.08c-.119-.04-.278-.04-.517-.12-.2-.04-.358-.08-.358-.08l.636-3.4Zm3.021,8.472a3.6,3.6,0,0,1-.358.4,1.038,1.038,0,0,1-.517.24c-.2.04-.4.08-.557.12a3.2,3.2,0,0,1-.636.04c-.239,0-.477-.04-.636-.04-.2-.04-.4-.04-.636-.08s-.437-.08-.6-.12-.318-.08-.517-.12-.358-.08-.4-.08l.8-3.716a3.431,3.431,0,0,1,.517.12c.278.04.517.12.716.16s.437.12.755.2a5.931,5.931,0,0,1,.8.28,3.756,3.756,0,0,1,.676.36,2.306,2.306,0,0,1,.557.48,1.394,1.394,0,0,1,.278.6,1.236,1.236,0,0,1,0,.759C33.774,32.427,33.734,32.627,33.615,32.747Zm0,0" transform="translate(-10.636 -7.071)" fill="#fff"/>
  </g>
</svg>
