<svg xmlns="http://www.w3.org/2000/svg" width="74.256" height="74.256" viewBox="0 0 74.256 74.256">
  <g id="codigo-qr" transform="translate(-16 -16)">
    <path id="Path_656" data-name="Path 656" d="M17.238,25.9a1.238,1.238,0,0,0,1.238-1.238V18.475h6.188a1.238,1.238,0,1,0,0-2.475H17.238A1.238,1.238,0,0,0,16,17.238v7.426A1.238,1.238,0,0,0,17.238,25.9Z"/>
    <path id="Path_657" data-name="Path 657" d="M440.663,16h-7.426a1.238,1.238,0,0,0,0,2.475h6.188v6.188a1.238,1.238,0,1,0,2.475,0V17.238A1.238,1.238,0,0,0,440.663,16Z" transform="translate(-351.645)"/>
    <path id="Path_658" data-name="Path 658" d="M24.663,439.426H18.475v-6.188a1.238,1.238,0,0,0-2.475,0v7.426a1.238,1.238,0,0,0,1.238,1.238h7.426a1.238,1.238,0,1,0,0-2.475Z" transform="translate(0 -351.645)"/>
    <path id="Path_659" data-name="Path 659" d="M440.663,432a1.238,1.238,0,0,0-1.238,1.238v6.188h-6.188a1.238,1.238,0,0,0,0,2.475h7.426a1.238,1.238,0,0,0,1.238-1.238v-7.426A1.238,1.238,0,0,0,440.663,432Z" transform="translate(-351.645 -351.645)"/>
    <path id="Path_660" data-name="Path 660" d="M65.326,64.089V49.238A1.238,1.238,0,0,0,64.089,48H49.238A1.238,1.238,0,0,0,48,49.238V64.089a1.238,1.238,0,0,0,1.238,1.238H64.089A1.238,1.238,0,0,0,65.326,64.089Zm-2.475-1.238H50.475V50.475H62.851Z" transform="translate(-27.05 -27.05)"/>
    <path id="Path_661" data-name="Path 661" d="M81.238,87.426h4.95a1.238,1.238,0,0,0,1.238-1.238v-4.95A1.238,1.238,0,0,0,86.188,80h-4.95A1.238,1.238,0,0,0,80,81.238v4.95A1.238,1.238,0,0,0,81.238,87.426Zm1.238-4.95H84.95V84.95H82.475Z" transform="translate(-54.099 -54.099)"/>
    <path id="Path_662" data-name="Path 662" d="M369.326,49.238A1.238,1.238,0,0,0,368.089,48H353.238A1.238,1.238,0,0,0,352,49.238V64.089a1.238,1.238,0,0,0,1.238,1.238h14.851a1.238,1.238,0,0,0,1.238-1.238Zm-2.475,13.614H354.475V50.475h12.376Z" transform="translate(-284.021 -27.05)"/>
    <path id="Path_663" data-name="Path 663" d="M385.238,87.426h4.95a1.238,1.238,0,0,0,1.238-1.238v-4.95A1.238,1.238,0,0,0,390.188,80h-4.95A1.238,1.238,0,0,0,384,81.238v4.95A1.238,1.238,0,0,0,385.238,87.426Zm1.238-4.95h2.475V84.95h-2.475Z" transform="translate(-311.071 -54.099)"/>
    <path id="Path_664" data-name="Path 664" d="M64.089,352H49.238A1.238,1.238,0,0,0,48,353.238v14.851a1.238,1.238,0,0,0,1.238,1.238H64.089a1.238,1.238,0,0,0,1.238-1.238V353.238A1.238,1.238,0,0,0,64.089,352Zm-1.238,14.851H50.475V354.475H62.851Z" transform="translate(-27.05 -284.021)"/>
    <path id="Path_665" data-name="Path 665" d="M81.238,391.426h4.95a1.238,1.238,0,0,0,1.238-1.238v-4.95A1.238,1.238,0,0,0,86.188,384h-4.95A1.238,1.238,0,0,0,80,385.238v4.95A1.238,1.238,0,0,0,81.238,391.426Zm1.238-4.95H84.95v2.475H82.475Z" transform="translate(-54.099 -311.071)"/>
    <path id="Path_666" data-name="Path 666" d="M182.188,54.188a1.238,1.238,0,0,0,1.238-1.238V49.238A1.238,1.238,0,0,0,182.188,48h-4.95a1.238,1.238,0,0,0,0,2.475h3.713V52.95A1.238,1.238,0,0,0,182.188,54.188Z" transform="translate(-135.248 -27.05)"/>
    <path id="Path_667" data-name="Path 667" d="M180.95,91.138h6.188a1.238,1.238,0,1,0,0-2.475h-4.95V84.95a1.238,1.238,0,0,0-1.238-1.238h-2.475V81.238a1.238,1.238,0,0,0-2.475,0V84.95a1.238,1.238,0,0,0,1.238,1.238h2.475V89.9A1.238,1.238,0,0,0,180.95,91.138Z" transform="translate(-135.248 -54.099)"/>
    <path id="Path_668" data-name="Path 668" d="M243.713,48h-2.475a1.238,1.238,0,0,0,0,2.475h2.475a1.238,1.238,0,0,0,0-2.475Z" transform="translate(-189.347 -27.05)"/>
    <path id="Path_669" data-name="Path 669" d="M265.9,48h-3.713a1.238,1.238,0,0,0-1.238,1.238V52.95h-3.713a1.238,1.238,0,1,0,0,2.475h4.95a1.238,1.238,0,0,0,1.238-1.238V50.475H265.9a1.238,1.238,0,1,0,0-2.475Z" transform="translate(-202.872 -27.05)"/>
    <path id="Path_670" data-name="Path 670" d="M273.238,112A1.238,1.238,0,0,0,272,113.238v3.713a1.238,1.238,0,1,0,2.475,0v-3.713A1.238,1.238,0,0,0,273.238,112Z" transform="translate(-216.397 -81.149)"/>
    <path id="Path_671" data-name="Path 671" d="M306.475,81.238V84.95h-1.238a1.238,1.238,0,1,0,0,2.475h2.475a1.238,1.238,0,0,0,1.238-1.238v-4.95a1.238,1.238,0,1,0-2.475,0Z" transform="translate(-243.446 -54.099)"/>
    <path id="Path_672" data-name="Path 672" d="M232,105.238a1.238,1.238,0,0,0,1.238,1.238h1.238a1.238,1.238,0,0,0,0-2.475h-1.238A1.238,1.238,0,0,0,232,105.238Z" transform="translate(-182.585 -74.386)"/>
    <path id="Path_673" data-name="Path 673" d="M250.653,217.415a1.238,1.238,0,1,0,0-2.475H245.7v-2.475h2.475a1.238,1.238,0,0,0,1.238-1.238V203.8a1.238,1.238,0,1,0-2.475,0v6.188H235.8v-9.9a1.238,1.238,0,0,0-1.238-1.238h-3.713v-1.238a1.238,1.238,0,0,0-1.238-1.238h-6.188v-6.188a1.238,1.238,0,0,0-2.475,0v1.238h-2.475v-6.188a1.238,1.238,0,1,0-2.475,0v7.426a1.238,1.238,0,0,0,1.238,1.238h3.713v3.713a1.238,1.238,0,0,0,1.238,1.238h6.188v1.238a1.238,1.238,0,0,0,1.238,1.238h3.713V203.8h-2.475a1.238,1.238,0,1,0,0,2.475h2.475v18.564a1.238,1.238,0,0,0,2.475,0v-2.475h2.475v2.475a1.238,1.238,0,0,0,2.475,0v-2.475h2.475v3.713a1.238,1.238,0,1,0,2.475,0v-8.663Zm-14.851-4.95h7.426v7.426H235.8Z" transform="translate(-169.06 -142.01)"/>
    <path id="Path_674" data-name="Path 674" d="M182.188,292.465v-3.713a1.238,1.238,0,0,0-1.238-1.238h-1.238v-4.95h7.426a1.238,1.238,0,0,0,1.238-1.238v-4.95a1.238,1.238,0,0,0-1.238-1.238H185.9v-3.713a1.238,1.238,0,0,0-1.238-1.238h-2.475v-4.95a1.238,1.238,0,1,0-2.475,0v4.95h-2.475A1.238,1.238,0,0,0,176,271.426v4.95a1.238,1.238,0,1,0,2.475,0v-3.713h4.95v2.475h-1.238a1.238,1.238,0,0,0-1.238,1.238v3.713h-2.475a1.238,1.238,0,0,0-1.238,1.238v6.188a1.238,1.238,0,1,0,0,2.475h2.475v2.475h-2.475a1.238,1.238,0,0,0,0,2.475h4.95a1.238,1.238,0,0,0,0-2.475Zm1.238-14.851H185.9v2.475h-2.475Z" transform="translate(-135.248 -209.634)"/>
    <path id="Path_675" data-name="Path 675" d="M249.9,400h-4.95a1.238,1.238,0,0,0-1.238,1.238v6.188h-2.475a1.238,1.238,0,1,0,0,2.475h6.188a1.238,1.238,0,1,0,0-2.475h-1.238v-4.95h2.475v1.238a1.238,1.238,0,0,0,2.475,0v-2.475A1.238,1.238,0,0,0,249.9,400Z" transform="translate(-189.347 -324.595)"/>
    <path id="Path_676" data-name="Path 676" d="M234.475,403.713v-2.475a1.238,1.238,0,0,0-2.475,0v2.475a1.238,1.238,0,0,0,2.475,0Z" transform="translate(-182.585 -324.595)"/>
    <path id="Path_677" data-name="Path 677" d="M276.95,352h-3.713a1.238,1.238,0,1,0,0,2.475h3.713a1.238,1.238,0,1,0,0-2.475Z" transform="translate(-216.397 -284.021)"/>
    <path id="Path_678" data-name="Path 678" d="M252.95,302.188a1.238,1.238,0,0,0,1.238-1.238v-3.713A1.238,1.238,0,0,0,252.95,296h-3.713a1.238,1.238,0,1,0,0,2.475h2.475v2.475A1.238,1.238,0,0,0,252.95,302.188Z" transform="translate(-196.11 -236.684)"/>
    <path id="Path_679" data-name="Path 679" d="M450.475,273.238a1.238,1.238,0,1,0-2.475,0v3.713a1.238,1.238,0,1,0,2.475,0Z" transform="translate(-365.17 -216.397)"/>
    <path id="Path_680" data-name="Path 680" d="M449.238,328A1.238,1.238,0,0,0,448,329.238v4.95a1.238,1.238,0,1,0,2.475,0v-4.95A1.238,1.238,0,0,0,449.238,328Z" transform="translate(-365.17 -263.734)"/>
    <path id="Path_681" data-name="Path 681" d="M361.238,302.188h3.713a1.238,1.238,0,1,0,0-2.475h-2.475v-2.475a1.238,1.238,0,1,0-2.475,0v3.713A1.238,1.238,0,0,0,361.238,302.188Z" transform="translate(-290.783 -236.684)"/>
    <path id="Path_682" data-name="Path 682" d="M59.138,182.188A1.238,1.238,0,0,0,57.9,180.95H55.426v-3.713A1.238,1.238,0,0,0,54.188,176h-4.95a1.238,1.238,0,1,0,0,2.475H52.95v3.713a1.238,1.238,0,0,0,1.238,1.238H57.9A1.238,1.238,0,0,0,59.138,182.188Z" transform="translate(-27.05 -135.248)"/>
    <path id="Path_683" data-name="Path 683" d="M129.238,144.663h6.188a1.238,1.238,0,0,0,1.238-1.238v-6.188a1.238,1.238,0,0,0-2.475,0v4.95h-4.95a1.238,1.238,0,1,0,0,2.475Z" transform="translate(-94.674 -101.436)"/>
    <path id="Path_684" data-name="Path 684" d="M48,225.238v4.95a1.238,1.238,0,1,0,2.475,0v-4.95a1.238,1.238,0,0,0-2.475,0Z" transform="translate(-27.05 -175.822)"/>
    <path id="Path_685" data-name="Path 685" d="M81.238,240a1.238,1.238,0,1,0,0,2.475h2.475a1.238,1.238,0,1,0,0-2.475Z" transform="translate(-54.099 -189.347)"/>
    <path id="Path_686" data-name="Path 686" d="M69.039,217.9v-2.475h1.238a1.238,1.238,0,1,0,0-2.475H69.039v-3.713A1.238,1.238,0,0,0,67.8,208h-4.95a1.238,1.238,0,0,0,0,2.475h3.713v2.475h-4.95a1.238,1.238,0,0,0-1.238,1.238V217.9H59.138a1.238,1.238,0,0,0-1.238,1.238v6.188H55.426v-3.713a1.238,1.238,0,0,0-1.238-1.238h-4.95a1.238,1.238,0,1,0,0,2.475H52.95v2.475H49.238a1.238,1.238,0,0,0,0,2.475H64.089a1.238,1.238,0,0,0,0-2.475H60.376v-4.95h2.475v1.238a1.238,1.238,0,0,0,2.475,0v-2.475a1.238,1.238,0,0,0-1.238-1.238H62.851v-2.475h3.713V217.9a1.238,1.238,0,0,0,2.475,0Z" transform="translate(-27.05 -162.298)"/>
    <path id="Path_687" data-name="Path 687" d="M257.238,170.475h2.475a1.238,1.238,0,0,0,0-2.475h-2.475a1.238,1.238,0,1,0,0,2.475Z" transform="translate(-202.872 -128.486)"/>
    <path id="Path_688" data-name="Path 688" d="M289.238,202.475h2.475a1.238,1.238,0,0,0,0-2.475h-2.475a1.238,1.238,0,1,0,0,2.475Z" transform="translate(-229.922 -155.535)"/>
    <path id="Path_689" data-name="Path 689" d="M311.426,144.663v4.95a1.238,1.238,0,0,0,1.238,1.238h2.475a1.238,1.238,0,1,0,0-2.475H313.9v-3.713h4.95a1.238,1.238,0,1,0,0-2.475h-8.663V140.95a1.238,1.238,0,0,0-1.238-1.238h-2.475v-2.475a1.238,1.238,0,0,0-2.475,0v3.713a1.238,1.238,0,0,0,1.238,1.238h2.475v1.238a1.238,1.238,0,0,0,1.238,1.238Z" transform="translate(-243.446 -101.436)"/>
    <path id="Path_690" data-name="Path 690" d="M281.238,234.475h6.188a1.238,1.238,0,1,0,0-2.475h-6.188a1.238,1.238,0,1,0,0,2.475Z" transform="translate(-223.159 -182.585)"/>
    <path id="Path_691" data-name="Path 691" d="M416.663,177.238A1.238,1.238,0,0,0,415.426,176h-3.713a1.238,1.238,0,0,0,0,2.475h2.475v2.475h-3.713a1.238,1.238,0,1,0,0,2.475h3.713V185.9h-4.95a1.238,1.238,0,0,0,0,2.475h6.188a1.238,1.238,0,0,0,1.238-1.238Z" transform="translate(-331.358 -135.248)"/>
    <path id="Path_692" data-name="Path 692" d="M345.238,250.475h1.238v1.238a1.238,1.238,0,1,0,2.475,0v-2.475A1.238,1.238,0,0,0,347.713,248h-2.475a1.238,1.238,0,1,0,0,2.475Z" transform="translate(-277.258 -196.11)"/>
    <path id="Path_693" data-name="Path 693" d="M394.475,275.713v-1.238h2.475a1.238,1.238,0,1,0,0-2.475h-3.713A1.238,1.238,0,0,0,392,273.238v2.475a1.238,1.238,0,0,0,2.475,0Z" transform="translate(-317.833 -216.397)"/>
    <path id="Path_694" data-name="Path 694" d="M426.475,422.188v-3.713h2.475a1.238,1.238,0,1,0,0-2.475h-3.713A1.238,1.238,0,0,0,424,417.238v4.95a1.238,1.238,0,1,0,2.475,0Z" transform="translate(-344.883 -338.12)"/>
    <circle id="Ellipse_132" data-name="Ellipse 132" cx="1.5" cy="1.5" r="1.5" transform="translate(69.128 73.128)"/>
  </g>
</svg>
