<svg xmlns="http://www.w3.org/2000/svg" width="32" height="28" viewBox="0 0 32 28">
  <g id="Group_415" data-name="Group 415" transform="translate(-0.109 -0.337)">
    <g id="Group_421" data-name="Group 421">
      <g id="Ellipse_116" data-name="Ellipse 116" transform="translate(0.109 9.337)" fill="#4460f1" stroke="#eceffe" stroke-width="2">
        <circle cx="9" cy="9" r="9" stroke="none"/>
        <circle cx="9" cy="9" r="8" fill="none"/>
      </g>
      <path id="Path_487" data-name="Path 487" d="M175.445,137.677l-2.68,0,.528-1.937,1.221-.377a.451.451,0,1,0-.267-.861l-.673.208.78-2.857a.451.451,0,0,0-.871-.237l-.93,3.41-1.309.4a.451.451,0,1,0,.267.861l.761-.235L171.739,138a.451.451,0,0,0,.435.569l3.27,0a.451.451,0,1,0,0-.9Z" transform="translate(-164.633 -116.616)" fill="#fff"/>
    </g>
    <g id="Group_417" data-name="Group 417" transform="translate(13.962 9.967)">
      <g id="Ellipse_118" data-name="Ellipse 118" transform="translate(0.148 0.371)" fill="#4460f1" stroke="#eceffe" stroke-width="2">
        <circle cx="9" cy="9" r="9" stroke="none"/>
        <circle cx="9" cy="9" r="8" fill="none"/>
      </g>
      <path id="Icon_awesome-ethereum" data-name="Icon awesome-ethereum" d="M5.711,4.418,3.138,5.99.563,4.418,3.138,0ZM3.138,6.5.563,4.923,3.138,8.674,5.713,4.923,3.138,6.5Z" transform="translate(6.036 4.76)" fill="#fff"/>
    </g>
    <g id="Group_416" data-name="Group 416" transform="translate(8.073 0.337)">
      <g id="Ellipse_117" data-name="Ellipse 117" transform="translate(0.037 -0.001)" fill="#4460f1" stroke="#eceffe" stroke-width="2">
        <circle cx="9" cy="9" r="9" stroke="none"/>
        <circle cx="9" cy="9" r="8" fill="none"/>
      </g>
      <path id="Icon_metro-bitcoin" data-name="Icon metro-bitcoin" d="M12.874,6.677a1.051,1.051,0,0,1-.581,1.144,1.332,1.332,0,0,1,.776.457,1.314,1.314,0,0,1,.2.949,1.676,1.676,0,0,1-.144.554,1.223,1.223,0,0,1-.286.395,1.455,1.455,0,0,1-.43.259,2.62,2.62,0,0,1-.539.153,5.343,5.343,0,0,1-.645.067v1.131h-.683V10.672q-.355,0-.541,0v1.117H9.318V10.654l-.239,0-.244,0H7.948l.137-.811h.492a.237.237,0,0,0,.257-.226V7.83h.071a.451.451,0,0,0-.071,0V6.553a.352.352,0,0,0-.395-.3H7.948V5.524l.94,0q.284,0,.43,0V4.407H10V5.5q.364-.009.541-.009V4.407h.683V5.524a3.956,3.956,0,0,1,.621.1,2.016,2.016,0,0,1,.5.2,1.016,1.016,0,0,1,.366.346,1.131,1.131,0,0,1,.162.508Zm-.953,2.417a.592.592,0,0,0-.066-.284.665.665,0,0,0-.164-.2.842.842,0,0,0-.255-.135,2.152,2.152,0,0,0-.29-.082,2.622,2.622,0,0,0-.328-.04q-.2-.013-.306-.013t-.286,0l-.211,0v1.5l.164,0,.213,0q.084,0,.235-.007t.259-.018q.109-.011.253-.038a1.7,1.7,0,0,0,.246-.062A1.507,1.507,0,0,0,11.6,9.63.614.614,0,0,0,11.77,9.5a.627.627,0,0,0,.109-.177.588.588,0,0,0,.042-.226Zm-.315-2.111a.582.582,0,0,0-.055-.259.618.618,0,0,0-.135-.186.663.663,0,0,0-.213-.124,1.524,1.524,0,0,0-.244-.073,2.442,2.442,0,0,0-.273-.035q-.162-.013-.257-.011l-.239,0-.175,0V7.662l.153,0q.131,0,.206,0l.222-.009a1.875,1.875,0,0,0,.244-.024q.1-.018.228-.049a.752.752,0,0,0,.215-.082,1.217,1.217,0,0,0,.164-.12.427.427,0,0,0,.12-.171.615.615,0,0,0,.04-.226Z" transform="translate(-1.494 0.362)" fill="#fff"/>
    </g>
  </g>
</svg>
