<svg xmlns="http://www.w3.org/2000/svg" width="108.939" height="18.917" viewBox="0 0 108.939 18.917">
  <g id="eth_logo_text" data-name="eth logo text" transform="translate(-29.38 -6.403)">
    <path id="Path_640" data-name="Path 640" d="M239.236,119.864a.456.456,0,0,1-.461.448h-8.491a4.254,4.254,0,0,0,4.021,4.021,3.957,3.957,0,0,0,3.5-1.793.458.458,0,0,1,.371-.218.411.411,0,0,1,.423.423.4.4,0,0,1-.064.218,4.807,4.807,0,0,1-4.226,2.216,5.3,5.3,0,1,1,4.931-5.315Zm-.909-.4a4.021,4.021,0,1,0-8.043,0Z" transform="translate(-200.021 -99.923)" fill="#3b3b3b"/>
    <path id="Path_641" data-name="Path 641" d="M347.737,90.889a.435.435,0,0,1,.423.423.411.411,0,0,1-.423.423h-2.28v8.952a.426.426,0,0,1-.423.423.435.435,0,0,1-.423-.423V91.735h-2.19a.411.411,0,0,1-.423-.423.426.426,0,0,1,.423-.423h2.19V87.623a.455.455,0,0,1,.384-.448.419.419,0,0,1,.474.423v3.291Z" transform="translate(-298.198 -76.007)" fill="#3b3b3b"/>
    <path id="Path_642" data-name="Path 642" d="M438.537,62.807v5.417a.435.435,0,0,1-.423.423.411.411,0,0,1-.423-.423V62.807c0-1.831-1.037-3.65-3.074-3.65-2.613,0-3.74,2.28-3.586,4.623,0,.064.026.333.026.371v4.06a.455.455,0,0,1-.384.448.419.419,0,0,1-.474-.423V50.423a.426.426,0,0,1,.423-.423.435.435,0,0,1,.423.423V60.489a4.1,4.1,0,0,1,3.56-2.19C437.116,58.3,438.537,60.489,438.537,62.807Z" transform="translate(-375.103 -43.597)" fill="#3b3b3b"/>
    <path id="Path_643" data-name="Path 643" d="M547.436,119.864a.456.456,0,0,1-.461.448h-8.491a4.254,4.254,0,0,0,4.021,4.021,3.957,3.957,0,0,0,3.5-1.793.458.458,0,0,1,.371-.218.411.411,0,0,1,.423.423.4.4,0,0,1-.064.218,4.807,4.807,0,0,1-4.226,2.216,5.3,5.3,0,1,1,4.931-5.315Zm-.922-.4a4.021,4.021,0,1,0-8.043,0Z" transform="translate(-468.748 -99.923)" fill="#3b3b3b"/>
    <path id="Path_644" data-name="Path 644" d="M662.679,116.6a.432.432,0,0,1-.4.461c-2.5.371-3.624,2.408-3.624,4.777v4.06a.455.455,0,0,1-.384.448.419.419,0,0,1-.474-.423v-9.26a.455.455,0,0,1,.384-.448.419.419,0,0,1,.474.423v1.883a4.53,4.53,0,0,1,3.56-2.318A.439.439,0,0,1,662.679,116.6Z" transform="translate(-573.554 -101.317)" fill="#3b3b3b"/>
    <path id="Path_645" data-name="Path 645" d="M737.936,119.864a.456.456,0,0,1-.461.448h-8.491a4.254,4.254,0,0,0,4.021,4.021,3.957,3.957,0,0,0,3.5-1.793.458.458,0,0,1,.371-.218.411.411,0,0,1,.423.423.4.4,0,0,1-.064.218,4.807,4.807,0,0,1-4.226,2.216,5.3,5.3,0,1,1,4.931-5.315Zm-.909-.4a4.021,4.021,0,1,0-8.043,0Z" transform="translate(-634.851 -99.923)" fill="#3b3b3b"/>
    <path id="Path_646" data-name="Path 646" d="M855.6,117.045v9.3a.436.436,0,0,1-.423.423.411.411,0,0,1-.423-.423v-1.767a4,4,0,0,1-3.535,2.408c-2.523,0-3.919-2.19-3.919-4.508v-5.443a.427.427,0,0,1,.423-.423.435.435,0,0,1,.423.423v5.443c0,1.831,1.037,3.65,3.074,3.65,2.856,0,3.535-2.677,3.535-5.635v-3.471a.429.429,0,0,1,.576-.4.465.465,0,0,1,.269.423Z" transform="translate(-738.784 -101.663)" fill="#3b3b3b"/>
    <path id="Path_647" data-name="Path 647" d="M972.491,119.27v5.443a.435.435,0,0,1-.423.423.411.411,0,0,1-.423-.423V119.27c0-1.831-1.037-3.624-3.074-3.624-2.561,0-3.535,2.741-3.535,4.867v4.2a.435.435,0,0,1-.423.423.411.411,0,0,1-.423-.423V119.27c0-1.831-1.037-3.624-3.074-3.624-2.587,0-3.65,2.036-3.56,4.751,0,.064.026.179,0,.218V124.7a.455.455,0,0,1-.384.448.419.419,0,0,1-.474-.423V115.44a.455.455,0,0,1,.384-.448.419.419,0,0,1,.474.423v1.55a4.072,4.072,0,0,1,3.56-2.164,3.8,3.8,0,0,1,3.624,2.7,4.2,4.2,0,0,1,3.829-2.7c2.5,0,3.919,2.164,3.919,4.47Z" transform="translate(-834.173 -100.097)" fill="#3b3b3b"/>
  </g>
</svg>
