<svg xmlns="http://www.w3.org/2000/svg" width="13.78" height="15.842" viewBox="0 0 13.78 15.842">
  <g id="Icon_feather-copy" data-name="Icon feather-copy" transform="translate(-3.735 -3.25)">
    <path id="Path_699" data-name="Path 699" d="M14.792,13.5H20.6A1.429,1.429,0,0,1,21.9,15.034v6.9A1.429,1.429,0,0,1,20.6,23.472H14.792A1.429,1.429,0,0,1,13.5,21.938v-6.9A1.429,1.429,0,0,1,14.792,13.5Z" transform="translate(-5.13 -5.13)" fill="none" stroke="#4460f1" stroke-linecap="round" stroke-linejoin="round" stroke-width="1.5"/>
    <path id="Path_700" data-name="Path 700" d="M4.958,12.972H4.306A1.434,1.434,0,0,1,3,11.438v-6.9A1.434,1.434,0,0,1,4.306,3h5.875a1.434,1.434,0,0,1,1.306,1.534V5.3" transform="translate(1.485 1)" fill="none" stroke="#4460f1" stroke-linecap="round" stroke-linejoin="round" stroke-width="1.5"/>
  </g>
</svg>
