<svg xmlns="http://www.w3.org/2000/svg" width="14.401" height="14.401" viewBox="0 0 14.401 14.401">
  <g id="Icon_feather-copy" data-name="Icon feather-copy" transform="translate(-3.5 -3.5)">
    <path id="Path_327" data-name="Path 327" d="M14.942,13.5h6.488a1.442,1.442,0,0,1,1.442,1.442v6.488a1.442,1.442,0,0,1-1.442,1.442H14.942A1.442,1.442,0,0,1,13.5,21.429V14.942A1.442,1.442,0,0,1,14.942,13.5Z" transform="translate(-5.47 -5.47)" fill="none" stroke="#505b67" stroke-linecap="round" stroke-linejoin="round" stroke-width="1"/>
    <path id="Path_328" data-name="Path 328" d="M5.163,12.371H4.442A1.442,1.442,0,0,1,3,10.929V4.442A1.442,1.442,0,0,1,4.442,3h6.488a1.442,1.442,0,0,1,1.442,1.442v.721" transform="translate(1 1)" fill="none" stroke="#505b67" stroke-linecap="round" stroke-linejoin="round" stroke-width="1"/>
  </g>
</svg>
