<svg xmlns="http://www.w3.org/2000/svg" width="12.734" height="14.856" viewBox="0 0 12.734 14.856">
  <path id="Icon_metro-file-pdf" data-name="Icon metro-file-pdf" d="M14.741,5.354a1.929,1.929,0,0,1,.4.63,1.913,1.913,0,0,1,.166.73v9.55a.793.793,0,0,1-.8.8H3.367a.793.793,0,0,1-.8-.8V3a.793.793,0,0,1,.8-.8h7.428a1.914,1.914,0,0,1,.73.166,1.929,1.929,0,0,1,.63.4ZM11.06,3.331V6.448h3.117a.906.906,0,0,0-.182-.34L11.4,3.513a.905.905,0,0,0-.34-.182ZM14.243,16V7.509H10.794a.793.793,0,0,1-.8-.8V3.265H3.632V16H14.243ZM9.982,11.082a6.308,6.308,0,0,0,.7.464,8.226,8.226,0,0,1,.97-.058q1.219,0,1.467.406a.4.4,0,0,1,.017.431.024.024,0,0,1-.008.017l-.017.017v.008q-.05.315-.589.315a3.42,3.42,0,0,1-.953-.166,6.045,6.045,0,0,1-1.078-.439,14.928,14.928,0,0,0-3.25.688Q5.97,14.937,5.232,14.937A.482.482,0,0,1,5,14.879l-.2-.1-.05-.041a.343.343,0,0,1-.05-.3,1.8,1.8,0,0,1,.464-.759,4.006,4.006,0,0,1,1.094-.8.121.121,0,0,1,.191.05.048.048,0,0,1,.017.033q.431-.7.887-1.633a12.653,12.653,0,0,0,.862-2.172,6.7,6.7,0,0,1-.253-1.322A3.223,3.223,0,0,1,8.017,6.78q.091-.332.348-.332h.182a.35.35,0,0,1,.29.124.662.662,0,0,1,.075.564.18.18,0,0,1-.033.066.216.216,0,0,1,.008.066v.249a10.856,10.856,0,0,1-.116,1.592,4.194,4.194,0,0,0,1.21,1.973ZM5.207,14.489a3.66,3.66,0,0,0,1.136-1.31,4.726,4.726,0,0,0-.725.7A2.755,2.755,0,0,0,5.207,14.489Zm3.3-7.627A2.465,2.465,0,0,0,8.49,7.957q.008-.058.058-.365,0-.025.058-.356a.187.187,0,0,1,.033-.066.024.024,0,0,1-.008-.017.017.017,0,0,0,0-.012.017.017,0,0,1,0-.012.477.477,0,0,0-.108-.3.024.024,0,0,1-.008.017v.017Zm-1.028,5.48a12.16,12.16,0,0,1,2.354-.671,1.25,1.25,0,0,1-.108-.079,1.485,1.485,0,0,1-.133-.112A4.391,4.391,0,0,1,8.54,10.021a11.078,11.078,0,0,1-.688,1.633q-.249.464-.373.688Zm5.355-.133a1.984,1.984,0,0,0-1.161-.2,3.136,3.136,0,0,0,1.028.232.8.8,0,0,0,.149-.008q0-.008-.017-.025Z" transform="translate(-2.571 -2.204)" fill="#505b67"/>
</svg>
