<svg xmlns="http://www.w3.org/2000/svg" width="29" height="29" viewBox="0 0 29 29">
  <g id="lite_logo" data-name="lite logo" transform="translate(-0.5 -0.5)">
    <path id="Path_629" data-name="Path 629" d="M15,.5A14.5,14.5,0,1,0,29.5,15,14.5,14.5,0,0,0,15,.5m.216,14.966-1.5,5.094h8.057a.419.419,0,0,1,.4.533l-.7,2.414a.554.554,0,0,1-.533.4H8.624L10.7,16.865l-2.3.716.5-1.665,2.314-.716,2.93-9.889a.554.554,0,0,1,.533-.4H17.8a.419.419,0,0,1,.4.533L15.716,13.8l2.3-.716-.5,1.681Z" transform="translate(0 0)" fill="#345d9d"/>
  </g>
</svg>
