<svg xmlns="http://www.w3.org/2000/svg" width="64.248" height="17.998" viewBox="0 0 64.248 17.998">
  <g id="lite_logo_text" data-name="lite logo text" transform="translate(-32.37 -4.536)">
    <path id="Path_630" data-name="Path 630" d="M206.982,26.9h-.836a.286.286,0,0,0-.294.248l-2.167,17.167c-.015.17.031.248.2.248h.836a.265.265,0,0,0,.294-.248L207.2,27.148c.046-.17-.046-.248-.217-.248" transform="translate(-171.312 -22.26)" fill="#345d9d"/>
    <path id="Path_631" data-name="Path 631" d="M238.669,58.9h-.836a.274.274,0,0,0-.294.248l-1.548,12.229c-.015.17.077.248.232.248h.836a.274.274,0,0,0,.294-.248l1.532-12.213c.015-.17-.046-.263-.217-.263" transform="translate(-198.617 -49.307)" fill="#345d9d"/>
    <path id="Path_632" data-name="Path 632" d="M460.064,57.6a4.75,4.75,0,0,0-3.018.991,4.7,4.7,0,0,0-1.687,2.616,23.317,23.317,0,0,0-.526,2.957,27.763,27.763,0,0,0-.232,2.957,3.629,3.629,0,0,0,1.037,2.632,3.876,3.876,0,0,0,2.786.991,4.737,4.737,0,0,0,3-.991,4.631,4.631,0,0,0,1.687-2.632,24.117,24.117,0,0,0,.526-2.957,27.237,27.237,0,0,0,.232-2.972,3.427,3.427,0,0,0-1.022-2.6,3.861,3.861,0,0,0-2.786-.991m2.353,5.371c-.077.619-.124,1.022-.139,1.192-.155,1.269-.294,2.167-.418,2.709a3.458,3.458,0,0,1-1.192,1.95,3.226,3.226,0,0,1-2.105.728,2.475,2.475,0,0,1-2.632-2.632,13.264,13.264,0,0,1,.124-1.563c.077-.619.124-1.022.139-1.192.155-1.207.294-2.105.418-2.709A3.458,3.458,0,0,1,457.8,59.5a3.226,3.226,0,0,1,2.105-.728,2.644,2.644,0,0,1,1.919.712,2.569,2.569,0,0,1,.712,1.9,13.018,13.018,0,0,1-.124,1.579" transform="translate(-383.389 -48.208)" fill="#345d9d"/>
    <path id="Path_633" data-name="Path 633" d="M530.669,58.9h-.82a.286.286,0,0,0-.294.248l-1.563,12.229c-.016.17.077.248.232.248h.836a.274.274,0,0,0,.294-.248l1.532-12.213c.015-.17-.047-.263-.217-.263" transform="translate(-445.417 -49.307)" fill="#345d9d"/>
    <path id="Path_634" data-name="Path 634" d="M566.491,58.7a3.178,3.178,0,0,0-2.43-.9,4.411,4.411,0,0,0-1.873.387,3.8,3.8,0,0,0-1.455,1.176c-.077.062-.108.046-.108-.046l.124-1.084c.016-.155-.046-.248-.2-.248h-.836a.286.286,0,0,0-.294.248l-1.532,12.213c-.016.155.031.248.2.248h.836a.262.262,0,0,0,.279-.248l1.114-8.761a3.5,3.5,0,0,1,1.146-1.966,3.1,3.1,0,0,1,2.059-.728,2.3,2.3,0,0,1,1.765.7,2.627,2.627,0,0,1,.65,1.873,4.941,4.941,0,0,1-.031.557l-1.068,8.328a.281.281,0,0,0,.031.17.267.267,0,0,0,.2.077h.836a.252.252,0,0,0,.279-.248l1.068-8.529c.031-.341.046-.588.046-.758a3.173,3.173,0,0,0-.8-2.461" transform="translate(-470.683 -48.378)" fill="#345d9d"/>
    <path id="Path_635" data-name="Path 635" d="M248.644,26.35a1.008,1.008,0,0,0-1.378.433,1.043,1.043,0,0,0,.433,1.393,1.028,1.028,0,0,0,.944-1.827" transform="translate(-208.051 -21.695)" fill="#345d9d"/>
    <path id="Path_636" data-name="Path 636" d="M541.044,26.35a1.008,1.008,0,0,0-1.378.433,1.032,1.032,0,0,0,1.827.96,1.059,1.059,0,0,0-.449-1.393" transform="translate(-455.189 -21.695)" fill="#345d9d"/>
    <path id="Path_637" data-name="Path 637" d="M389.664,57.6a4.842,4.842,0,0,0-3.018.991,4.7,4.7,0,0,0-1.687,2.616,25.6,25.6,0,0,0-.526,2.957,29.1,29.1,0,0,0-.232,2.957,3.629,3.629,0,0,0,1.037,2.632,3.877,3.877,0,0,0,2.786.991,4.737,4.737,0,0,0,3-.991,4.631,4.631,0,0,0,1.687-2.632c.015-.093.046-.186.062-.279a.116.116,0,0,0-.108-.139H391.63a.147.147,0,0,0-.155.124.156.156,0,0,1-.015.046,3.458,3.458,0,0,1-1.192,1.95,3.226,3.226,0,0,1-2.105.728,2.475,2.475,0,0,1-2.632-2.632,13.264,13.264,0,0,1,.124-1.563c.062-.526.124-1.022.139-1.192.155-1.207.294-2.105.418-2.709A3.458,3.458,0,0,1,387.4,59.5a3.226,3.226,0,0,1,2.105-.728,2.605,2.605,0,0,1,1.919.712,2.569,2.569,0,0,1,.712,1.9v.015a.2.2,0,0,0,.2.2h.975a.155.155,0,0,0,.155-.155V61.16a3.427,3.427,0,0,0-1.022-2.6,3.955,3.955,0,0,0-2.786-.96" transform="translate(-323.887 -48.208)" fill="#345d9d"/>
    <path id="Path_638" data-name="Path 638" d="M320.235,58.591a3.863,3.863,0,0,0-2.771-.991,4.75,4.75,0,0,0-3.018.991,4.7,4.7,0,0,0-1.687,2.616,25.628,25.628,0,0,0-.526,2.957A20.671,20.671,0,0,0,312,67.12a3.629,3.629,0,0,0,1.037,2.632,3.876,3.876,0,0,0,2.786.991,4.737,4.737,0,0,0,3-.991,4.631,4.631,0,0,0,1.687-2.632c.015-.093.046-.186.062-.279a.109.109,0,0,0-.108-.139H319.43a.147.147,0,0,0-.155.124.156.156,0,0,1-.015.046,3.458,3.458,0,0,1-1.192,1.95,3.226,3.226,0,0,1-2.105.728,2.475,2.475,0,0,1-2.632-2.632,12.042,12.042,0,0,1,.093-1.362l7.523-2.337c.155-.046.217-.124.248-.31a16.619,16.619,0,0,0,.077-1.734,3.638,3.638,0,0,0-1.037-2.585m-.294,3.514a.151.151,0,0,1-.124.155l-6.238,1.935v-.031c.155-1.207.294-2.105.418-2.709a3.458,3.458,0,0,1,1.192-1.95,3.226,3.226,0,0,1,2.105-.728,2.644,2.644,0,0,1,1.919.712,3.091,3.091,0,0,1,.728,2.616" transform="translate(-262.863 -48.208)" fill="#345d9d"/>
    <path id="Path_639" data-name="Path 639" d="M273.188,52.782a.2.2,0,0,1,.294.2l-.108.836a.341.341,0,0,1-.186.248,3.624,3.624,0,0,1-2.616.031c-.96-.433-1.207-1.378-1.068-2.554l1.1-8.963.155-1.285.372-2.848a.257.257,0,0,1,.294-.248h.8c.186,0,.232.108.2.248l-.48,4.056h2.616c.155,0,.217.093.217.248l-.077.588a.393.393,0,0,1-.077.2.311.311,0,0,1-.2.062h-2.6l-.913,7.353c-.093.789-.2,1.5.2,1.888.526.433,1.548.186,2.074-.062" transform="translate(-226.914 -31.811)" fill="#345d9d"/>
  </g>
</svg>
