<svg id="Layer_1" data-name="Layer 1" xmlns="http://www.w3.org/2000/svg" width="215.962" height="52.323" viewBox="0 0 215.962 52.323">
  <path id="Path_584" data-name="Path 584" d="M35.993,32.33H50.75c7.924,0,10.906,4.011,10.445,9.9-.758,9.737-6.64,15.112-14.445,15.112H42.812c-1.07,0-1.79.7-2.08,2.629L39.04,71.137c-.11.724-.491,1.143-1.063,1.2H28.724c-.872,0-1.181-.667-.952-2.107l5.649-35.786A2.257,2.257,0,0,1,35.993,32.33Z" transform="translate(-17.148 -20.014)" fill="#009ee3" fill-rule="evenodd"/>
  <path id="Path_585" data-name="Path 585" d="M185.966,30.59c4.979,0,9.573,2.7,8.945,9.432-.762,8-5.048,12.43-11.809,12.449h-5.9c-.85,0-1.257.69-1.482,2.114l-1.143,7.265c-.171,1.1-.735,1.638-1.569,1.638h-5.493c-.88,0-1.185-.56-.99-1.813l4.545-29.119c.225-1.432.762-1.966,1.745-1.966ZM177.01,46.178h4.48c2.8-.1,4.659-2.042,4.846-5.543a3.378,3.378,0,0,0-3.665-3.691h-4.217l-1.444,9.215Zm32.841,15.078c.5-.453,1.017-.693.941-.13l-.179,1.349c-.091.7.187,1.078.846,1.078h4.88c.823,0,1.223-.331,1.429-1.6l2.994-18.887c.149-.949-.08-1.413-.8-1.413H214.59c-.484,0-.716.27-.846,1.01l-.2,1.143c-.1.61-.381.712-.64.1-.91-2.156-3.234-3.124-6.476-3.048-7.535.175-12.613,5.889-13.154,13.211-.423,5.672,3.642,10.122,9,10.122A9.65,9.65,0,0,0,209.851,61.256Zm-4.084-2.9a4.9,4.9,0,0,1-5.032-5.756,7.01,7.01,0,0,1,6.743-5.756A4.9,4.9,0,0,1,212.51,52.6,7,7,0,0,1,205.767,58.353Zm24.571-16.762h-4.933c-1.025,0-1.44.762-1.112,1.7l6.148,18-6.061,8.56c-.5.716-.114,1.371.6,1.371h5.569a1.7,1.7,0,0,0,1.653-.815l18.906-27.123c.583-.834.309-1.71-.644-1.71H245.2c-.9,0-1.265.358-1.783,1.109l-7.889,11.428-3.508-11.463a1.514,1.514,0,0,0-1.68-1.063Z" transform="translate(-103.05 -18.937)" fill="#113984" fill-rule="evenodd"/>
  <path id="Path_586" data-name="Path 586" d="M408.632,30.59c4.983,0,9.577,2.7,8.948,9.432-.762,8-5.047,12.43-11.809,12.449h-5.908c-.85,0-1.261.69-1.482,2.114l-1.143,7.265c-.171,1.1-.735,1.638-1.569,1.638h-5.493c-.876,0-1.181-.56-.987-1.813l4.545-29.119c.225-1.432.762-1.966,1.741-1.966ZM399.68,46.178h4.476c2.8-.1,4.663-2.042,4.849-5.543a3.378,3.378,0,0,0-3.665-3.691h-4.217l-1.444,9.215Zm32.83,15.078c.5-.453,1.013-.693.941-.13l-.179,1.349c-.091.7.187,1.078.842,1.078H439c.823,0,1.223-.331,1.425-1.6l3.009-18.887c.152-.949-.076-1.413-.8-1.413h-5.356c-.484,0-.72.27-.846,1.01l-.2,1.143c-.1.61-.381.712-.64.1-.91-2.156-3.234-3.124-6.476-3.048-7.55.175-12.628,5.889-13.173,13.211-.419,5.672,3.646,10.122,9,10.122a9.659,9.659,0,0,0,7.581-2.933Zm-4.088-2.9a4.9,4.9,0,0,1-5.028-5.756,7.01,7.01,0,0,1,6.743-5.756,4.905,4.905,0,0,1,5.04,5.756,7,7,0,0,1-6.743,5.756Zm22.525,5.234h-5.623a.667.667,0,0,1-.693-.762l4.952-31.375a.971.971,0,0,1,.937-.781h5.634a.67.67,0,0,1,.693.781L451.9,62.825a.968.968,0,0,1-.937.762Z" transform="translate(-240.895 -18.937)" fill="#009ee3" fill-rule="evenodd"/>
  <path id="Path_587" data-name="Path 587" d="M9.616,0H24.381c4.19,0,9.108.133,12.407,3.048a10.009,10.009,0,0,1,3.1,8.381c-.907,11.284-7.653,17.6-16.7,17.6H15.894c-1.238,0-2.061.823-2.411,3.048L11.448,45.028c-.13.838-.5,1.333-1.143,1.39H1.19c-1.01,0-1.368-.762-1.1-2.446L6.637,2.453A2.617,2.617,0,0,1,9.616,0Z" transform="translate(-0.002)" fill="#113984" fill-rule="evenodd"/>
  <path id="Path_588" data-name="Path 588" d="M36,50.775l2.579-16.331A2.257,2.257,0,0,1,41.15,32.33H55.889a14.461,14.461,0,0,1,5.966,1.082c-1.486,10.042-7.977,15.619-16.483,15.619H38.088A2.12,2.12,0,0,0,36,50.775Z" transform="translate(-22.287 -20.014)" fill="#172c70" fill-rule="evenodd"/>
</svg>
