<svg xmlns="http://www.w3.org/2000/svg" width="15.422" height="18.328" viewBox="0 0 15.422 18.328">
  <g id="paypal_icon" data-name="paypal icon" transform="translate(0)">
    <path id="Path_457" data-name="Path 457" d="M161.284,130.612c-.8-.917-2.291-1.375-4.353-1.375H151.2a.983.983,0,0,0-.8.687l-2.291,15.007a.524.524,0,0,0,.458.573h3.551l.916-5.613v.229a.982.982,0,0,1,.8-.687h1.719c3.322,0,5.842-1.375,6.644-5.155v-.344h0a4,4,0,0,0-.916-3.322" transform="translate(-148.11 -129.237)" fill="#263b80"/>
    <path id="Path_458" data-name="Path 458" d="M226.192,186.342V186c0-.011,0-.022,0-.033a3.242,3.242,0,0,0-.54-.3,5.073,5.073,0,0,0-1.735-.35h-5.174a.828.828,0,0,0-.8.711l-.913,5.934v.229a.982.982,0,0,1,.8-.687h1.719C222.871,191.5,225.39,190.123,226.192,186.342Z" transform="translate(-212.103 -181.302)" fill="#232c65"/>
    <path id="Path_459" data-name="Path 459" d="M211.984,195.935a3,3,0,0,0-1.123-1.453c0,.011,0,.022,0,.033v.344c-.8,3.781-3.322,5.155-6.644,5.155H202.5a.982.982,0,0,0-.8.687v-.088c-.013.029-.025.059-.035.088l-.647,3.949-.234,1.435h0l-.263,1.6a.419.419,0,0,0,.458.458h2.856a.807.807,0,0,0,.81-.688l.024-.15h0l.548-3.4a.867.867,0,0,1,.854-.8h.292c2.864,0,5.155-1.145,5.728-4.582A5.4,5.4,0,0,0,211.984,195.935Z" transform="translate(-196.769 -189.819)" fill="#139ad6"/>
  </g>
</svg>
