<svg xmlns="http://www.w3.org/2000/svg" xmlns:xlink="http://www.w3.org/1999/xlink" width="62.355" height="63.855" viewBox="0 0 62.355 63.855">
  <defs>
    <filter id="Polygon_2" x="0" y="0" width="62.355" height="63.855" filterUnits="userSpaceOnUse">
      <feOffset dy="15" input="SourceAlpha"/>
      <feGaussianBlur stdDeviation="4.5" result="blur"/>
      <feFlood flood-color="#00b4d8" flood-opacity="0.341"/>
      <feComposite operator="in" in2="blur"/>
      <feComposite in="SourceGraphic"/>
    </filter>
  </defs>
  <g transform="matrix(1, 0, 0, 1, 0, 0)" filter="url(#Polygon_2)">
    <g id="Polygon_2-2" data-name="Polygon 2" transform="translate(29.76) rotate(45)" fill="none">
      <path d="M10.05,5.877a4,4,0,0,1,6.9,0l6.514,11.1A4,4,0,0,1,20.014,23H6.986a4,4,0,0,1-3.45-6.025Z" stroke="none"/>
      <path d="M 13.49999904632568 6.902002334594727 C 13.28615951538086 6.902002334594727 12.88976860046387 6.966154098510742 12.63758945465088 7.395803451538086 L 6.12354850769043 18.49381256103516 C 5.868209838867188 18.9288330078125 6.01055908203125 19.30900382995605 6.118148803710938 19.49689292907715 C 6.225728988647461 19.68479347229004 6.481529235839844 20.00000381469727 6.985958099365234 20.00000381469727 L 20.01402854919434 20.00000381469727 C 20.51846885681152 20.00000381469727 20.77426910400391 19.68478393554688 20.88184928894043 19.49688339233398 C 20.98943901062012 19.30899429321289 21.13179016113281 18.9288330078125 20.87644958496094 18.49380302429199 L 14.36240863800049 7.395803451538086 C 14.1102294921875 6.966154098510742 13.71383857727051 6.902002334594727 13.49999904632568 6.902002334594727 M 13.49999904632568 3.902002334594727 C 14.83837890625 3.902002334594727 16.1767578125 4.560403823852539 16.94965934753418 5.877202987670898 L 23.46369934082031 16.97520446777344 C 25.02885818481445 19.64176368713379 23.10600852966309 22.99999237060547 20.0140380859375 23.00000381469727 L 6.985958099365234 23.00000381469727 C 3.893989562988281 23.00000381469727 1.971139907836914 19.64176368713379 3.536298751831055 16.97520446777344 L 10.05033874511719 5.877202987670898 C 10.82323837280273 4.560403823852539 12.16161918640137 3.902002334594727 13.49999904632568 3.902002334594727 Z" stroke="none" fill="#00b4d8"/>
    </g>
  </g>
</svg>
