<svg xmlns="http://www.w3.org/2000/svg" width="20.359" height="24.022" viewBox="0 0 20.359 24.022">
  <g id="pp_rv_mg" transform="translate(0)">
    <path id="Path_524" data-name="Path 524" d="M18.346,6.1a4.773,4.773,0,0,0-1.013-4.292C16.221.543,14.211,0,11.638,0H4.172A1.068,1.068,0,0,0,3.117.9L.008,20.616a.641.641,0,0,0,.633.741h4.61l-.318,2.017a.561.561,0,0,0,.554.648H9.371a.934.934,0,0,0,.923-.789l.038-.2.732-4.641.047-.257a.934.934,0,0,1,.923-.789h.581c3.764,0,6.711-1.529,7.572-5.952.36-1.848.174-3.39-.778-4.475a3.706,3.706,0,0,0-1.064-.82h0" transform="translate(0 0)" fill="#fff" opacity="0.68"/>
    <path id="Path_525" data-name="Path 525" d="M18.346,6.1a4.773,4.773,0,0,0-1.013-4.292C16.221.543,14.211,0,11.638,0H4.172A1.068,1.068,0,0,0,3.117.9L.008,20.616a.641.641,0,0,0,.633.741h4.61l1.158-7.342-.036.23a1.064,1.064,0,0,1,1.051-.9H9.615c4.3,0,7.671-1.748,8.656-6.8.029-.15.054-.295.076-.437" transform="translate(0 0)" fill="#fff" opacity="0.7"/>
    <path id="Path_526" data-name="Path 526" d="M7.652,6.128a.935.935,0,0,1,.923-.789h5.853a12.19,12.19,0,0,1,1.931.141q.253.041.493.094c.159.035.315.075.465.119.075.022.149.045.221.069a5.27,5.27,0,0,1,.809.342,4.773,4.773,0,0,0-1.013-4.292C16.221.543,14.211,0,11.638,0H4.172A1.068,1.068,0,0,0,3.117.9L.008,20.616a.641.641,0,0,0,.633.741h4.61l1.158-7.342Z" transform="translate(0 0)" fill="#fff"/>
  </g>
</svg>
