<svg id="promotion" xmlns="http://www.w3.org/2000/svg" width="22.909" height="21.678" viewBox="0 0 22.909 21.678">
  <path id="Path_308" data-name="Path 308" d="M122.635,290.41a.447.447,0,1,0-.611-.164A.448.448,0,0,0,122.635,290.41Zm0,0" transform="translate(-116.506 -276.618)" fill="#0077b6"/>
  <path id="Path_309" data-name="Path 309" d="M4.295,38.235l2.253,3.9a1.79,1.79,0,1,0,3.1-1.79L8.306,38.023l1.162-.671a.448.448,0,0,0,.164-.611L9.05,35.733l8.57-1.681a1.342,1.342,0,0,0,1.088-2.011l-1.487-2.576.95-1.439a.448.448,0,0,0,.014-.47l-.895-1.55a.448.448,0,0,0-.414-.223l-1.721.1L13.5,23.027a1.331,1.331,0,0,0-1.146-.671h-.017a1.331,1.331,0,0,0-1.13.619L5.366,30.42l-3.8,2.194a3.132,3.132,0,0,0,2.729,5.621ZM8.873,40.8a.895.895,0,0,1-1.55.895L5.086,37.815l1.55-.895L8.873,40.8ZM7.858,37.248l-.447-.775.775-.447.447.775Zm8.8-10.556.618,1.071-.551.835-1.066-1.846Zm-4.694-3.228a.447.447,0,0,1,.769.009l5.2,9.014a.447.447,0,0,1-.376.671,1.643,1.643,0,0,0-.245.042l-5.505-9.535c.116-.149.13-.163.153-.2Zm-.749.959,5.172,8.959L8.577,34.914,6.2,30.8ZM1.195,36.445a2.236,2.236,0,0,1,.819-3.056L5.5,31.376l2.237,3.875L4.251,37.264a2.24,2.24,0,0,1-3.056-.819Zm0,0" transform="translate(0 -21.355)" fill="#0077b6"/>
  <path id="Path_310" data-name="Path 310" d="M45.514,309.8a.447.447,0,0,0-.611-.164l-.775.447a.448.448,0,0,1-.611-.164.447.447,0,0,0-.775.447,1.344,1.344,0,0,0,1.834.491l.775-.447a.447.447,0,0,0,.164-.611Zm0,0" transform="translate(-40.772 -295.721)" fill="#0077b6"/>
  <path id="Path_311" data-name="Path 311" d="M439,42.538,436.5,43.925a.447.447,0,1,0,.435.782l2.493-1.387a.447.447,0,0,0-.435-.782Zm0,0" transform="translate(-416.754 -40.58)" fill="#0077b6"/>
  <path id="Path_312" data-name="Path 312" d="M442.355,137.1l-1.729-.463a.447.447,0,1,0-.232.864l1.729.463a.447.447,0,1,0,.231-.864Zm0,0" transform="translate(-420.373 -130.508)" fill="#0077b6"/>
  <path id="Path_313" data-name="Path 313" d="M383.971.332l-.464,1.729a.447.447,0,0,0,.864.232l.464-1.729a.447.447,0,1,0-.864-.232Zm0,0" transform="translate(-366.333 0)" fill="#0077b6"/>
</svg>
