<svg xmlns="http://www.w3.org/2000/svg" xmlns:xlink="http://www.w3.org/1999/xlink" width="406" height="21" viewBox="0 0 406 21">
  <defs>
    <clipPath id="clip-path">
      <rect width="406" height="21" fill="none"/>
    </clipPath>
  </defs>
  <g id="Repeat_Grid_3" data-name="Repeat Grid 3" clip-path="url(#clip-path)">
    <g transform="translate(-479 -689)">
      <path id="Polygon_2" data-name="Polygon 2" d="M14.141,3a3,3,0,0,1,4.718,0L29.187,16.147A3,3,0,0,1,26.828,21H6.172a3,3,0,0,1-2.359-4.853Z" transform="translate(512 710) rotate(180)" fill="#fff"/>
    </g>
    <g transform="translate(-450 -689)">
      <path id="Polygon_2-2" data-name="Polygon 2" d="M14.141,3a3,3,0,0,1,4.718,0L29.187,16.147A3,3,0,0,1,26.828,21H6.172a3,3,0,0,1-2.359-4.853Z" transform="translate(512 710) rotate(180)" fill="#fff"/>
    </g>
    <g transform="translate(-421 -689)">
      <path id="Polygon_2-3" data-name="Polygon 2" d="M14.141,3a3,3,0,0,1,4.718,0L29.187,16.147A3,3,0,0,1,26.828,21H6.172a3,3,0,0,1-2.359-4.853Z" transform="translate(512 710) rotate(180)" fill="#fff"/>
    </g>
    <g transform="translate(-392 -689)">
      <path id="Polygon_2-4" data-name="Polygon 2" d="M14.141,3a3,3,0,0,1,4.718,0L29.187,16.147A3,3,0,0,1,26.828,21H6.172a3,3,0,0,1-2.359-4.853Z" transform="translate(512 710) rotate(180)" fill="#fff"/>
    </g>
    <g transform="translate(-363 -689)">
      <path id="Polygon_2-5" data-name="Polygon 2" d="M14.141,3a3,3,0,0,1,4.718,0L29.187,16.147A3,3,0,0,1,26.828,21H6.172a3,3,0,0,1-2.359-4.853Z" transform="translate(512 710) rotate(180)" fill="#fff"/>
    </g>
    <g transform="translate(-334 -689)">
      <path id="Polygon_2-6" data-name="Polygon 2" d="M14.141,3a3,3,0,0,1,4.718,0L29.187,16.147A3,3,0,0,1,26.828,21H6.172a3,3,0,0,1-2.359-4.853Z" transform="translate(512 710) rotate(180)" fill="#fff"/>
    </g>
    <g transform="translate(-305 -689)">
      <path id="Polygon_2-7" data-name="Polygon 2" d="M14.141,3a3,3,0,0,1,4.718,0L29.187,16.147A3,3,0,0,1,26.828,21H6.172a3,3,0,0,1-2.359-4.853Z" transform="translate(512 710) rotate(180)" fill="#fff"/>
    </g>
    <g transform="translate(-276 -689)">
      <path id="Polygon_2-8" data-name="Polygon 2" d="M14.141,3a3,3,0,0,1,4.718,0L29.187,16.147A3,3,0,0,1,26.828,21H6.172a3,3,0,0,1-2.359-4.853Z" transform="translate(512 710) rotate(180)" fill="#fff"/>
    </g>
    <g transform="translate(-247 -689)">
      <path id="Polygon_2-9" data-name="Polygon 2" d="M14.141,3a3,3,0,0,1,4.718,0L29.187,16.147A3,3,0,0,1,26.828,21H6.172a3,3,0,0,1-2.359-4.853Z" transform="translate(512 710) rotate(180)" fill="#fff"/>
    </g>
    <g transform="translate(-218 -689)">
      <path id="Polygon_2-10" data-name="Polygon 2" d="M14.141,3a3,3,0,0,1,4.718,0L29.187,16.147A3,3,0,0,1,26.828,21H6.172a3,3,0,0,1-2.359-4.853Z" transform="translate(512 710) rotate(180)" fill="#fff"/>
    </g>
    <g transform="translate(-189 -689)">
      <path id="Polygon_2-11" data-name="Polygon 2" d="M14.141,3a3,3,0,0,1,4.718,0L29.187,16.147A3,3,0,0,1,26.828,21H6.172a3,3,0,0,1-2.359-4.853Z" transform="translate(512 710) rotate(180)" fill="#fff"/>
    </g>
    <g transform="translate(-160 -689)">
      <path id="Polygon_2-12" data-name="Polygon 2" d="M14.141,3a3,3,0,0,1,4.718,0L29.187,16.147A3,3,0,0,1,26.828,21H6.172a3,3,0,0,1-2.359-4.853Z" transform="translate(512 710) rotate(180)" fill="#fff"/>
    </g>
    <g transform="translate(-131 -689)">
      <path id="Polygon_2-13" data-name="Polygon 2" d="M14.141,3a3,3,0,0,1,4.718,0L29.187,16.147A3,3,0,0,1,26.828,21H6.172a3,3,0,0,1-2.359-4.853Z" transform="translate(512 710) rotate(180)" fill="#fff"/>
    </g>
    <g transform="translate(-102 -689)">
      <path id="Polygon_2-14" data-name="Polygon 2" d="M14.141,3a3,3,0,0,1,4.718,0L29.187,16.147A3,3,0,0,1,26.828,21H6.172a3,3,0,0,1-2.359-4.853Z" transform="translate(512 710) rotate(180)" fill="#fff"/>
    </g>
  </g>
</svg>
