<svg xmlns="http://www.w3.org/2000/svg" width="524.661" height="515.296" viewBox="0 0 524.661 515.296">
  <g id="Group_83" data-name="Group 83" transform="translate(-311.209 -124.049)">
    <path id="Path_125" data-name="Path 125" d="M710.561,1374.382c-8.471-11.457-25.9-75.269-77.47-70.36s-44.01,50.781-41.02,60.2,12.018,19.184,2.99,31.6-27.956,17.216-22.569,34.588,35.11,9.916,60.6,27.224,31.983,31.671,41.359,42.008,31.654,15.8,44.405,3.385,5.783-33.86,17.661-60.2,24.352-37.133,29.848-45.172.471-16.862-4.777-19.852-19.93,9.656-27.814,9.4S719.032,1385.839,710.561,1374.382Z" transform="translate(-76.673 -980.078)" fill="none" stroke="#4460f1" stroke-width="1"/>
    <g id="Path_126" data-name="Path 126" transform="translate(534.699 376.731)" fill="none">
      <path d="M56.09-9.622c19.6,38.261,24.038,41.834,48.077,56.29s-23.8,58.794-54.521,53.886S0,72.527,0,44.474,36.492-47.883,56.09-9.622Z" stroke="none"/>
      <path d="M 41.34621429443359 -20.46043395996094 C 39.19889068603516 -20.46043395996094 36.91087341308594 -19.84653472900391 34.54569244384766 -18.63579559326172 C 32.26949310302734 -17.47061157226563 29.90501403808594 -15.745849609375 27.51791381835938 -13.50942993164063 C 23.04989624023438 -9.323455810546875 18.50747680664063 -3.340892791748047 14.38167572021484 3.791484832763672 C 10.47181701660156 10.55060577392578 7.13287353515625 17.96840667724609 4.725837707519531 25.24292755126953 C 2.288375854492188 32.60940551757813 0.9999923706054688 39.25946807861328 0.9999923706054688 44.47422790527344 C 0.9999923706054688 51.30478668212891 2.136314392089844 57.88738632202148 4.377357482910156 64.03916931152344 C 6.596015930175781 70.12944793701172 9.853912353515625 75.68080902099609 14.06053161621094 80.5390625 C 18.32663726806641 85.46600341796875 23.48969268798828 89.58664703369141 29.40629577636719 92.78652954101563 C 35.53763580322266 96.10256958007813 42.40035247802734 98.38374328613281 49.80379486083984 99.56668853759766 C 51.31855773925781 99.80873107910156 52.92027282714844 99.93144226074219 54.564453125 99.93144226074219 C 59.80759429931641 99.93144226074219 65.55035400390625 98.72499084472656 71.63319396972656 96.3455810546875 C 77.24631500244141 94.14990234375 83.0159912109375 90.96986389160156 88.31849670410156 87.14926910400391 C 93.49015808105469 83.42292785644531 98.12847900390625 79.15790557861328 101.7320327758789 74.81526947021484 C 105.4182357788086 70.373046875 107.9486770629883 65.92790985107422 109.0497970581055 61.96042633056641 C 109.8939971923828 58.91864776611328 109.9082336425781 56.17636489868164 109.0921173095703 53.80978775024414 C 108.2222900390625 51.28752517700195 106.3917388916016 49.17296600341797 103.651252746582 47.52486801147461 C 79.58847045898438 33.05374908447266 75.03185272216797 29.55222702026367 55.19965362548828 -9.166275024414063 C 51.36097717285156 -16.66053009033203 46.70001220703125 -20.46043395996094 41.34621429443359 -20.46043395996094 M 41.34622192382813 -21.46042633056641 C 46.69776916503906 -21.46042633056641 51.79784393310547 -18.00117492675781 56.08969116210938 -9.622177124023438 C 75.68769836425781 28.63910675048828 80.12813568115234 32.21138763427734 104.166633605957 46.66790771484375 C 126.9535980224609 60.37177658081055 85.14299011230469 100.9314422607422 54.564453125 100.9314422607422 C 52.885009765625 100.9314422607422 51.24517059326172 100.809684753418 49.64601135253906 100.5541687011719 C 18.93015289306641 95.64628601074219 0 72.52734375 0 44.47422790527344 C 0 22.56455993652344 22.26080322265625 -21.46042633056641 41.34622192382813 -21.46042633056641 Z" stroke="none" fill="#4460f1"/>
    </g>
    <g id="Path_127" data-name="Path 127" transform="translate(545.149 396.115)" fill="none">
      <path d="M42.75-12.46c14.937,29.088,18.321,31.8,36.643,42.795S61.25,75.033,37.839,71.3,0,49.994,0,28.667,27.813-41.549,42.75-12.46Z" stroke="none"/>
      <path d="M 31.51303100585938 -20.46042251586914 C 29.91407775878906 -20.46042251586914 28.20635986328125 -20.00240707397461 26.43730926513672 -19.09909820556641 C 24.72220611572266 -18.22334289550781 22.93829345703125 -16.92490005493164 21.13512420654297 -15.23982238769531 C 17.74665069580078 -12.07322311401367 14.29960632324219 -7.543914794921875 11.16667938232422 -2.141559600830078 C 8.194801330566406 2.983070373535156 5.656944274902344 8.606931686401367 3.827461242675781 14.12202453613281 C 1.977729797363281 19.69819259643555 1 24.72764015197754 1 28.66665458679199 C 1 33.83127212524414 1.86114501953125 38.80785369873047 3.559494018554688 43.45816421508789 C 5.240402221679688 48.06068420410156 7.7086181640625 52.25588607788086 10.89555358886719 55.92723846435547 C 14.12812805175781 59.65113067626953 18.04081726074219 62.765869140625 22.52492523193359 65.18492126464844 C 27.17459106445313 67.69326782226563 32.37991333007813 69.41899108886719 37.99631118774414 70.31413269042969 C 39.13855743408203 70.49619293212891 40.34685134887695 70.5885009765625 41.58761978149414 70.5885009765625 C 45.55628204345703 70.5885009765625 49.90655899047852 69.67587280273438 54.51763534545898 67.87596130371094 C 58.77972793579102 66.21226501464844 63.16094207763672 63.80242538452148 67.18766784667969 60.90696334838867 C 71.11454010009766 58.08328628540039 74.63466644287109 54.85285568237305 77.36746215820313 51.56491851806641 C 80.15458679199219 48.21160888671875 82.0645751953125 44.86190032958984 82.89096069335938 41.87789916992188 C 83.51691436767578 39.61757659912109 83.52672576904297 37.58473205566406 82.92014312744141 35.83579254150391 C 82.27513885498047 33.97614669799805 80.9154052734375 32.41373062133789 78.87870788574219 31.19196319580078 C 60.48860168457031 20.16019439697266 57.00651168823242 17.49148559570313 41.86055755615234 -12.00354385375977 C 38.97897338867188 -17.6151123046875 35.49755859375 -20.46042251586914 31.51303100585938 -20.46042251586914 M 31.51303100585938 -21.46042251586914 C 35.59184265136719 -21.46042251586914 39.47898864746094 -18.83051300048828 42.75012588500977 -12.46034622192383 C 57.68721771240234 16.6279468536377 61.07161712646484 19.34379386901855 79.39312744140625 30.33442497253418 C 96.76077270507813 40.75284957885742 64.893798828125 71.5885009765625 41.58761596679688 71.5885009765625 C 40.30758285522461 71.5885009765625 39.0577507019043 71.49592590332031 37.83891296386719 71.30166625976563 C 14.42807769775391 67.57041931152344 0 49.99417877197266 0 28.66665458679199 C 0 12.00974655151367 16.96661376953125 -21.46042251586914 31.51303100585938 -21.46042251586914 Z" stroke="none" fill="#4460f1"/>
    </g>
    <g id="Path_128" data-name="Path 128" transform="translate(560.234 424.372)" fill="none">
      <path d="M20.569,24.713C12.051,8.5,13.632,6.875,3.184.749c-7.334-4.3-7.641-18.032,2.628-23.311,4.082-2.1,2.9,7.645,15.686,4.089S52.454-.693,51.921,7.071,29.087,40.925,20.569,24.713Z" stroke="none"/>
      <path d="M 28.17393493652344 28.92332458496094 C 30.32543563842773 28.92332458496094 32.79398345947266 28.05672454833984 35.51101684570313 26.34760475158691 C 37.93268585205078 24.82427406311035 40.491455078125 22.6495246887207 42.91069412231445 20.05846405029297 C 47.28947448730469 15.3687047958374 50.73414611816406 9.75577449798584 50.92330551147461 7.002294540405273 C 51.02472686767578 5.525964736938477 50.29175567626953 3.297484636306763 48.85939407348633 0.7273744940757751 C 47.39506530761719 -1.900105476379395 45.24497604370117 -4.786245346069336 42.80519485473633 -7.39939546585083 C 39.98201370239258 -10.4231653213501 36.89132308959961 -12.98106575012207 33.86722564697266 -14.79656505584717 C 30.4709358215332 -16.83550453186035 27.31586456298828 -17.86933517456055 24.4896354675293 -17.86933517456055 C 23.54005432128906 -17.86933517456055 22.62352561950684 -17.74830627441406 21.76550483703613 -17.50959587097168 C 19.7973747253418 -16.96204566955566 18.00438499450684 -16.68441581726074 16.43633460998535 -16.68441581726074 C 11.86493492126465 -16.68441581726074 9.828004837036133 -19.01456642150879 8.480125427246094 -20.55647468566895 C 7.772415161132813 -21.36606597900391 7.316925048828125 -21.86225509643555 6.888674736022949 -21.86225509643555 C 6.721445083618164 -21.86225509643555 6.512984752655029 -21.79864501953125 6.268905162811279 -21.67308616638184 C 3.906874895095825 -20.45865631103516 2.051964998245239 -18.73606491088867 0.755704939365387 -16.55316543579102 C -0.4114150404930115 -14.58771514892578 -1.062335014343262 -12.32118511199951 -1.1266850233078 -9.99858570098877 C -1.18400502204895 -7.929455280303955 -0.7736550569534302 -5.917365550994873 0.06000496447086334 -4.179835319519043 C 0.906404972076416 -2.4157555103302 2.161614894866943 -1.009665489196777 3.689924955368042 -0.1136054769158363 C 11.90286540985107 4.701744556427002 13.03583526611328 7.06391429901123 16.78984451293945 14.8907642364502 C 17.96426582336426 17.33935546875 19.42587471008301 20.38669395446777 21.45425415039063 24.24743461608887 C 22.31246566772461 25.88091468811035 23.34890556335449 27.1011848449707 24.5347957611084 27.87434387207031 C 25.6024055480957 28.57039451599121 26.82679557800293 28.92332458496094 28.17393493652344 28.92332458496094 M 28.17393684387207 29.9233226776123 C 25.19989585876465 29.9233226776123 22.52218627929688 28.43015098571777 20.56899452209473 24.71253395080566 C 12.0512752532959 8.500264167785645 13.63178539276123 6.874634742736816 3.184134960174561 0.7490545511245728 C -4.150064945220947 -3.551075458526611 -4.456844806671143 -17.28291511535645 5.811655044555664 -22.56242561340332 C 6.215810775756836 -22.77033042907715 6.568992614746094 -22.86225128173828 6.888676643371582 -22.86225128173828 C 9.29123592376709 -22.86225128173828 9.835054397583008 -17.68441772460938 16.43633651733398 -17.68441772460938 C 17.82915878295898 -17.68441772460938 19.49095344543457 -17.91477584838867 21.49747467041016 -18.4730052947998 C 22.46718978881836 -18.74278831481934 23.46836280822754 -18.86933135986328 24.48963737487793 -18.86933135986328 C 36.92979049682617 -18.86933135986328 52.41386795043945 -0.1040624901652336 51.92095565795898 7.070834636688232 C 51.50989151000977 13.05441761016846 38.16947174072266 29.9233226776123 28.17393684387207 29.9233226776123 Z" stroke="none" fill="#4460f1"/>
    </g>
    <g id="Path_129" data-name="Path 129" transform="translate(573.539 434.575)" fill="none">
      <path d="M10.58,3.779C5.81-5.3,6.7-6.21.845-9.64c-4.107-2.408-4.279-10.1,1.471-13.054C4.6-23.87,3.943-18.413,11.1-20.4S28.435-10.448,28.137-6.1,15.35,12.857,10.58,3.779Z" stroke="none"/>
      <path d="M 14.83874988555908 5.696626663208008 C 15.95934963226318 5.696626663208008 17.26285934448242 5.234076976776123 18.71306991577148 4.321836948394775 C 20.03752899169922 3.488696813583374 21.44018936157227 2.295836925506592 22.76941871643066 0.8722068071365356 C 25.39493942260742 -1.939783215522766 27.05288887023926 -4.916013240814209 27.13895988464355 -6.168853282928467 C 27.23406982421875 -7.55327320098877 25.74341011047363 -10.65447330474854 22.71034049987793 -13.90306282043457 C 19.3643798828125 -17.48677253723145 15.65046977996826 -19.62629318237305 12.77561950683594 -19.62629318237305 C 12.28372001647949 -19.62629318237305 11.81015968322754 -19.56393241882324 11.36809921264648 -19.44095230102539 C 10.22760963439941 -19.12365341186523 9.183889389038086 -18.96277236938477 8.265929222106934 -18.96277236938477 C 5.506239414215088 -18.96277236938477 4.286469459533691 -20.35813331604004 3.479329586029053 -21.28146362304688 C 3.299298763275146 -21.48740005493164 3.031308174133301 -21.79397201538086 2.90717077255249 -21.85938453674316 C 2.886164665222168 -21.85428428649902 2.842888116836548 -21.84067344665527 2.773569583892822 -21.80501365661621 C 0.4028695523738861 -20.58612251281738 -1.056090474128723 -18.28394317626953 -1.129150390625 -15.64666271209717 C -1.191190481185913 -13.40720272064209 -0.2409504354000092 -11.43628311157227 1.350759506225586 -10.50305271148682 C 6.065849781036377 -7.738523006439209 6.713779449462891 -6.387643337249756 8.86061954498291 -1.911623239517212 C 9.516729354858398 -0.5436831712722778 10.33327960968018 1.158756852149963 11.46539974212646 3.313586711883545 C 12.30787944793701 4.917126655578613 13.41130924224854 5.696626663208008 14.83874988555908 5.696626663208008 M 14.83875179290771 6.696624279022217 C 13.17334842681885 6.696624279022217 11.6738862991333 5.860478401184082 10.58013916015625 3.778686761856079 C 5.810379505157471 -5.299863338470459 6.695439338684082 -6.210183143615723 0.8449695706367493 -9.640393257141113 C -3.262040376663208 -12.04837322235107 -3.433830499649048 -19.73793411254883 2.316319465637207 -22.6943531036377 C 2.542639255523682 -22.81077575683594 2.740415811538696 -22.86225128173828 2.919432878494263 -22.86225128173828 C 4.26482105255127 -22.86225128173828 4.569342136383057 -19.96277046203613 8.26593017578125 -19.96277046203613 C 9.045883178710938 -19.96277046203613 9.976456642150879 -20.09176635742188 11.10006999969482 -20.40436363220215 C 11.64309120178223 -20.55543518066406 12.20372772216797 -20.62629890441895 12.77562046051025 -20.62629890441895 C 19.74186325073242 -20.62629890441895 28.41263008117676 -10.11811256408691 28.13661003112793 -6.100313186645508 C 27.90641975402832 -2.749634265899658 20.43605041503906 6.696624279022217 14.83875179290771 6.696624279022217 Z" stroke="none" fill="#4460f1"/>
    </g>
    <g id="Ellipse_55" data-name="Ellipse 55" transform="translate(593.485 294.569)" fill="none" stroke="#4460f1" stroke-width="1">
      <ellipse cx="22" cy="21.5" rx="22" ry="21.5" stroke="none"/>
      <ellipse cx="22" cy="21.5" rx="21.5" ry="21" fill="none"/>
    </g>
    <g id="Ellipse_56" data-name="Ellipse 56" transform="translate(625.904 531.625) rotate(19)" fill="none" stroke="#4460f1" stroke-width="1">
      <ellipse cx="15.521" cy="18.343" rx="15.521" ry="18.343" stroke="none"/>
      <ellipse cx="15.521" cy="18.343" rx="15.021" ry="17.843" fill="none"/>
    </g>
    <g id="Ellipse_57" data-name="Ellipse 57" transform="matrix(0.225, 0.974, -0.974, 0.225, 828.887, 479.745)" fill="none" stroke="#4460f1" stroke-width="1">
      <ellipse cx="15.521" cy="18.343" rx="15.521" ry="18.343" stroke="none"/>
      <ellipse cx="15.521" cy="18.343" rx="15.021" ry="17.843" fill="none"/>
    </g>
    <g id="Path_130" data-name="Path 130" transform="translate(639.292 341.755)" fill="none">
      <path d="M23.6,11.464c11.385,7.345,20.662,13.084,18.94,22.674s-17.467-10.06-28.222-.861S1.779,36.4,1.779,24.323,12.219,4.119,23.6,11.464Z" stroke="none"/>
      <path d="M 14.98442077636719 9.669303894042969 C 8.026149749755859 9.669303894042969 2.7789306640625 15.96882247924805 2.7789306640625 24.32253265380859 C 2.7789306640625 28.77408218383789 3.039150238037109 31.77495193481445 3.597862243652344 33.76643371582031 C 4.334369659423828 36.39166259765625 5.406570434570313 36.72832489013672 6.258392333984375 36.72832489013672 C 7.910831451416016 36.72832489013672 10.40508270263672 35.31139373779297 13.67185974121094 32.51688385009766 C 15.81485176086426 30.68369293212891 18.34906196594238 29.75419235229492 21.20409202575684 29.75419235229492 C 25.50666236877441 29.75419235229492 29.77037048339844 31.77309226989746 33.53216171264648 33.5543327331543 C 36.02461242675781 34.73452377319336 38.37882232666016 35.84926223754883 39.85608291625977 35.84926223754883 C 40.51625061035156 35.84926223754883 41.24676132202148 35.70332336425781 41.5595817565918 33.9606819152832 C 41.93381118774414 31.87591171264648 41.7613525390625 29.95145225524902 41.03235244750977 28.07733345031738 C 40.35734176635742 26.34201240539551 39.20259094238281 24.64549255371094 37.50214004516602 22.89081192016602 C 34.20428085327148 19.48780250549316 29.38934135437012 16.38373374938965 23.81411170959473 12.78952407836914 L 23.06141090393066 12.30415344238281 C 20.35142135620117 10.55579376220703 17.63393211364746 9.669303894042969 14.98442077636719 9.669303894042969 M 14.98442077636719 8.669303894042969 C 17.67671966552734 8.669303894042969 20.60721206665039 9.530757904052734 23.60353088378906 11.46385192871094 C 34.98842239379883 18.80888366699219 44.26531219482422 24.54739189147949 42.54384994506836 34.13736343383789 C 42.18892669677734 36.11459350585938 41.23667907714844 36.84925842285156 39.85608291625977 36.84925842285156 C 35.87655258178711 36.84925842285156 28.32933807373047 30.75419616699219 21.20409202575684 30.75419616699219 C 18.81193542480469 30.75419616699219 16.46768379211426 31.44120788574219 14.32190132141113 33.27678298950195 C 10.71693420410156 36.36059188842773 8.118801116943359 37.72832489013672 6.258392333984375 37.72832489013672 C 2.568733215332031 37.72832489013672 1.7789306640625 32.35221099853516 1.7789306640625 24.32253265380859 C 1.7789306640625 15.42294692993164 7.446983337402344 8.669303894042969 14.98442077636719 8.669303894042969 Z" stroke="none" fill="#4460f1"/>
    </g>
    <g id="Path_132" data-name="Path 132" transform="translate(710.546 487.789)" fill="none">
      <path d="M23.6,11.464c11.385,7.345,20.662,13.084,18.94,22.674s-17.467-10.06-28.222-.861S1.779,36.4,1.779,24.323,12.219,4.119,23.6,11.464Z" stroke="none"/>
      <path d="M 14.98442077636719 9.669303894042969 C 8.026149749755859 9.669303894042969 2.7789306640625 15.96882247924805 2.7789306640625 24.32253265380859 C 2.7789306640625 28.77408218383789 3.039150238037109 31.77495193481445 3.597862243652344 33.76643371582031 C 4.334369659423828 36.39166259765625 5.406570434570313 36.72832489013672 6.258392333984375 36.72832489013672 C 7.910831451416016 36.72832489013672 10.40508270263672 35.31139373779297 13.67185974121094 32.51688385009766 C 15.81485176086426 30.68369293212891 18.34906196594238 29.75419235229492 21.20409202575684 29.75419235229492 C 25.50666236877441 29.75419235229492 29.77037048339844 31.77309226989746 33.53216171264648 33.5543327331543 C 36.02461242675781 34.73452377319336 38.37882232666016 35.84926223754883 39.85608291625977 35.84926223754883 C 40.51625061035156 35.84926223754883 41.24676132202148 35.70332336425781 41.5595817565918 33.9606819152832 C 41.93381118774414 31.87591171264648 41.7613525390625 29.95145225524902 41.03235244750977 28.07733345031738 C 40.35734176635742 26.34201240539551 39.20259094238281 24.64549255371094 37.50214004516602 22.89081192016602 C 34.20428085327148 19.48780250549316 29.38934135437012 16.38373374938965 23.81411170959473 12.78952407836914 L 23.06141090393066 12.30415344238281 C 20.35142135620117 10.55579376220703 17.63393211364746 9.669303894042969 14.98442077636719 9.669303894042969 M 14.98442077636719 8.669303894042969 C 17.67671966552734 8.669303894042969 20.60721206665039 9.530757904052734 23.60353088378906 11.46385192871094 C 34.98842239379883 18.80888366699219 44.26531219482422 24.54739189147949 42.54384994506836 34.13736343383789 C 42.18892669677734 36.11459350585938 41.23667907714844 36.84925842285156 39.85608291625977 36.84925842285156 C 35.87655258178711 36.84925842285156 28.32933807373047 30.75419616699219 21.20409202575684 30.75419616699219 C 18.81193542480469 30.75419616699219 16.46768379211426 31.44120788574219 14.32190132141113 33.27678298950195 C 10.71693420410156 36.36059188842773 8.118801116943359 37.72832489013672 6.258392333984375 37.72832489013672 C 2.568733215332031 37.72832489013672 1.7789306640625 32.35221099853516 1.7789306640625 24.32253265380859 C 1.7789306640625 15.42294692993164 7.446983337402344 8.669303894042969 14.98442077636719 8.669303894042969 Z" stroke="none" fill="#4460f1"/>
    </g>
    <g id="Path_131" data-name="Path 131" transform="translate(417.065 261.33)" fill="none">
      <path d="M23.6,11.464c11.385,7.345,20.662,13.084,18.94,22.674s-17.467-10.06-28.222-.861S1.779,36.4,1.779,24.323,12.219,4.119,23.6,11.464Z" stroke="none"/>
      <path d="M 14.98442077636719 9.669303894042969 C 8.026149749755859 9.669303894042969 2.7789306640625 15.96882247924805 2.7789306640625 24.32253265380859 C 2.7789306640625 28.77408218383789 3.039150238037109 31.77495193481445 3.597862243652344 33.76643371582031 C 4.334369659423828 36.39166259765625 5.406570434570313 36.72832489013672 6.258392333984375 36.72832489013672 C 7.910831451416016 36.72832489013672 10.40508270263672 35.31139373779297 13.67185974121094 32.51688385009766 C 15.81485176086426 30.68369293212891 18.34906196594238 29.75419235229492 21.20409202575684 29.75419235229492 C 25.50666236877441 29.75419235229492 29.77037048339844 31.77309226989746 33.53216171264648 33.5543327331543 C 36.02461242675781 34.73452377319336 38.37882232666016 35.84926223754883 39.85608291625977 35.84926223754883 C 40.51625061035156 35.84926223754883 41.24676132202148 35.70332336425781 41.5595817565918 33.9606819152832 C 41.93381118774414 31.87591171264648 41.7613525390625 29.95145225524902 41.03235244750977 28.07733345031738 C 40.35734176635742 26.34201240539551 39.20259094238281 24.64549255371094 37.50214004516602 22.89081192016602 C 34.20428085327148 19.48780250549316 29.38934135437012 16.38373374938965 23.81411170959473 12.78952407836914 L 23.06141090393066 12.30415344238281 C 20.35142135620117 10.55579376220703 17.63393211364746 9.669303894042969 14.98442077636719 9.669303894042969 M 14.98442077636719 8.669303894042969 C 17.67671966552734 8.669303894042969 20.60721206665039 9.530757904052734 23.60353088378906 11.46385192871094 C 34.98842239379883 18.80888366699219 44.26531219482422 24.54739189147949 42.54384994506836 34.13736343383789 C 42.18892669677734 36.11459350585938 41.23667907714844 36.84925842285156 39.85608291625977 36.84925842285156 C 35.87655258178711 36.84925842285156 28.32933807373047 30.75419616699219 21.20409202575684 30.75419616699219 C 18.81193542480469 30.75419616699219 16.46768379211426 31.44120788574219 14.32190132141113 33.27678298950195 C 10.71693420410156 36.36059188842773 8.118801116943359 37.72832489013672 6.258392333984375 37.72832489013672 C 2.568733215332031 37.72832489013672 1.7789306640625 32.35221099853516 1.7789306640625 24.32253265380859 C 1.7789306640625 15.42294692993164 7.446983337402344 8.669303894042969 14.98442077636719 8.669303894042969 Z" stroke="none" fill="#4460f1"/>
    </g>
    <g id="Path_298" data-name="Path 298" transform="translate(435.985 470.576) rotate(47)" fill="none">
      <path d="M21.825,2.795c11.385,7.345,20.662,13.084,18.94,22.674S23.3,15.408,12.543,24.607,0,27.732,0,15.653,10.44-4.55,21.825,2.795Z" stroke="none"/>
      <path d="M 13.20549011230469 1.000001907348633 C 6.247219085693359 1.000001907348633 1 7.299522399902344 1 15.65323257446289 C 1 20.10478210449219 1.260219573974609 23.10565185546875 1.818931579589844 25.09713363647461 C 2.555438995361328 27.72236251831055 3.627639770507813 28.05902290344238 4.479461669921875 28.05902290344238 C 6.131900787353516 28.05902290344238 8.626152038574219 26.64209365844727 11.89293098449707 23.84758377075195 C 14.03592109680176 22.0143928527832 16.57013130187988 21.08489227294922 19.42516136169434 21.08489227294922 C 23.72773170471191 21.08489227294922 27.99143981933594 23.10379219055176 31.75323104858398 24.88503265380859 C 34.24568176269531 26.06522369384766 36.59989166259766 27.17996215820313 38.07715225219727 27.17996215820313 C 38.73731994628906 27.17996215820313 39.46783065795898 27.03402328491211 39.7806510925293 25.2913818359375 C 40.15488052368164 23.20661163330078 39.982421875 21.28215408325195 39.25342178344727 19.40803146362305 C 38.57841110229492 17.6727123260498 37.42366027832031 15.97619247436523 35.72320938110352 14.22151184082031 C 32.42535018920898 10.81850242614746 27.61041069030762 7.714433670043945 22.03518104553223 4.120222091674805 L 21.28248023986816 3.634853363037109 C 18.57249069213867 1.886493682861328 15.85500144958496 1.000001907348633 13.20549011230469 1.000001907348633 M 13.20549011230469 1.9073486328125e-06 C 15.89778900146484 1.9073486328125e-06 18.82828140258789 0.8614578247070313 21.82460021972656 2.794551849365234 C 33.20949172973633 10.13958358764648 42.48638153076172 15.87809276580811 40.76491928100586 25.46806335449219 C 40.40999603271484 27.44529151916504 39.45774841308594 28.17996025085449 38.07715225219727 28.17996025085449 C 34.09762191772461 28.17996025085449 26.55040740966797 22.08489608764648 19.42516136169434 22.08489608764648 C 17.03300476074219 22.08489608764648 14.68875312805176 22.77190780639648 12.54297065734863 24.60748291015625 C 8.938003540039063 27.69129180908203 6.339870452880859 29.05902481079102 4.479461669921875 29.05902481079102 C 0.7898025512695313 29.05902481079102 0 23.68291091918945 0 15.65323257446289 C 0 6.753646850585938 5.668052673339844 1.9073486328125e-06 13.20549011230469 1.9073486328125e-06 Z" stroke="none" fill="#4460f1"/>
    </g>
    <g id="Path_133" data-name="Path 133" transform="translate(741.798 530.229)" fill="none">
      <path d="M40.273,5.9c21.819,0,41.785,22.894,41.785,44.713s-8.732,61.971-37.5,30.639S-6.8,69.948-3.387,42.545,18.454,5.9,40.273,5.9Z" stroke="none"/>
      <path d="M 40.27306365966797 6.8966064453125 C 28.65144729614258 6.8966064453125 19.18489074707031 9.538490295410156 12.13636016845703 14.74886322021484 C 8.251579284667969 17.62055969238281 5.072616577148438 21.31623077392578 2.687789916992188 25.73321533203125 C 0.1244888305664063 30.48073577880859 -1.585395812988281 36.17867279052734 -2.394378662109375 42.66874694824219 C -3.197425842285156 49.11122894287109 -2.5740966796875 53.02986145019531 -0.3732681274414063 55.37458801269531 C 1.725936889648438 57.61106109619141 5.35089111328125 58.56041717529297 9.940261840820313 59.76233291625977 C 18.97133255004883 62.12751770019531 31.33982086181641 65.36674499511719 45.29863357543945 80.57186126708984 C 52.11997604370117 88.00225830078125 58.16719055175781 91.76979064941406 63.27230453491211 91.76979064941406 C 64.81105041503906 91.76979064941406 66.28652954101563 91.41850280761719 67.65776062011719 90.7257080078125 C 68.96884918212891 90.06329345703125 70.22247314453125 89.07131958007813 71.38380432128906 87.77731323242188 C 73.55897521972656 85.35368347167969 75.44263458251953 81.86164855957031 76.98244476318359 77.39820861816406 C 78.34140777587891 73.45899963378906 79.392333984375 68.89944458007813 80.10601806640625 63.84617614746094 C 80.72879028320313 59.43671798706055 81.05796051025391 54.85948944091797 81.05796051025391 50.60935974121094 C 81.05796051025391 48.00443267822266 80.76261901855469 45.32166290283203 80.18014526367188 42.63555908203125 C 79.61296081542969 40.01995849609375 78.77073669433594 37.38661956787109 77.67683410644531 34.80867767333984 C 75.53243255615234 29.75507354736328 72.39693450927734 24.89202117919922 68.60932159423828 20.74523162841797 C 64.77494812011719 16.54724884033203 60.26158905029297 13.07637786865234 55.55718994140625 10.70784759521484 C 50.53416442871094 8.178886413574219 45.39183044433594 6.8966064453125 40.27306365966797 6.8966064453125 M 40.27306365966797 5.8966064453125 C 62.0921630859375 5.8966064453125 82.05796051025391 28.79026031494141 82.05796051025391 50.60935974121094 C 82.05796051025391 66.70201110839844 77.30601501464844 92.76978302001953 63.27229690551758 92.76978302001953 C 58.27850341796875 92.76978302001953 52.11113739013672 89.47132873535156 44.56197357177734 81.24813079833984 C 15.79790496826172 49.91586303710938 -6.802452087402344 69.94802856445313 -3.386695861816406 42.54505920410156 C 0.02906036376953125 15.14210510253906 18.45396041870117 5.8966064453125 40.27306365966797 5.8966064453125 Z" stroke="none" fill="#4460f1"/>
    </g>
    <g id="Path_150" data-name="Path 150" transform="translate(654.318 221.228)" fill="none">
      <path d="M40.273,5.9c21.819,0,41.785,22.894,41.785,44.713s-8.732,61.971-37.5,30.639S-6.8,69.948-3.387,42.545,18.454,5.9,40.273,5.9Z" stroke="none"/>
      <path d="M 40.27306365966797 6.8966064453125 C 28.65144729614258 6.8966064453125 19.18489074707031 9.538490295410156 12.13636016845703 14.74886322021484 C 8.251579284667969 17.62055969238281 5.072616577148438 21.31623077392578 2.687789916992188 25.73321533203125 C 0.1244888305664063 30.48073577880859 -1.585395812988281 36.17867279052734 -2.394378662109375 42.66874694824219 C -3.197425842285156 49.11122894287109 -2.5740966796875 53.02986145019531 -0.3732681274414063 55.37458801269531 C 1.725936889648438 57.61106109619141 5.35089111328125 58.56041717529297 9.940261840820313 59.76233291625977 C 18.97133255004883 62.12751770019531 31.33982086181641 65.36674499511719 45.29863357543945 80.57186126708984 C 52.11997604370117 88.00225830078125 58.16719055175781 91.76979064941406 63.27230453491211 91.76979064941406 C 64.81105041503906 91.76979064941406 66.28652954101563 91.41850280761719 67.65776062011719 90.7257080078125 C 68.96884918212891 90.06329345703125 70.22247314453125 89.07131958007813 71.38380432128906 87.77731323242188 C 73.55897521972656 85.35368347167969 75.44263458251953 81.86164855957031 76.98244476318359 77.39820861816406 C 78.34140777587891 73.45899963378906 79.392333984375 68.89944458007813 80.10601806640625 63.84617614746094 C 80.72879028320313 59.43671798706055 81.05796051025391 54.85948944091797 81.05796051025391 50.60935974121094 C 81.05796051025391 48.00443267822266 80.76261901855469 45.32166290283203 80.18014526367188 42.63555908203125 C 79.61296081542969 40.01995849609375 78.77073669433594 37.38661956787109 77.67683410644531 34.80867767333984 C 75.53243255615234 29.75507354736328 72.39693450927734 24.89202117919922 68.60932159423828 20.74523162841797 C 64.77494812011719 16.54724884033203 60.26158905029297 13.07637786865234 55.55718994140625 10.70784759521484 C 50.53416442871094 8.178886413574219 45.39183044433594 6.8966064453125 40.27306365966797 6.8966064453125 M 40.27306365966797 5.8966064453125 C 62.0921630859375 5.8966064453125 82.05796051025391 28.79026031494141 82.05796051025391 50.60935974121094 C 82.05796051025391 66.70201110839844 77.30601501464844 92.76978302001953 63.27229690551758 92.76978302001953 C 58.27850341796875 92.76978302001953 52.11113739013672 89.47132873535156 44.56197357177734 81.24813079833984 C 15.79790496826172 49.91586303710938 -6.802452087402344 69.94802856445313 -3.386695861816406 42.54505920410156 C 0.02906036376953125 15.14210510253906 18.45396041870117 5.8966064453125 40.27306365966797 5.8966064453125 Z" stroke="none" fill="#4460f1"/>
    </g>
    <g id="Path_296" data-name="Path 296" transform="translate(485.003 494.25)" fill="none">
      <path d="M40.273,5.9c21.819,0,41.785,22.894,41.785,44.713s-8.732,61.971-37.5,30.639S-6.8,69.948-3.387,42.545,18.454,5.9,40.273,5.9Z" stroke="none"/>
      <path d="M 40.27306365966797 6.8966064453125 C 28.65144729614258 6.8966064453125 19.18489074707031 9.538490295410156 12.13636016845703 14.74886322021484 C 8.251579284667969 17.62055969238281 5.072616577148438 21.31623077392578 2.687789916992188 25.73321533203125 C 0.1244888305664063 30.48073577880859 -1.585395812988281 36.17867279052734 -2.394378662109375 42.66874694824219 C -3.197425842285156 49.11122894287109 -2.5740966796875 53.02986145019531 -0.3732681274414063 55.37458801269531 C 1.725936889648438 57.61106109619141 5.35089111328125 58.56041717529297 9.940261840820313 59.76233291625977 C 18.97133255004883 62.12751770019531 31.33982086181641 65.36674499511719 45.29863357543945 80.57186126708984 C 52.11997604370117 88.00225830078125 58.16719055175781 91.76979064941406 63.27230453491211 91.76979064941406 C 64.81105041503906 91.76979064941406 66.28652954101563 91.41850280761719 67.65776062011719 90.7257080078125 C 68.96884918212891 90.06329345703125 70.22247314453125 89.07131958007813 71.38380432128906 87.77731323242188 C 73.55897521972656 85.35368347167969 75.44263458251953 81.86164855957031 76.98244476318359 77.39820861816406 C 78.34140777587891 73.45899963378906 79.392333984375 68.89944458007813 80.10601806640625 63.84617614746094 C 80.72879028320313 59.43671798706055 81.05796051025391 54.85948944091797 81.05796051025391 50.60935974121094 C 81.05796051025391 48.00443267822266 80.76261901855469 45.32166290283203 80.18014526367188 42.63555908203125 C 79.61296081542969 40.01995849609375 78.77073669433594 37.38661956787109 77.67683410644531 34.80867767333984 C 75.53243255615234 29.75507354736328 72.39693450927734 24.89202117919922 68.60932159423828 20.74523162841797 C 64.77494812011719 16.54724884033203 60.26158905029297 13.07637786865234 55.55718994140625 10.70784759521484 C 50.53416442871094 8.178886413574219 45.39183044433594 6.8966064453125 40.27306365966797 6.8966064453125 M 40.27306365966797 5.8966064453125 C 62.0921630859375 5.8966064453125 82.05796051025391 28.79026031494141 82.05796051025391 50.60935974121094 C 82.05796051025391 66.70201110839844 77.30601501464844 92.76978302001953 63.27229690551758 92.76978302001953 C 58.27850341796875 92.76978302001953 52.11113739013672 89.47132873535156 44.56197357177734 81.24813079833984 C 15.79790496826172 49.91586303710938 -6.802452087402344 69.94802856445313 -3.386695861816406 42.54505920410156 C 0.02906036376953125 15.14210510253906 18.45396041870117 5.8966064453125 40.27306365966797 5.8966064453125 Z" stroke="none" fill="#4460f1"/>
    </g>
    <g id="Path_134" data-name="Path 134" transform="translate(725.622 519.528)" fill="none">
      <path d="M53.973,5.9c28.612,0,54.795,30.022,54.795,58.634S97.317,145.8,59.6,104.709-7.759,89.89-3.28,53.955,25.361,5.9,53.973,5.9Z" stroke="none"/>
      <path d="M 53.97290420532227 6.896591186523438 C 38.66486740112305 6.896591186523438 26.18866729736328 10.38154602050781 16.890869140625 17.25462341308594 C 11.75948333740234 21.04782104492188 7.560867309570313 25.92858123779297 4.411628723144531 31.76134490966797 C 1.031852722167969 38.02112579345703 -1.22216796875 45.5299072265625 -2.287826538085938 54.07912445068359 C -2.849624633789063 58.586181640625 -2.875129699707031 62.14179992675781 -2.36578369140625 64.94914245605469 C -1.904312133789063 67.49265289306641 -0.9850616455078125 69.46943664550781 0.444488525390625 70.99246978759766 C 3.258651733398438 73.99063110351563 8.050506591796875 75.24559783935547 14.11721038818359 76.83443450927734 C 25.92270660400391 79.92621612548828 42.09088516235352 84.16056060791016 60.33381271362305 104.0323028564453 C 69.34036254882813 113.843017578125 77.34751892089844 118.8174514770508 84.13288879394531 118.8174514770508 C 86.19994354248047 118.8174514770508 88.18205261230469 118.3455429077148 90.02413940429688 117.4148559570313 C 91.77810668945313 116.5286865234375 93.4527587890625 115.2043304443359 95.00159454345703 113.4785614013672 C 97.88191986083984 110.2692337036133 100.3731002807617 105.6541442871094 102.4059753417969 99.76150512695313 C 104.1945190429688 94.57707214355469 105.5773391723633 88.57838439941406 106.5160293579102 81.93210601806641 C 107.3346862792969 76.1356201171875 107.7674102783203 70.11823272705078 107.7674102783203 64.53052520751953 C 107.7674102783203 61.09241485595703 107.3777389526367 57.55217742919922 106.6092300415039 54.00812530517578 C 105.8613433837891 50.55916595458984 104.7509231567383 47.08721923828125 103.3088302612305 43.68874359130859 C 100.4831771850586 37.02963256835938 96.35182952880859 30.62192535400391 91.3614501953125 25.1583251953125 C 88.85537719726563 22.41459655761719 86.13406372070313 19.90396118164063 83.27310180664063 17.69612121582031 C 80.35883331298828 15.44715881347656 77.29130554199219 13.50639343261719 74.15572357177734 11.92770385742188 C 70.93063354492188 10.30398559570313 67.61341857910156 9.053741455078125 64.29621124267578 8.21173095703125 C 60.85826873779297 7.339065551757813 57.38499450683594 6.896591186523438 53.97290420532227 6.896591186523438 M 53.97290420532227 5.896591186523438 C 82.58531951904297 5.896591186523438 108.7674102783203 35.91812896728516 108.7674102783203 64.53052520751953 C 108.7674102783203 85.63358306884766 102.5359649658203 119.8174514770508 84.13288879394531 119.8174514770508 C 77.58428955078125 119.8174514770508 69.49673461914063 115.4920349121094 59.59716033935547 104.7085800170898 C 21.87750244140625 63.62108612060547 -7.759384155273438 89.89021301269531 -3.2801513671875 53.95543670654297 C 1.199089050292969 18.02066040039063 25.36050415039063 5.896591186523438 53.97290420532227 5.896591186523438 Z" stroke="none" fill="#4460f1"/>
    </g>
    <g id="Path_149" data-name="Path 149" transform="translate(638.142 210.526)" fill="none">
      <path d="M53.973,5.9c28.612,0,54.795,30.022,54.795,58.634S97.317,145.8,59.6,104.709-7.759,89.89-3.28,53.955,25.361,5.9,53.973,5.9Z" stroke="none"/>
      <path d="M 53.97290420532227 6.896591186523438 C 38.66486740112305 6.896591186523438 26.18866729736328 10.38154602050781 16.890869140625 17.25462341308594 C 11.75948333740234 21.04782104492188 7.560867309570313 25.92858123779297 4.411628723144531 31.76134490966797 C 1.031852722167969 38.02112579345703 -1.22216796875 45.5299072265625 -2.287826538085938 54.07912445068359 C -2.849624633789063 58.586181640625 -2.875129699707031 62.14179992675781 -2.36578369140625 64.94914245605469 C -1.904312133789063 67.49265289306641 -0.9850616455078125 69.46943664550781 0.444488525390625 70.99246978759766 C 3.258651733398438 73.99063110351563 8.050506591796875 75.24559783935547 14.11721038818359 76.83443450927734 C 25.92270660400391 79.92621612548828 42.09088516235352 84.16056060791016 60.33381271362305 104.0323028564453 C 69.34036254882813 113.843017578125 77.34751892089844 118.8174514770508 84.13288879394531 118.8174514770508 C 86.19994354248047 118.8174514770508 88.18205261230469 118.3455429077148 90.02413940429688 117.4148559570313 C 91.77810668945313 116.5286865234375 93.4527587890625 115.2043304443359 95.00159454345703 113.4785614013672 C 97.88191986083984 110.2692337036133 100.3731002807617 105.6541442871094 102.4059753417969 99.76150512695313 C 104.1945190429688 94.57707214355469 105.5773391723633 88.57838439941406 106.5160293579102 81.93210601806641 C 107.3346862792969 76.1356201171875 107.7674102783203 70.11823272705078 107.7674102783203 64.53052520751953 C 107.7674102783203 61.09241485595703 107.3777389526367 57.55217742919922 106.6092300415039 54.00812530517578 C 105.8613433837891 50.55916595458984 104.7509231567383 47.08721923828125 103.3088302612305 43.68874359130859 C 100.4831771850586 37.02963256835938 96.35182952880859 30.62192535400391 91.3614501953125 25.1583251953125 C 88.85537719726563 22.41459655761719 86.13406372070313 19.90396118164063 83.27310180664063 17.69612121582031 C 80.35883331298828 15.44715881347656 77.29130554199219 13.50639343261719 74.15572357177734 11.92770385742188 C 70.93063354492188 10.30398559570313 67.61341857910156 9.053741455078125 64.29621124267578 8.21173095703125 C 60.85826873779297 7.339065551757813 57.38499450683594 6.896591186523438 53.97290420532227 6.896591186523438 M 53.97290420532227 5.896591186523438 C 82.58531951904297 5.896591186523438 108.7674102783203 35.91812896728516 108.7674102783203 64.53052520751953 C 108.7674102783203 85.63358306884766 102.5359649658203 119.8174514770508 84.13288879394531 119.8174514770508 C 77.58428955078125 119.8174514770508 69.49673461914063 115.4920349121094 59.59716033935547 104.7085800170898 C 21.87750244140625 63.62108612060547 -7.759384155273438 89.89021301269531 -3.2801513671875 53.95543670654297 C 1.199089050292969 18.02066040039063 25.36050415039063 5.896591186523438 53.97290420532227 5.896591186523438 Z" stroke="none" fill="#4460f1"/>
    </g>
    <g id="Path_297" data-name="Path 297" transform="translate(468.826 483.548)" fill="none">
      <path d="M53.973,5.9c28.612,0,54.795,30.022,54.795,58.634S97.317,145.8,59.6,104.709-7.759,89.89-3.28,53.955,25.361,5.9,53.973,5.9Z" stroke="none"/>
      <path d="M 53.97290420532227 6.896591186523438 C 38.66486740112305 6.896591186523438 26.18866729736328 10.38154602050781 16.890869140625 17.25462341308594 C 11.75948333740234 21.04782104492188 7.560867309570313 25.92858123779297 4.411628723144531 31.76134490966797 C 1.031852722167969 38.02112579345703 -1.22216796875 45.5299072265625 -2.287826538085938 54.07912445068359 C -2.849624633789063 58.586181640625 -2.875129699707031 62.14179992675781 -2.36578369140625 64.94914245605469 C -1.904312133789063 67.49265289306641 -0.9850616455078125 69.46943664550781 0.444488525390625 70.99246978759766 C 3.258651733398438 73.99063110351563 8.050506591796875 75.24559783935547 14.11721038818359 76.83443450927734 C 25.92270660400391 79.92621612548828 42.09088516235352 84.16056060791016 60.33381271362305 104.0323028564453 C 69.34036254882813 113.843017578125 77.34751892089844 118.8174514770508 84.13288879394531 118.8174514770508 C 86.19994354248047 118.8174514770508 88.18205261230469 118.3455429077148 90.02413940429688 117.4148559570313 C 91.77810668945313 116.5286865234375 93.4527587890625 115.2043304443359 95.00159454345703 113.4785614013672 C 97.88191986083984 110.2692337036133 100.3731002807617 105.6541442871094 102.4059753417969 99.76150512695313 C 104.1945190429688 94.57707214355469 105.5773391723633 88.57838439941406 106.5160293579102 81.93210601806641 C 107.3346862792969 76.1356201171875 107.7674102783203 70.11823272705078 107.7674102783203 64.53052520751953 C 107.7674102783203 61.09241485595703 107.3777389526367 57.55217742919922 106.6092300415039 54.00812530517578 C 105.8613433837891 50.55916595458984 104.7509231567383 47.08721923828125 103.3088302612305 43.68874359130859 C 100.4831771850586 37.02963256835938 96.35182952880859 30.62192535400391 91.3614501953125 25.1583251953125 C 88.85537719726563 22.41459655761719 86.13406372070313 19.90396118164063 83.27310180664063 17.69612121582031 C 80.35883331298828 15.44715881347656 77.29130554199219 13.50639343261719 74.15572357177734 11.92770385742188 C 70.93063354492188 10.30398559570313 67.61341857910156 9.053741455078125 64.29621124267578 8.21173095703125 C 60.85826873779297 7.339065551757813 57.38499450683594 6.896591186523438 53.97290420532227 6.896591186523438 M 53.97290420532227 5.896591186523438 C 82.58531951904297 5.896591186523438 108.7674102783203 35.91812896728516 108.7674102783203 64.53052520751953 C 108.7674102783203 85.63358306884766 102.5359649658203 119.8174514770508 84.13288879394531 119.8174514770508 C 77.58428955078125 119.8174514770508 69.49673461914063 115.4920349121094 59.59716033935547 104.7085800170898 C 21.87750244140625 63.62108612060547 -7.759384155273438 89.89021301269531 -3.2801513671875 53.95543670654297 C 1.199089050292969 18.02066040039063 25.36050415039063 5.896591186523438 53.97290420532227 5.896591186523438 Z" stroke="none" fill="#4460f1"/>
    </g>
    <g id="Path_135" data-name="Path 135" transform="translate(351.335 349.431)" fill="none">
      <path d="M61.863,13.6C105.574,2.735,102.3,38,101.768,58.08S84.559,89.463,60.4,89.463-15,68.559-16.9,24.231,18.153,24.463,61.863,13.6Z" stroke="none"/>
      <path d="M -6.173980712890625 5.165153503417969 C -9.039695739746094 5.165153503417969 -11.0751953125 5.896621704101563 -12.57982635498047 7.467136383056641 C -15.18315887451172 10.18447113037109 -16.27079772949219 15.65408706665039 -15.90489196777344 24.18852233886719 C -15.46782684326172 34.38286972045898 -12.33303070068359 43.93205261230469 -6.587562561035156 52.57077026367188 C -1.57122802734375 60.11320495605469 5.341789245605469 66.86528778076172 13.95947265625 72.63948822021484 C 21.3687744140625 77.60400390625 29.92585372924805 81.72354125976563 38.70565414428711 84.55268859863281 C 46.53188705444336 87.0745849609375 54.23710632324219 88.46345520019531 60.40192413330078 88.46345520019531 C 72.25424194335938 88.46345520019531 82.26475524902344 85.70890808105469 89.35125732421875 80.49758911132813 C 92.89900207519531 77.88861846923828 95.67058563232422 74.6917724609375 97.58901977539063 70.99580383300781 C 99.57209014892578 67.17530059814453 100.6418533325195 62.82077026367188 100.7685852050781 58.05318832397461 C 100.7938690185547 57.10223770141602 100.8247528076172 56.13352203369141 100.8574523925781 55.10793685913086 C 101.053108215332 48.97202301025391 101.2748565673828 42.01740264892578 100.3951873779297 35.43432235717773 C 99.38998413085938 27.91176986694336 97.13412475585938 22.43053817749023 93.4986572265625 18.67737197875977 C 91.61724090576172 16.73505401611328 89.32178497314453 15.23876953125 86.67607116699219 14.2301025390625 C 83.77875518798828 13.12550354003906 80.36195373535156 12.56547164916992 76.52058410644531 12.56553649902344 C 72.30420684814453 12.56562042236328 67.45398712158203 13.23980331420898 62.10469055175781 14.56937026977539 C 57.30387115478516 15.76261901855469 52.24180603027344 16.36763763427734 47.05910491943359 16.36763763427734 C 33.81253814697266 16.36763763427734 21.47445678710938 12.4627685546875 11.56063842773438 9.325138092041016 C 4.507652282714844 7.092952728271484 -1.583511352539063 5.165153503417969 -6.173980712890625 5.165153503417969 M -6.173973083496094 4.165145874023438 C 5.226081848144531 4.165145874023438 24.63267517089844 15.36763763427734 47.05910873413086 15.36763763427734 C 51.87241363525391 15.36763763427734 56.82113647460938 14.85216903686523 61.86347198486328 13.59890365600586 C 67.49274444580078 12.19975662231445 72.34355926513672 11.56561279296875 76.52056884765625 11.56553649902344 C 104.7777481079102 11.56500625610352 102.2333679199219 40.58202362060547 101.7682342529297 58.07975387573242 C 101.2343521118164 78.16401672363281 84.55879211425781 89.46345520019531 60.40192413330078 89.46345520019531 C 36.24505615234375 89.46345520019531 -15.00349426269531 68.55890655517578 -16.90397644042969 24.23135375976563 C -17.56375885009766 8.842243194580078 -13.53752899169922 4.165145874023438 -6.173973083496094 4.165145874023438 Z" stroke="none" fill="#4460f1"/>
    </g>
    <g id="Path_136" data-name="Path 136" transform="translate(328.183 336.906)" fill="none">
      <path d="M92.538,16.819c60.718-14.573,56.173,32.725,55.431,59.665s-23.905,42.1-57.461,42.1S-14.237,90.541-16.877,31.081,31.82,31.392,92.538,16.819Z" stroke="none"/>
      <path d="M -1.97186279296875 5.165153503417969 C -4.0255126953125 5.165153503417969 -5.763656616210938 5.423065185546875 -7.285614013671875 5.953636169433594 C -8.868408203125 6.505401611328125 -10.17942810058594 7.339790344238281 -11.29356384277344 8.504493713378906 C -13.04776000976563 10.33831787109375 -14.27435302734375 12.95211029052734 -15.04342651367188 16.49526977539063 C -15.87010192871094 20.30390167236328 -16.14299011230469 25.06056213378906 -15.87762451171875 31.03706359863281 C -15.2679443359375 44.76940536499023 -10.89471435546875 57.63308715820313 -2.879409790039063 69.27079010009766 C 0.7196197509765625 74.49636077880859 5.084365844726563 79.50736236572266 10.09362030029297 84.16461181640625 C 14.75291442871094 88.49652099609375 20.02557373046875 92.57595062255859 25.76512145996094 96.28958892822266 C 36.08773040771484 102.968635559082 48.00916290283203 108.5107421875 60.24057769775391 112.3167877197266 C 71.15223693847656 115.712158203125 81.90116882324219 117.5820617675781 90.50732421875 117.5820617675781 C 107.0606384277344 117.5820617675781 121.0503921508789 113.8608856201172 130.9642181396484 106.8207931518555 C 135.9386596679688 103.2882690429688 139.8249816894531 98.95944976806641 142.5152282714844 93.95456695556641 C 145.2930450439453 88.78672027587891 146.7914581298828 82.89976501464844 146.9687957763672 76.45726776123047 C 147.0038909912109 75.18251800537109 147.0467834472656 73.883544921875 147.0921936035156 72.50827026367188 C 147.361572265625 64.35025024414063 147.6669006347656 55.10372161865234 146.4820709228516 46.32163238525391 C 145.1226501464844 36.24531555175781 142.0529632568359 28.85742950439453 137.0975952148438 23.73583984375 C 134.4395294189453 20.98858642578125 131.1782836914063 18.87192535400391 127.4044189453125 17.44467926025391 C 123.276123046875 15.88336181640625 118.3952789306641 15.09176635742188 112.8974609375 15.09185791015625 C 107.00634765625 15.09194946289063 100.2348251342773 16.00031280517578 92.77093505859375 17.791748046875 C 86.13536834716797 19.38436126708984 79.13798522949219 20.19187927246094 71.97314453125 20.19187927246094 C 53.63777923583984 20.19187927246094 36.53341674804688 14.96443176269531 22.78980255126953 10.76410675048828 C 12.95954895019531 7.759788513183594 4.469818115234375 5.165153503417969 -1.97186279296875 5.165153503417969 M -1.971847534179688 4.165153503417969 C 13.86372375488281 4.165153503417969 40.821044921875 19.19188690185547 71.97314453125 19.19188690185547 C 78.65920257568359 19.19188690185547 85.53334808349609 18.50045776367188 92.53755187988281 16.81935882568359 C 100.3570556640625 14.94258117675781 107.0952377319336 14.09195709228516 112.8974304199219 14.09185028076172 C 152.1488952636719 14.09113311767578 148.6145477294922 53.0137825012207 147.9684143066406 76.48479461669922 C 147.2268218994141 103.4253158569336 124.063117980957 118.5820617675781 90.50732421875 118.5820617675781 C 56.95153045654297 118.5820617675781 -14.23674011230469 90.54124450683594 -16.87664794921875 31.08142852783203 C -17.79315185546875 10.43888092041016 -12.20040893554688 4.165153503417969 -1.971847534179688 4.165153503417969 Z" stroke="none" fill="#4460f1"/>
    </g>
    <path id="Path_137" data-name="Path 137" d="M372.943,1274.628s16.194,30.525,63.59,24.827,61.671-6.489,74.479,38.312-31.58,82.512-9.028,120.409" transform="translate(-18.182 -971.5)" fill="none" stroke="#4460f1" stroke-width="1"/>
    <path id="Path_138" data-name="Path 138" d="M818.743,1605.333s-9.214-27.261-9.553-39.279,1.7-51.464,15.061-76.954,27.947-21.137,38.5-21.137,13.207-12.323,13.546-27.388,7.5-62.856,7.5-62.856" transform="translate(-146.655 -1001.863)" fill="none" stroke="#4460f1" stroke-width="1"/>
    <path id="Path_139" data-name="Path 139" d="M858.7,1618.131s7.449-15.929,5.409-28.082-15.459-23.685-14.96-44.67,16.956-39.271,16.956-39.271,19.235-6.641,32.256,0,27.708,32.731,35.824,25.482,6.92-33.295,7.181-42.54.716-25.879,4.9-38.759,11.849-12.76,11.849-12.76" transform="translate(-158.428 -1019.478)" fill="none" stroke="#4460f1" stroke-width="1"/>
    <path id="Path_140" data-name="Path 140" d="M929.071,1395.378c-9.547,15.968-15.589,38.7-15.589,43.66s1.9,17.1,1.207,21.573-1.9,9.4,4.263,14.2,22.472,14.048,25.194,13.021,3.056-3.955,2.722-6.344-6.01-16.771-5.136-20.88,6.677-23.114,9.939-28.071,10.273-12.636,14.382-16.771,10.119-8.039,6.344-19-11.994-22.626-20.726-21.6S938.619,1379.41,929.071,1395.378Z" transform="translate(-177.38 -1001.092)" fill="none" stroke="#4460f1" stroke-width="1"/>
    <path id="Path_141" data-name="Path 141" d="M923.123,1394.411c-7.9,13.09-9.641,32.892-9.641,37.1s1.175,14.536.746,18.334-1.175,7.988,2.637,12.07,7.465,9.791,11.781,11.209,4.829-3.44,4.623-5.47-2.595-11.917-2.055-15.409,7.229-22.317,9.246-26.53,9.452-14.464,11.994-17.978,6.832-10.453,2.722-20.032S931.023,1381.322,923.123,1394.411Z" transform="translate(-170.535 -995.043)" fill="none" stroke="#4460f1" stroke-width="1"/>
    <path id="Path_142" data-name="Path 142" d="M920.725,1388.838c-4.436,10.2-7.243,24.711-7.243,27.876s.883,10.921.561,13.774,1,21.212,6.682,20.365.107-5.516,1.577-10.607,2.055-4.982,1.541-13.535,4.255-7.212,7.382-14.146,3.216-10.951,5.125-13.591,7.738-10.8,5.984-17.8S925.161,1378.643,920.725,1388.838Z" transform="translate(-165.912 -981.832)" fill="none" stroke="#4460f1" stroke-width="1"/>
    <path id="Path_145" data-name="Path 145" d="M32.242,34.7C14.011,61.232,1.458,98.365,1.059,106.349s2,27.386.407,34.643-4.129,15.3,6.425,22.511,38.759,20.708,43.674,18.821,5.743-6.631,5.343-10.449-9.319-26.5-7.438-33.191,13.712-37.8,19.9-46.06S88.622,71.4,96.248,64.385s18.608-13.811,12.789-31.151S89.567-2.185,73.985.215,50.474,8.165,32.242,34.7Z" transform="translate(578.519 330.609) rotate(-164)" fill="none" stroke="#4460f1" stroke-width="1"/>
    <path id="Path_144" data-name="Path 144" d="M20.975,23.536C6.675,46.8,1.932,80.784,1.535,87.969s.575,24.654-.492,31.183-2.7,13.765,3.225,20.275,6.922,8.246,13.082,3.7,10.339-15.875,11.561-21.9S42.969,82.3,46.7,74.88s17-25.793,21.53-32.088S80.515,24.151,74.621,8.3,35.274.272,20.975,23.536Z" transform="translate(569.958 311.025) rotate(-164)" fill="none" stroke="#4460f1" stroke-width="1"/>
    <path id="Path_143" data-name="Path 143" d="M10.957,19.2C4.247,36.918,0,62.14,0,67.638S1.336,86.613.848,91.571s1.506,36.856,10.109,35.384.161-9.583,2.386-18.429,3.108-8.657,2.331-23.516S22.112,72.478,26.842,60.43,31.707,41.4,34.6,36.816,46.3,18.058,43.648,5.892,17.668,1.489,10.957,19.2Z" transform="matrix(-0.875, -0.485, 0.485, -0.875, 544.432, 297.542)" fill="none" stroke="#4460f1" stroke-width="1"/>
    <path id="Path_146" data-name="Path 146" d="M30.859,21.326C15.571,36.66,4,57.361,3.26,61.677s0,14.608-1.6,18.6-3.976,8.469,3.629,11.727,28.243,8.863,32.073,7.56,4.72-3.9,4.628-5.931-5.6-13.7-3.807-17.41S50.662,55.1,55.81,50.295,71.578,37.752,77.747,33.536s14.871-8.516,11.416-17.5S76.358-1.865,64.411.339,46.147,5.991,30.859,21.326Z" transform="translate(406.248 162.872) rotate(16)" fill="none" stroke="#4460f1" stroke-width="1"/>
    <path id="Path_147" data-name="Path 147" d="M25.026,14.908C11.007,27.575,4.71,44.8,3.911,48.394S2.87,60.573,1.523,63.9s-3.231,7.039,1.561,9.8,9.043,6.938,15.077,7.329,7.7-3.851,7.788-5.544-1.529-9.676-.078-12.758S40.66,42.308,44.4,38.332,60.951,24.2,65.329,20.718,77.287,10.5,73.1,3.111,39.045,2.242,25.026,14.908Z" transform="translate(411.349 174.911) rotate(16)" fill="none" stroke="#4460f1" stroke-width="1"/>
    <path id="Path_148" data-name="Path 148" d="M7.243,11.052C2.807,21.248,0,35.764,0,38.928S.883,49.849.561,52.7s1,21.212,6.682,20.365S7.349,67.552,8.82,62.46s2.055-4.982,1.541-13.535,4.255-7.212,7.382-14.146,3.216-10.951,5.125-13.591,7.738-10.8,5.984-17.8S11.679.857,7.243,11.052Z" transform="matrix(0.788, 0.616, -0.616, 0.788, 441.873, 185.192)" fill="none" stroke="#4460f1" stroke-width="1"/>
  </g>
</svg>
