<svg xmlns="http://www.w3.org/2000/svg" width="20.194" height="20.194" viewBox="0 0 20.194 20.194">
  <path fill="rgba(0,0,0,.2)" id="Icon_ionic-ios-close-circle" data-name="Icon ionic-ios-close-circle" d="M13.472,3.375a10.1,10.1,0,1,0,10.1,10.1A10.1,10.1,0,0,0,13.472,3.375ZM16.03,17.128l-2.558-2.558-2.558,2.558a.776.776,0,1,1-1.1-1.1l2.558-2.558L9.817,10.914a.776.776,0,0,1,1.1-1.1l2.558,2.558L16.03,9.817a.776.776,0,1,1,1.1,1.1l-2.558,2.558,2.558,2.558a.779.779,0,0,1,0,1.1A.771.771,0,0,1,16.03,17.128Z" transform="translate(-3.375 -3.375)"/>
</svg>
