<svg xmlns="http://www.w3.org/2000/svg" width="19.567" height="16.338" viewBox="0 0 19.567 16.338">
  <g id="Icon_feather-users" data-name="Icon feather-users" transform="translate(-0.75 -3.694)">
    <path id="Path_212" data-name="Path 212" d="M14.639,27.427V25.785A3.285,3.285,0,0,0,11.355,22.5H4.785A3.285,3.285,0,0,0,1.5,25.785v1.642" transform="translate(0 -8.145)" fill="none" stroke="#505b67" stroke-linecap="round" stroke-linejoin="round" stroke-width="1.5"/>
    <path id="Path_213" data-name="Path 213" d="M14.07,7.785A3.285,3.285,0,1,1,10.785,4.5,3.285,3.285,0,0,1,14.07,7.785Z" transform="translate(-2.715)" fill="none" stroke="#505b67" stroke-linecap="round" stroke-linejoin="round" stroke-width="1.5"/>
    <path id="Path_214" data-name="Path 214" d="M32.464,27.516V25.873A3.285,3.285,0,0,0,30,22.7" transform="translate(-12.897 -8.234)" fill="none" stroke="#505b67" stroke-linecap="round" stroke-linejoin="round" stroke-width="1.5"/>
    <path id="Path_215" data-name="Path 215" d="M24,4.7a3.285,3.285,0,0,1,0,6.364" transform="translate(-10.182 -0.088)" fill="none" stroke="#505b67" stroke-linecap="round" stroke-linejoin="round" stroke-width="1.5"/>
  </g>
</svg>
