<svg xmlns="http://www.w3.org/2000/svg" xmlns:xlink="http://www.w3.org/1999/xlink" width="136.26" height="137.751" viewBox="0 0 136.26 137.751">
  <defs>
    <linearGradient id="linear-gradient" x1="0.5" x2="0.5" y2="1" gradientUnits="objectBoundingBox">
      <stop offset="0" stop-color="#1878f4"/>
      <stop offset="0.657" stop-color="#1878f4"/>
      <stop offset="0.852" stop-color="#1169d9"/>
      <stop offset="1" stop-color="#0655bc" stop-opacity="0.831"/>
    </linearGradient>
    <filter id="Path_76" x="35.086" y="0" width="63.087" height="113.648" filterUnits="userSpaceOnUse">
      <feOffset dy="13" input="SourceAlpha"/>
      <feGaussianBlur stdDeviation="5" result="blur"/>
      <feFlood flood-color="#1878f4" flood-opacity="0.49"/>
      <feComposite operator="in" in2="blur"/>
      <feComposite in="SourceGraphic"/>
    </filter>
    <linearGradient id="linear-gradient-2" x1="0.5" x2="0.5" y2="1" gradientUnits="objectBoundingBox">
      <stop offset="0" stop-color="#94f9ea"/>
      <stop offset="0.572" stop-color="#68dcca"/>
      <stop offset="0.818" stop-color="#68dcca"/>
      <stop offset="1" stop-color="#39b8a4"/>
    </linearGradient>
    <filter id="Path_78" x="67.174" y="45.074" width="69.086" height="92.677" filterUnits="userSpaceOnUse">
      <feOffset dy="15" input="SourceAlpha"/>
      <feGaussianBlur stdDeviation="6" result="blur-2"/>
      <feFlood flood-color="#68dcca" flood-opacity="0.651"/>
      <feComposite operator="in" in2="blur-2"/>
      <feComposite in="SourceGraphic"/>
    </filter>
    <linearGradient id="linear-gradient-3" x1="0.5" x2="0.5" y2="1" gradientUnits="objectBoundingBox">
      <stop offset="0" stop-color="#4eaef8"/>
      <stop offset="0.648" stop-color="#5eb7fc"/>
      <stop offset="0.857" stop-color="#4aadf9"/>
      <stop offset="1" stop-color="#1e8fe7"/>
    </linearGradient>
    <filter id="Path_79" x="0" y="40.527" width="63.086" height="92.224" filterUnits="userSpaceOnUse">
      <feOffset dy="13" input="SourceAlpha"/>
      <feGaussianBlur stdDeviation="5" result="blur-3"/>
      <feFlood flood-color="#4eaef8" flood-opacity="0.51"/>
      <feComposite operator="in" in2="blur-3"/>
      <feComposite in="SourceGraphic"/>
    </filter>
  </defs>
  <g id="stats_bar" data-name="stats bar" transform="translate(15 2)">
    <g id="Group_72" data-name="Group 72" transform="translate(35.086)">
      <g transform="matrix(1, 0, 0, 1, -50.09, -2)" filter="url(#Path_76)">
        <path id="Path_76-2" data-name="Path 76" d="M539.734,189.329c0-5.275-7.407-9.55-16.543-9.55s-16.544,4.276-16.544,9.55v64.546c0,5.275,7.407,9.551,16.544,9.551s16.543-4.277,16.543-9.551V189.329Z" transform="translate(-456.56 -177.78)" fill="url(#linear-gradient)"/>
      </g>
      <path id="Path_77" data-name="Path 77" d="M523.191,198.881c9.136,0,16.543-4.276,16.543-9.55s-7.407-9.551-16.543-9.551-16.544,4.276-16.544,9.55S514.054,198.881,523.191,198.881Z" transform="translate(-506.647 -179.779)" fill="#378cf8"/>
    </g>
    <g id="Group_73" data-name="Group 73" transform="translate(70.173 46.074)">
      <g transform="matrix(1, 0, 0, 1, -85.17, -48.07)" filter="url(#Path_78)">
        <path id="Path_78-2" data-name="Path 78" d="M565.6,225.344c0-5.275-7.406-9.552-16.543-9.552s-16.543,4.277-16.543,9.552v37.574c0,5.275,7.406,9.55,16.543,9.551s16.543-4.277,16.543-9.551V225.344Z" transform="translate(-447.34 -167.72)" fill="url(#linear-gradient-2)"/>
      </g>
      <ellipse id="Ellipse_43" data-name="Ellipse 43" cx="16.543" cy="9.551" rx="16.543" ry="9.551" transform="translate(0 0)" fill="#68dcca"/>
    </g>
    <g id="Group_74" data-name="Group 74" transform="translate(0 40.527)">
      <g transform="matrix(1, 0, 0, 1, -15, -42.53)" filter="url(#Path_79)">
        <path id="Path_79-2" data-name="Path 79" d="M513.871,221.007c0-5.275-7.406-9.55-16.543-9.55s-16.543,4.276-16.543,9.55V264.13c0,5.275,7.407,9.55,16.543,9.551s16.543-4.277,16.543-9.551V221.007Z" transform="translate(-465.79 -168.93)" fill="url(#linear-gradient-3)"/>
      </g>
      <path id="Path_80" data-name="Path 80" d="M497.328,230.559c9.137,0,16.543-4.276,16.543-9.551s-7.406-9.55-16.543-9.55-16.543,4.276-16.543,9.55S488.192,230.559,497.328,230.559Z" transform="translate(-480.785 -211.457)" fill="#7dc5fd"/>
    </g>
  </g>
</svg>
