<svg xmlns="http://www.w3.org/2000/svg" width="16.209" height="20.711" viewBox="0 0 16.209 20.711">
  <g id="money-bag_2" data-name="money-bag 2" transform="translate(-30.25 -20.875)">
    <path id="Path_315" data-name="Path 315" d="M46.459,56.844c0,4.476-3.628,5.916-8.1,5.916s-8.1-1.441-8.1-5.916a8.1,8.1,0,1,1,16.209,0Z" transform="translate(0 -21.174)" fill="#4460f1"/>
    <circle id="Ellipse_84" data-name="Ellipse 84" cx="4.202" cy="4.202" r="4.202" transform="translate(34.152 30.374)" fill="#b3c0ff"/>
    <path id="Path_316" data-name="Path 316" d="M59.381,66.834V65.4a.752.752,0,0,1,.332.624.42.42,0,1,0,.84,0,1.594,1.594,0,0,0-1.172-1.535v-.266a.42.42,0,0,0-.84,0v.266a1.591,1.591,0,0,0,0,3.069v1.434a.753.753,0,0,1-.332-.624.42.42,0,0,0-.84,0A1.594,1.594,0,0,0,58.54,69.9v.266a.42.42,0,0,0,.84,0V69.9a1.591,1.591,0,0,0,0-3.069Zm-1.172-.81a.752.752,0,0,1,.332-.624v1.247A.752.752,0,0,1,58.208,66.023Zm1.172,2.968V67.745a.752.752,0,0,1,0,1.247Z" transform="translate(-20.606 -32.62)" fill="#4460f1"/>
    <path id="Path_317" data-name="Path 317" d="M56.463,41.327H52.1a.89.89,0,1,0,0,1.78h4.362a.89.89,0,0,0,0-1.78Z" transform="translate(-15.928 -15.541)" fill="#b3c0ff"/>
    <path id="Path_318" data-name="Path 318" d="M55.533,22.126a1.251,1.251,0,1,0-2.5,0h-1.82l1.37,3.661h3.4l1.37-3.661Z" transform="translate(-15.928 0)" fill="#4460f1"/>
    <path id="Path_319" data-name="Path 319" d="M58.172,26.894a.42.42,0,0,1-.389-.26l-.71-1.721a.42.42,0,1,1,.777-.321l.71,1.721a.42.42,0,0,1-.389.581Z" transform="translate(-20.358 -2.628)" fill="#b3c0ff"/>
  </g>
</svg>
