<svg xmlns="http://www.w3.org/2000/svg" width="743.691" height="730.164" viewBox="0 0 743.691 730.164">
    <style>path,ellipse,circle{stroke:rgba(0,0,0,.02);}</style>
  <g id="Group_83" data-name="Group 83" transform="translate(-311.209 -124.043)">
    <path id="Path_125" data-name="Path 125" d="M768.6,1403.868c-12.008-16.24-36.71-106.692-109.811-99.734s-62.383,71.981-58.145,85.337,17.036,27.193,4.239,44.788-39.627,24.4-31.992,49.027,49.767,14.056,85.9,38.589,45.334,44.893,58.624,59.545,44.868,22.394,62.943,4.8,8.2-48,25.033-85.337,34.519-52.635,42.309-64.03.667-23.9-6.771-28.14-28.25,13.687-39.425,13.324S780.6,1420.107,768.6,1403.868Z" transform="translate(0 -897)" fill="none" stroke="#000" stroke-width="1"/>
    <g id="Path_126" data-name="Path 126" transform="translate(628 473)" fill="none">
      <path d="M79.505-4.68c27.78,54.234,34.074,59.3,68.148,79.79s-33.743,83.339-77.281,76.382S0,111.764,0,72,51.726-58.914,79.505-4.68Z" stroke="none"/>
      <path d="M 58.60704803466797 -20.46041107177734 C 55.49649810791016 -20.46041107177734 52.18930053710938 -19.57479858398438 48.77726745605469 -17.82818603515625 C 45.51612854003906 -16.15879821777344 42.13252258300781 -13.69146728515625 38.72041320800781 -10.49474334716797 C 32.35769653320313 -4.533660888671875 25.89265441894531 3.979507446289063 20.02424621582031 14.12439727783203 C 14.46807861328125 23.72956085205078 9.723129272460938 34.27098083496094 6.302383422851563 44.60906219482422 C 2.833526611328125 55.09259033203125 1 64.56422424316406 1 72.00000762939453 C 1 81.73103332519531 2.619155883789063 91.10972595214844 5.812515258789063 99.87561798095703 C 8.974884033203125 108.5563659667969 13.61863708496094 116.4691162109375 19.61480712890625 123.3941497802734 C 25.69499206542969 130.4161682128906 33.0528564453125 136.2886657714844 41.48396301269531 140.8485107421875 C 50.21646118164063 145.5713348388672 59.98880004882813 148.8199768066406 70.52954864501953 150.5042266845703 C 72.69832611083984 150.8507537841797 74.99088287353516 151.0264739990234 77.34349822998047 151.0264739990234 C 81.13077545166016 151.0264739990234 85.16588592529297 150.5736694335938 89.33671569824219 149.6805877685547 C 93.33393859863281 148.8247375488281 97.49018859863281 147.5577545166016 101.6900253295898 145.9149169921875 C 109.6786041259766 142.7900695800781 117.8887710571289 138.2651214599609 125.4329071044922 132.829345703125 C 132.7918548583984 127.5270080566406 139.3932495117188 121.4565048217773 144.5234375 115.2741470336914 C 149.785888671875 108.9324264526367 153.4007110595703 102.5779800415039 154.9771423339844 96.89784240722656 C 156.1968078613281 92.50322723388672 156.2144165039063 88.53278350830078 155.0295257568359 85.09680938720703 C 153.7637481689453 81.42636871337891 151.1085815429688 78.35447692871094 147.1377716064453 75.96647644042969 C 113.1170501708984 55.5067024230957 106.6742172241211 50.55508804321289 78.61547088623047 -4.224159240722656 C 73.09705352783203 -14.99774169921875 66.36524200439453 -20.46041107177734 58.60704803466797 -20.46041107177734 M 58.6070556640625 -21.46041870117188 C 66.19272613525391 -21.46041870117188 73.42192077636719 -16.55702972412109 79.5054931640625 -4.680046081542969 C 107.2851028442383 49.55419921875 113.5792694091797 54.61778259277344 147.6531372070313 75.10950469970703 C 179.9530029296875 94.53433990478516 120.6876754760742 152.0264739990234 77.34349060058594 152.0264739990234 C 74.96292877197266 152.0264739990234 72.63853454589844 151.8538970947266 70.37177276611328 151.49169921875 C 26.83294677734375 144.5348968505859 0 111.7644805908203 0 72.00000762939453 C 0 40.94369888305664 31.55404663085938 -21.46041870117188 58.6070556640625 -21.46041870117188 Z" stroke="none"/>
    </g>
    <g id="Path_127" data-name="Path 127" transform="translate(642.813 500.476)" fill="none">
      <path d="M60.6-8.7c21.173,41.232,25.97,45.081,51.94,60.66s-25.718,63.359-58.9,58.07S0,79.824,0,49.593,39.424-49.935,60.6-8.7Z" stroke="none"/>
      <path d="M 44.66880798339844 -20.46043395996094 C 42.33572387695313 -20.46043395996094 39.8511962890625 -19.79584503173828 37.28426361083984 -18.48513031005859 C 34.81845855712891 -17.22605895996094 32.25778961181641 -15.36305999755859 29.67339324951172 -12.94792938232422 C 24.84080505371094 -8.431777954101563 19.92841339111328 -1.978584289550781 15.46730804443359 5.714069366455078 C 11.24065399169922 13.00241470336914 7.631179809570313 21.00102615356445 5.029083251953125 28.84519958496094 C 2.39324951171875 36.79113388061523 1 43.9656982421875 1 49.59324264526367 C 1 56.96293640136719 2.229171752929688 64.06528472900391 4.653350830078125 70.70298004150391 C 7.053497314453125 77.27491760253906 10.57798004150391 83.26539611816406 15.12887573242188 88.50798034667969 C 19.74411010742188 93.82469940185547 25.32961273193359 98.27128601074219 31.730224609375 101.7242202758789 C 38.36241912841797 105.3021087646484 45.78539276123047 107.7633514404297 53.79296112060547 109.0395889282227 C 55.43378448486328 109.3011169433594 57.16860961914063 109.4337005615234 58.94924163818359 109.4337005615234 C 64.62685394287109 109.4337005615234 70.84432983398438 108.1304626464844 77.428955078125 105.5601806640625 C 83.50248718261719 103.1893920898438 89.74452209472656 99.75624084472656 95.48027038574219 95.63187408447266 C 101.0748138427734 91.60902404785156 106.0912170410156 87.00506591796875 109.987174987793 82.31770324707031 C 113.9753494262695 77.51937103271484 116.710807800293 72.71750640869141 117.8978271484375 68.43119812011719 C 118.8081588745117 65.14411163330078 118.8193969726563 62.17906951904297 117.9312896728516 59.61848068237305 C 116.9840698242188 56.88743591308594 114.9962463378906 54.59835052490234 112.0230255126953 52.81478500366211 C 86.04324340820313 37.23015594482422 81.12350463867188 33.45900344848633 59.70748138427734 -8.24627685546875 C 55.54563140869141 -16.35099792480469 50.48589324951172 -20.46043395996094 44.66880798339844 -20.46043395996094 M 44.66880035400391 -21.46042633056641 C 50.45040130615234 -21.46042633056641 55.96031188964844 -17.73260498046875 60.5970458984375 -8.703086853027344 C 81.76995849609375 32.52874374389648 86.56722259521484 36.37834930419922 112.5374374389648 51.95724105834961 C 137.1555633544922 66.72506713867188 91.98506164550781 110.4337005615234 58.94924926757813 110.4337005615234 C 57.13484191894531 110.4337005615234 55.36323547363281 110.302490234375 53.63556671142578 110.0271301269531 C 20.45137023925781 104.7382202148438 0 79.82437133789063 0 49.59324264526367 C 0 25.98257064819336 24.04969787597656 -21.46042633056641 44.66880035400391 -21.46042633056641 Z" stroke="none"/>
    </g>
    <g id="Path_128" data-name="Path 128" transform="translate(663.304 539.944)" fill="none">
      <path d="M30.046,44.574C17.972,21.593,20.213,19.289,5.4,10.606c-10.4-6.1-10.831-25.56,3.724-33.043,5.787-2.977,4.116,10.837,22.234,5.8s43.88,25.2,43.124,36.208S42.12,67.554,30.046,44.574Z" stroke="none"/>
      <path d="M 40.82574462890625 50.95974349975586 C 43.95531845092773 50.95974349975586 47.52919387817383 49.70980453491211 51.4481201171875 47.24464416503906 C 54.91077041625977 45.06649398803711 58.56640625 41.96016693115234 62.01980590820313 38.26150512695313 C 65.14199066162109 34.91759490966797 68.01790618896484 31.16294288635254 70.1177978515625 27.68920516967773 C 72.16095733642578 24.30929374694824 73.35814666748047 21.40044403076172 73.48880767822266 19.49847984313965 C 73.63804626464844 17.32610511779785 72.58066558837891 14.08496856689453 70.51144409179688 10.37211799621582 C 68.41980743408203 6.61905574798584 65.35096740722656 2.49901819229126 61.87024307250977 -1.229031920433044 C 57.84230804443359 -5.543169498443604 53.43013000488281 -9.194169044494629 49.11069488525391 -11.7873067855835 C 46.76610565185547 -13.19486904144287 44.45934295654297 -14.28350734710693 42.25448226928711 -15.02300643920898 C 39.92109298706055 -15.8055944442749 37.68334579467773 -16.20240592956543 35.60337066650391 -16.20240592956543 C 34.21952056884766 -16.20240592956543 32.88272094726563 -16.02570724487305 31.63008117675781 -15.67720699310303 C 28.87675666809082 -14.91120719909668 26.37289428710938 -14.52281951904297 24.18804359436035 -14.52281951904297 C 17.89776992797852 -14.52281951904297 15.19680690765381 -17.61259460449219 13.22465705871582 -19.86864471435547 C 12.11163139343262 -21.14188194274902 11.4434814453125 -21.86225700378418 10.65451908111572 -21.86225700378418 C 10.35038185119629 -21.86225700378418 9.990644454956055 -21.75653266906738 9.585119247436523 -21.54792022705078 C 6.166169166564941 -19.79006958007813 3.480344295501709 -17.29515647888184 1.602269291877747 -14.13245677947998 C -0.08831825852394104 -11.28550720214844 -1.031155705451965 -8.003056526184082 -1.124330759048462 -4.639944553375244 C -1.207405805587769 -1.640919327735901 -0.6116057634353638 1.277605652809143 0.5986942648887634 3.800105571746826 C 1.83454418182373 6.375893115997314 3.670894145965576 8.431056022644043 5.909231662750244 9.743417739868164 C 17.44074440002441 16.50449371337891 18.89645767211914 19.5395565032959 24.31270599365234 30.83205604553223 C 25.9788818359375 34.3059196472168 28.05249404907227 38.62926864624023 30.93121910095215 44.10850524902344 C 32.18124389648438 46.48774337768555 33.69799423217773 48.26977920532227 35.43935775756836 49.40509414672852 C 37.02164459228516 50.43667984008789 38.83388137817383 50.95974349975586 40.82574462890625 50.95974349975586 M 40.82574462890625 51.95974731445313 C 36.61012649536133 51.95974731445313 32.81454849243164 49.84321975708008 30.04595756530762 44.57360458374023 C 17.97234344482422 21.59320640563965 20.21268081665039 19.28891754150391 5.403444290161133 10.60608100891113 C -4.992580890655518 4.510767936706543 -5.427418231964111 -14.95370674133301 9.127869606018066 -22.43725776672363 C 9.700748443603516 -22.73195648193359 10.20137310028076 -22.86225128173828 10.65451622009277 -22.86225128173828 C 14.06007480621338 -22.86225128173828 14.83092403411865 -15.52282047271729 24.18804550170898 -15.52282047271729 C 26.16232872009277 -15.52282047271729 28.51787185668945 -15.84934520721436 31.36205673217773 -16.6406192779541 C 32.73659896850586 -17.02302742004395 34.15574264526367 -17.20240211486816 35.60336685180664 -17.20240211486816 C 53.2369270324707 -17.20240211486816 75.18513488769531 9.396815299987793 74.48645782470703 19.56701850891113 C 73.90377807617188 28.04856872558594 54.99412536621094 51.95974731445313 40.82574462890625 51.95974731445313 Z" stroke="none"/>
    </g>
    <g id="Path_129" data-name="Path 129" transform="translate(682.165 554.406)" fill="none">
      <path d="M15.887,14.9C9.126,2.032,10.381.742,2.088-4.121c-5.822-3.413-6.065-14.313,2.086-18.5,3.24-1.667,2.305,6.069,12.451,3.246S41.2-5.265,40.773.9,22.648,27.769,15.887,14.9Z" stroke="none"/>
      <path d="M 21.92351531982422 18.03658676147461 C 23.59181594848633 18.03658676147461 25.51429557800293 17.359375 27.63754653930664 16.02376556396484 C 29.54492568969727 14.82393550872803 31.56181526184082 13.10941600799561 33.47014617919922 11.0655460357666 C 37.39762496948242 6.859146118164063 39.64995574951172 2.651835918426514 39.77519607543945 0.8287559151649475 C 39.85299682617188 -0.3037040531635284 39.2802848815918 -2.031893968582153 38.16256713867188 -4.037444114685059 C 37.00813674926758 -6.108863830566406 35.31193542480469 -8.38542366027832 33.38640594482422 -10.44776439666748 C 31.15842628479004 -12.8340539932251 28.7205867767334 -14.8519344329834 26.33644676208496 -16.28324317932129 C 23.67313575744629 -17.88214492797852 21.20448684692383 -18.6928539276123 18.99907684326172 -18.6928539276123 C 18.2640266418457 -18.6928539276123 17.55512619018555 -18.59932327270508 16.89206695556641 -18.41485404968262 C 15.31185626983643 -17.97522354125977 13.87005615234375 -17.7523136138916 12.60672569274902 -17.7523136138916 C 8.884506225585938 -17.7523136138916 7.23059606552124 -19.6443042755127 6.136166095733643 -20.89627456665039 C 5.701926231384277 -21.39303398132324 5.291756153106689 -21.86224365234375 5.028225898742676 -21.86224365234375 C 4.959735870361328 -21.86224365234375 4.835196018218994 -21.84017372131348 4.63058614730835 -21.73491477966309 C 2.790705919265747 -20.78895378112793 1.346306085586548 -19.44792366027832 0.3374860286712646 -17.74907493591309 C -0.5710339546203613 -16.21912384033203 -1.077733993530273 -14.45448398590088 -1.127843976020813 -12.64593410491943 C -1.172433972358704 -11.03620433807373 -0.8537139892578125 -9.471923828125 -0.2061239629983902 -8.122203826904297 C 0.4478760361671448 -6.759114265441895 1.415976047515869 -5.673704147338867 2.593516111373901 -4.983304023742676 C 9.166966438293457 -1.12921404838562 10.07258605957031 0.7589459419250488 13.07329559326172 7.015215873718262 C 14.00477600097656 8.95728588104248 15.16402626037598 11.37424564361572 16.77231597900391 14.43539619445801 C 18.04544639587402 16.8586254119873 19.73041534423828 18.03658676147461 21.92351531982422 18.03658676147461 M 21.92351531982422 19.03658485412598 C 19.5628547668457 19.03658485412598 17.43741035461426 17.85137367248535 15.88705635070801 14.9004955291748 C 9.126066207885742 2.031915903091431 10.38060569763184 0.7415659427642822 2.08772611618042 -4.120644092559814 C -3.733834028244019 -7.533894062042236 -3.977344036102295 -18.43362426757813 4.173336029052734 -22.62425422668457 C 4.494136333465576 -22.78927993774414 4.774479389190674 -22.86224555969238 5.0282301902771 -22.86224555969238 C 6.935272693634033 -22.86224555969238 7.366921424865723 -18.75231742858887 12.60672473907471 -18.75231742858887 C 13.71228504180908 -18.75231742858887 15.03134918212891 -18.93516540527344 16.62403678894043 -19.37826347351074 C 17.39375305175781 -19.59240531921387 18.18843650817871 -19.69285011291504 18.99908065795898 -19.69285011291504 C 28.87352752685547 -19.69285011291504 41.16409683227539 -4.79781436920166 40.77284622192383 0.8972959518432617 C 40.44655990600586 5.646794319152832 29.85752296447754 19.03658485412598 21.92351531982422 19.03658485412598 Z" stroke="none"/>
    </g>
    <g id="Ellipse_55" data-name="Ellipse 55" transform="translate(711 365)" fill="none" stroke="#000" stroke-width="1">
      <circle cx="31" cy="31" r="31" stroke="none"/>
      <circle cx="31" cy="31" r="30.5" fill="none"/>
    </g>
    <g id="Ellipse_56" data-name="Ellipse 56" transform="translate(757.281 701.517) rotate(19)" fill="none" stroke="#000" stroke-width="1">
      <ellipse cx="22" cy="26" rx="22" ry="26" stroke="none"/>
      <ellipse cx="22" cy="26" rx="21.5" ry="25.5" fill="none"/>
    </g>
    <g id="Ellipse_57" data-name="Ellipse 57" transform="matrix(0.225, 0.974, -0.974, 0.225, 1045.002, 627.978)" fill="none" stroke="#000" stroke-width="1">
      <ellipse cx="22" cy="26" rx="22" ry="26" stroke="none"/>
      <ellipse cx="22" cy="26" rx="21.5" ry="25.5" fill="none"/>
    </g>
    <g id="Path_130" data-name="Path 130" transform="translate(777 436)" fill="none">
      <path d="M32.715,12.63C48.852,23.042,62,31.176,59.562,44.77s-24.76-14.26-40-1.22S1.779,47.978,1.779,30.857,16.577,2.219,32.715,12.63Z" stroke="none"/>
      <path d="M 20.49732208251953 9.669307708740234 C 10.39618301391602 9.669307708740234 2.778934478759766 18.77816772460938 2.778934478759766 30.85729598999023 C 2.778934478759766 37.29340744018555 3.1417236328125 41.45672607421875 3.955265045166016 44.35652923583984 C 5.087642669677734 48.39281463623047 6.879295349121094 48.85961532592773 8.128433227539063 48.85961532592773 C 10.57305526733398 48.85961532592773 14.19988250732422 46.81742858886719 18.90818405151367 42.78978729248047 C 21.8680534362793 40.25781631469727 25.36892318725586 38.9739990234375 29.31353378295898 38.9739990234375 C 35.31844329833984 38.9739990234375 41.31706237792969 41.81438446044922 46.60953521728516 44.32040405273438 C 50.34140396118164 46.08747863769531 53.56436157226563 47.61356735229492 55.75217437744141 47.61356735229492 C 56.52439498901367 47.61356735229492 57.08446502685547 47.4238166809082 57.51474380493164 47.01640701293945 C 58.01674270629883 46.54107666015625 58.37439346313477 45.72567749023438 58.57774353027344 44.59284591674805 C 59.12217330932617 41.55995941162109 58.87057495117188 38.75845718383789 57.80857467651367 36.02827453613281 C 56.83119201660156 33.51561737060547 55.16518402099609 31.06531715393066 52.71533203125 28.53735733032227 C 48.00739288330078 23.67930603027344 41.16371154785156 19.26735687255859 33.23939514160156 14.15874481201172 L 32.17254257202148 13.47079849243164 C 28.26266479492188 10.94831848144531 24.33455276489258 9.669307708740234 20.49732208251953 9.669307708740234 M 20.4973258972168 8.669303894042969 C 24.31358337402344 8.669303894042969 28.46746826171875 9.890392303466797 32.71466064453125 12.63049697875977 C 48.85241317749023 23.04186630249023 62.00213241577148 31.17602729797363 59.56201171875 44.76952743530273 C 59.05891418457031 47.57219314575195 57.70912933349609 48.61356353759766 55.75217437744141 48.61356353759766 C 50.11130523681641 48.61356353759766 39.41336059570313 39.97399139404297 29.31352996826172 39.97399139404297 C 25.9227180480957 39.97399139404297 22.59980773925781 40.94781494140625 19.55822372436523 43.54968643188477 C 14.44829177856445 47.92089462280273 10.7655143737793 49.859619140625 8.128433227539063 49.859619140625 C 2.898452758789063 49.859619140625 1.778934478759766 42.2391357421875 1.778934478759766 30.85729598999023 C 1.778934478759766 18.24239730834961 9.813232421875 8.669303894042969 20.4973258972168 8.669303894042969 Z" stroke="none"/>
    </g>
    <g id="Path_132" data-name="Path 132" transform="translate(878 643)" fill="none">
      <path d="M32.715,12.63C48.852,23.042,62,31.176,59.562,44.77s-24.76-14.26-40-1.22S1.779,47.978,1.779,30.857,16.577,2.219,32.715,12.63Z" stroke="none"/>
      <path d="M 20.49732208251953 9.669307708740234 C 10.39618301391602 9.669307708740234 2.778934478759766 18.77816772460938 2.778934478759766 30.85729598999023 C 2.778934478759766 37.29340744018555 3.1417236328125 41.45672607421875 3.955265045166016 44.35652923583984 C 5.087642669677734 48.39281463623047 6.879295349121094 48.85961532592773 8.128433227539063 48.85961532592773 C 10.57305526733398 48.85961532592773 14.19988250732422 46.81742858886719 18.90818405151367 42.78978729248047 C 21.8680534362793 40.25781631469727 25.36892318725586 38.9739990234375 29.31353378295898 38.9739990234375 C 35.31844329833984 38.9739990234375 41.31706237792969 41.81438446044922 46.60953521728516 44.32040405273438 C 50.34140396118164 46.08747863769531 53.56436157226563 47.61356735229492 55.75217437744141 47.61356735229492 C 56.52439498901367 47.61356735229492 57.08446502685547 47.4238166809082 57.51474380493164 47.01640701293945 C 58.01674270629883 46.54107666015625 58.37439346313477 45.72567749023438 58.57774353027344 44.59284591674805 C 59.12217330932617 41.55995941162109 58.87057495117188 38.75845718383789 57.80857467651367 36.02827453613281 C 56.83119201660156 33.51561737060547 55.16518402099609 31.06531715393066 52.71533203125 28.53735733032227 C 48.00739288330078 23.67930603027344 41.16371154785156 19.26735687255859 33.23939514160156 14.15874481201172 L 32.17254257202148 13.47079849243164 C 28.26266479492188 10.94831848144531 24.33455276489258 9.669307708740234 20.49732208251953 9.669307708740234 M 20.4973258972168 8.669303894042969 C 24.31358337402344 8.669303894042969 28.46746826171875 9.890392303466797 32.71466064453125 12.63049697875977 C 48.85241317749023 23.04186630249023 62.00213241577148 31.17602729797363 59.56201171875 44.76952743530273 C 59.05891418457031 47.57219314575195 57.70912933349609 48.61356353759766 55.75217437744141 48.61356353759766 C 50.11130523681641 48.61356353759766 39.41336059570313 39.97399139404297 29.31352996826172 39.97399139404297 C 25.9227180480957 39.97399139404297 22.59980773925781 40.94781494140625 19.55822372436523 43.54968643188477 C 14.44829177856445 47.92089462280273 10.7655143737793 49.859619140625 8.128433227539063 49.859619140625 C 2.898452758789063 49.859619140625 1.778934478759766 42.2391357421875 1.778934478759766 30.85729598999023 C 1.778934478759766 18.24239730834961 9.813232421875 8.669303894042969 20.4973258972168 8.669303894042969 Z" stroke="none"/>
    </g>
    <g id="Path_131" data-name="Path 131" transform="translate(462 322)" fill="none">
      <path d="M32.715,12.63C48.852,23.042,62,31.176,59.562,44.77s-24.76-14.26-40-1.22S1.779,47.978,1.779,30.857,16.577,2.219,32.715,12.63Z" stroke="none"/>
      <path d="M 20.49732208251953 9.669307708740234 C 10.39618301391602 9.669307708740234 2.778934478759766 18.77816772460938 2.778934478759766 30.85729598999023 C 2.778934478759766 37.29340744018555 3.1417236328125 41.45672607421875 3.955265045166016 44.35652923583984 C 5.087642669677734 48.39281463623047 6.879295349121094 48.85961532592773 8.128433227539063 48.85961532592773 C 10.57305526733398 48.85961532592773 14.19988250732422 46.81742858886719 18.90818405151367 42.78978729248047 C 21.8680534362793 40.25781631469727 25.36892318725586 38.9739990234375 29.31353378295898 38.9739990234375 C 35.31844329833984 38.9739990234375 41.31706237792969 41.81438446044922 46.60953521728516 44.32040405273438 C 50.34140396118164 46.08747863769531 53.56436157226563 47.61356735229492 55.75217437744141 47.61356735229492 C 56.52439498901367 47.61356735229492 57.08446502685547 47.4238166809082 57.51474380493164 47.01640701293945 C 58.01674270629883 46.54107666015625 58.37439346313477 45.72567749023438 58.57774353027344 44.59284591674805 C 59.12217330932617 41.55995941162109 58.87057495117188 38.75845718383789 57.80857467651367 36.02827453613281 C 56.83119201660156 33.51561737060547 55.16518402099609 31.06531715393066 52.71533203125 28.53735733032227 C 48.00739288330078 23.67930603027344 41.16371154785156 19.26735687255859 33.23939514160156 14.15874481201172 L 32.17254257202148 13.47079849243164 C 28.26266479492188 10.94831848144531 24.33455276489258 9.669307708740234 20.49732208251953 9.669307708740234 M 20.4973258972168 8.669303894042969 C 24.31358337402344 8.669303894042969 28.46746826171875 9.890392303466797 32.71466064453125 12.63049697875977 C 48.85241317749023 23.04186630249023 62.00213241577148 31.17602729797363 59.56201171875 44.76952743530273 C 59.05891418457031 47.57219314575195 57.70912933349609 48.61356353759766 55.75217437744141 48.61356353759766 C 50.11130523681641 48.61356353759766 39.41336059570313 39.97399139404297 29.31352996826172 39.97399139404297 C 25.9227180480957 39.97399139404297 22.59980773925781 40.94781494140625 19.55822372436523 43.54968643188477 C 14.44829177856445 47.92089462280273 10.7655143737793 49.859619140625 8.128433227539063 49.859619140625 C 2.898452758789063 49.859619140625 1.778934478759766 42.2391357421875 1.778934478759766 30.85729598999023 C 1.778934478759766 18.24239730834961 9.813232421875 8.669303894042969 20.4973258972168 8.669303894042969 Z" stroke="none"/>
    </g>
    <g id="Path_133" data-name="Path 133" transform="translate(920 702)" fill="none">
      <path d="M58.643,5.9c30.928,0,59.229,32.451,59.229,63.379s-12.377,87.842-53.149,43.43S-8.086,96.688-3.244,57.845,27.715,5.9,58.643,5.9Z" stroke="none"/>
      <path d="M 58.64258575439453 6.8966064453125 C 42.0780029296875 6.8966064453125 28.57594299316406 10.66889953613281 18.51148223876953 18.10871887207031 C 12.95518493652344 22.21601867675781 8.409004211425781 27.50074768066406 4.999221801757813 33.81608581542969 C 1.34112548828125 40.59130096435547 -1.098373413085938 48.71732330322266 -2.251518249511719 57.96842193603516 C -2.859817504882813 62.84848022460938 -2.887153625488281 66.69984436035156 -2.335113525390625 69.74258422851563 C -1.833412170410156 72.50774383544922 -0.833038330078125 74.65790557861328 0.72320556640625 76.31590270996094 C 3.78106689453125 79.57372283935547 8.970687866210938 80.93283843994141 15.54094696044922 82.65354156494141 C 28.29212188720703 85.99300384521484 45.75546264648438 90.56654357910156 65.45864868164063 112.028923034668 C 75.21002197265625 122.6509857177734 83.88524627685547 128.0368041992188 91.24332427978516 128.0368041992188 C 93.49046325683594 128.0368041992188 95.64524841308594 127.5237808227539 97.64784240722656 126.5120010375977 C 99.55274200439453 125.549560546875 101.3709259033203 124.1119003295898 103.0518417358398 122.2389602661133 C 106.1725234985352 118.7618408203125 108.8707809448242 113.7639617919922 111.0717239379883 107.384162902832 C 113.006706237793 101.7752838134766 114.5026473999023 95.28606414794922 115.5180053710938 88.0968017578125 C 116.4034423828125 81.82752227783203 116.871467590332 75.31928253173828 116.871467590332 69.27564239501953 C 116.871467590332 65.55354309082031 116.4496459960938 61.72102355957031 115.6177215576172 57.88454437255859 C 114.8082275390625 54.15150451660156 113.6064071655273 50.39369964599609 112.0456466674805 46.71556091308594 C 110.5117263793945 43.10063934326172 108.6276245117188 39.55361938476563 106.4457015991211 36.17300415039063 C 104.2758483886719 32.81108093261719 101.8099822998047 29.61129760742188 99.11664581298828 26.66253662109375 C 96.40460205078125 23.69334411621094 93.45960235595703 20.976318359375 90.3634033203125 18.58695983886719 C 87.209228515625 16.15286254882813 83.88906860351563 14.05226135253906 80.49512481689453 12.34352111816406 C 77.00379943847656 10.58572387695313 73.41258239746094 9.23223876953125 69.82124328613281 8.320663452148438 C 66.09856414794922 7.375717163085938 62.3375244140625 6.8966064453125 58.64258575439453 6.8966064453125 M 58.64258575439453 5.8966064453125 C 89.57052612304688 5.8966064453125 117.871467590332 38.34767913818359 117.871467590332 69.27564239501953 C 117.871467590332 92.08650970458984 111.1357192993164 129.0368041992188 91.24332427978516 129.0368041992188 C 84.16476440429688 129.0368041992188 75.42269897460938 124.3613433837891 64.72198486328125 112.7052001953125 C 23.94976806640625 68.2926025390625 -8.085578918457031 96.6876220703125 -3.24383544921875 57.84471893310547 C 1.597908020019531 19.00181579589844 27.71464538574219 5.8966064453125 58.64258575439453 5.8966064453125 Z" stroke="none"/>
    </g>
    <g id="Path_150" data-name="Path 150" transform="translate(796 264)" fill="none">
      <path d="M58.643,5.9c30.928,0,59.229,32.451,59.229,63.379s-12.377,87.842-53.149,43.43S-8.086,96.688-3.244,57.845,27.715,5.9,58.643,5.9Z" stroke="none"/>
      <path d="M 58.64258575439453 6.8966064453125 C 42.0780029296875 6.8966064453125 28.57594299316406 10.66889953613281 18.51148223876953 18.10871887207031 C 12.95518493652344 22.21601867675781 8.409004211425781 27.50074768066406 4.999221801757813 33.81608581542969 C 1.34112548828125 40.59130096435547 -1.098373413085938 48.71732330322266 -2.251518249511719 57.96842193603516 C -2.859817504882813 62.84848022460938 -2.887153625488281 66.69984436035156 -2.335113525390625 69.74258422851563 C -1.833412170410156 72.50774383544922 -0.833038330078125 74.65790557861328 0.72320556640625 76.31590270996094 C 3.78106689453125 79.57372283935547 8.970687866210938 80.93283843994141 15.54094696044922 82.65354156494141 C 28.29212188720703 85.99300384521484 45.75546264648438 90.56654357910156 65.45864868164063 112.028923034668 C 75.21002197265625 122.6509857177734 83.88524627685547 128.0368041992188 91.24332427978516 128.0368041992188 C 93.49046325683594 128.0368041992188 95.64524841308594 127.5237808227539 97.64784240722656 126.5120010375977 C 99.55274200439453 125.549560546875 101.3709259033203 124.1119003295898 103.0518417358398 122.2389602661133 C 106.1725234985352 118.7618408203125 108.8707809448242 113.7639617919922 111.0717239379883 107.384162902832 C 113.006706237793 101.7752838134766 114.5026473999023 95.28606414794922 115.5180053710938 88.0968017578125 C 116.4034423828125 81.82752227783203 116.871467590332 75.31928253173828 116.871467590332 69.27564239501953 C 116.871467590332 65.55354309082031 116.4496459960938 61.72102355957031 115.6177215576172 57.88454437255859 C 114.8082275390625 54.15150451660156 113.6064071655273 50.39369964599609 112.0456466674805 46.71556091308594 C 110.5117263793945 43.10063934326172 108.6276245117188 39.55361938476563 106.4457015991211 36.17300415039063 C 104.2758483886719 32.81108093261719 101.8099822998047 29.61129760742188 99.11664581298828 26.66253662109375 C 96.40460205078125 23.69334411621094 93.45960235595703 20.976318359375 90.3634033203125 18.58695983886719 C 87.209228515625 16.15286254882813 83.88906860351563 14.05226135253906 80.49512481689453 12.34352111816406 C 77.00379943847656 10.58572387695313 73.41258239746094 9.23223876953125 69.82124328613281 8.320663452148438 C 66.09856414794922 7.375717163085938 62.3375244140625 6.8966064453125 58.64258575439453 6.8966064453125 M 58.64258575439453 5.8966064453125 C 89.57052612304688 5.8966064453125 117.871467590332 38.34767913818359 117.871467590332 69.27564239501953 C 117.871467590332 92.08650970458984 111.1357192993164 129.0368041992188 91.24332427978516 129.0368041992188 C 84.16476440429688 129.0368041992188 75.42269897460938 124.3613433837891 64.72198486328125 112.7052001953125 C 23.94976806640625 68.2926025390625 -8.085578918457031 96.6876220703125 -3.24383544921875 57.84471893310547 C 1.597908020019531 19.00181579589844 27.71464538574219 5.8966064453125 58.64258575439453 5.8966064453125 Z" stroke="none"/>
    </g>
    <g id="Path_134" data-name="Path 134" transform="translate(897.07 686.83)" fill="none">
      <path d="M78.062,5.9c40.557,0,77.67,42.555,77.67,83.112S139.5,204.2,86.034,145.96s-95.476-21-89.127-71.941S37.5,5.9,78.062,5.9Z" stroke="none"/>
      <path d="M 78.06172943115234 6.8966064453125 C 56.27175140380859 6.8966064453125 38.50360107421875 11.86390686035156 25.25087738037109 21.66055297851563 C 21.65540313720703 24.31838989257813 18.35350036621094 27.37156677246094 15.43687438964844 30.73529052734375 C 12.41677856445313 34.21833801269531 9.727157592773438 38.12973022460938 7.442733764648438 42.36077880859375 C 5.077346801757813 46.74172973632813 3.08148193359375 51.58555603027344 1.51055908203125 56.75776672363281 C -0.1146697998046875 62.10870361328125 -1.32958984375 67.95770263671875 -2.100494384765625 74.14230346679688 C -2.902145385742188 80.57356262207031 -2.937149047851563 85.65480804443359 -2.207504272460938 89.67640686035156 C -1.53857421875 93.36335754394531 -0.200775146484375 96.23448181152344 1.882354736328125 98.45381164550781 C 5.953628540039063 102.7913055419922 12.79727172851563 104.583610534668 21.46165466308594 106.8527603149414 C 38.14550018310547 111.2221603393555 60.99480438232422 117.2062377929688 86.77057647705078 145.2834320068359 C 99.61943054199219 159.2794799804688 111.0727996826172 166.3760833740234 120.8125762939453 166.3760833740234 C 123.8085784912109 166.3760833740234 126.6815032958984 165.6920776367188 129.3515319824219 164.3430786132813 C 131.8841857910156 163.0634765625 134.2991485595703 161.1546936035156 136.5293731689453 158.6697387695313 C 140.6495513916016 154.0788879394531 144.2089996337891 147.4891357421875 147.1088104248047 139.0835113525391 C 149.6527252197266 131.7095031738281 151.6191253662109 123.1804122924805 152.9534301757813 113.7331085205078 C 154.1165313720703 105.4977340698242 154.7313232421875 96.94808197021484 154.7313232421875 89.00848388671875 C 154.7313232421875 84.10538482666016 154.1757965087891 79.05740356445313 153.0801544189453 74.00483703613281 C 152.0144958496094 69.09051513671875 150.4325561523438 64.14402770996094 148.3782501220703 59.30278015136719 C 146.3598022460938 54.54600524902344 143.8807067871094 49.87875366210938 141.0097961425781 45.43063354492188 C 138.1549530029297 41.00746154785156 134.9107055664063 36.79757690429688 131.3671264648438 32.91798400878906 C 127.7985992431641 29.01106262207031 123.9233245849609 25.43583679199219 119.8489532470703 22.29158020019531 C 115.6970825195313 19.08755493164063 111.3262786865234 16.32231140136719 106.8580017089844 14.07266235351563 C 102.2594757080078 11.75743103027344 97.52882385253906 9.974578857421875 92.79742431640625 8.773605346679688 C 87.89067840576172 7.528106689453125 82.93287658691406 6.8966064453125 78.06172943115234 6.8966064453125 M 78.06172943115234 5.8966064453125 C 118.6189804077148 5.8966064453125 155.7313232421875 48.45123291015625 155.7313232421875 89.00848388671875 C 155.7313232421875 118.9214401245117 146.8984069824219 167.3760833740234 120.8125915527344 167.3760833740234 C 111.5301513671875 167.3760833740234 100.0662689208984 161.2449493408203 86.03392791748047 145.959716796875 C 32.56742858886719 87.71938323974609 -9.4420166015625 124.9551086425781 -3.092819213867188 74.01861572265625 C 3.256378173828125 23.08207702636719 37.50447845458984 5.8966064453125 78.06172943115234 5.8966064453125 Z" stroke="none"/>
    </g>
    <g id="Path_149" data-name="Path 149" transform="translate(773.07 248.83)" fill="none">
      <path d="M78.062,5.9c40.557,0,77.67,42.555,77.67,83.112S139.5,204.2,86.034,145.96s-95.476-21-89.127-71.941S37.5,5.9,78.062,5.9Z" stroke="none"/>
      <path d="M 78.06172943115234 6.8966064453125 C 56.27175140380859 6.8966064453125 38.50360107421875 11.86390686035156 25.25087738037109 21.66055297851563 C 21.65540313720703 24.31838989257813 18.35350036621094 27.37156677246094 15.43687438964844 30.73529052734375 C 12.41677856445313 34.21833801269531 9.727157592773438 38.12973022460938 7.442733764648438 42.36077880859375 C 5.077346801757813 46.74172973632813 3.08148193359375 51.58555603027344 1.51055908203125 56.75776672363281 C -0.1146697998046875 62.10870361328125 -1.32958984375 67.95770263671875 -2.100494384765625 74.14230346679688 C -2.902145385742188 80.57356262207031 -2.937149047851563 85.65480804443359 -2.207504272460938 89.67640686035156 C -1.53857421875 93.36335754394531 -0.200775146484375 96.23448181152344 1.882354736328125 98.45381164550781 C 5.953628540039063 102.7913055419922 12.79727172851563 104.583610534668 21.46165466308594 106.8527603149414 C 38.14550018310547 111.2221603393555 60.99480438232422 117.2062377929688 86.77057647705078 145.2834320068359 C 99.61943054199219 159.2794799804688 111.0727996826172 166.3760833740234 120.8125762939453 166.3760833740234 C 123.8085784912109 166.3760833740234 126.6815032958984 165.6920776367188 129.3515319824219 164.3430786132813 C 131.8841857910156 163.0634765625 134.2991485595703 161.1546936035156 136.5293731689453 158.6697387695313 C 140.6495513916016 154.0788879394531 144.2089996337891 147.4891357421875 147.1088104248047 139.0835113525391 C 149.6527252197266 131.7095031738281 151.6191253662109 123.1804122924805 152.9534301757813 113.7331085205078 C 154.1165313720703 105.4977340698242 154.7313232421875 96.94808197021484 154.7313232421875 89.00848388671875 C 154.7313232421875 84.10538482666016 154.1757965087891 79.05740356445313 153.0801544189453 74.00483703613281 C 152.0144958496094 69.09051513671875 150.4325561523438 64.14402770996094 148.3782501220703 59.30278015136719 C 146.3598022460938 54.54600524902344 143.8807067871094 49.87875366210938 141.0097961425781 45.43063354492188 C 138.1549530029297 41.00746154785156 134.9107055664063 36.79757690429688 131.3671264648438 32.91798400878906 C 127.7985992431641 29.01106262207031 123.9233245849609 25.43583679199219 119.8489532470703 22.29158020019531 C 115.6970825195313 19.08755493164063 111.3262786865234 16.32231140136719 106.8580017089844 14.07266235351563 C 102.2594757080078 11.75743103027344 97.52882385253906 9.974578857421875 92.79742431640625 8.773605346679688 C 87.89067840576172 7.528106689453125 82.93287658691406 6.8966064453125 78.06172943115234 6.8966064453125 M 78.06172943115234 5.8966064453125 C 118.6189804077148 5.8966064453125 155.7313232421875 48.45123291015625 155.7313232421875 89.00848388671875 C 155.7313232421875 118.9214401245117 146.8984069824219 167.3760833740234 120.8125915527344 167.3760833740234 C 111.5301513671875 167.3760833740234 100.0662689208984 161.2449493408203 86.03392791748047 145.959716796875 C 32.56742858886719 87.71938323974609 -9.4420166015625 124.9551086425781 -3.092819213867188 74.01861572265625 C 3.256378173828125 23.08207702636719 37.50447845458984 5.8966064453125 78.06172943115234 5.8966064453125 Z" stroke="none"/>
    </g>
    <g id="Path_135" data-name="Path 135" transform="translate(361 445)" fill="none">
      <path d="M94.776,17.537c61.959-15.4,57.321,34.581,56.564,63.05S126.946,125.073,92.7,125.073-14.181,95.441-16.875,32.608,32.817,32.937,94.776,17.537Z" stroke="none"/>
      <path d="M -1.66522216796875 5.165145874023438 C -3.719314575195313 5.165145874023438 -5.462371826171875 5.427032470703125 -6.994033813476563 5.965782165527344 C -8.587860107421875 6.526397705078125 -9.91351318359375 7.373947143554688 -11.04676818847656 8.556808471679688 C -12.89071655273438 10.48151397705078 -14.18069458007813 13.25132751464844 -14.99037170410156 17.02449035644531 C -15.86053466796875 21.07949066162109 -16.15008544921875 26.16300964355469 -15.87557983398438 32.56555938720703 C -15.25274658203125 47.09296798706055 -10.78587341308594 60.70039749145508 -2.59906005859375 73.00987243652344 C 1.075576782226563 78.53496551513672 5.53173828125 83.83292388916016 10.64559936523438 88.75656127929688 C 15.40137481689453 93.33539581298828 20.78301239013672 97.64723968505859 26.64096069335938 101.5723114013672 C 37.17526245117188 108.6307144165039 49.34075927734375 114.4874877929688 61.82230377197266 118.5094909667969 C 72.95603179931641 122.09716796875 83.92341613769531 124.0729904174805 92.70416259765625 124.0729904174805 C 109.5940780639648 124.0729904174805 123.8692169189453 120.1404418945313 133.986328125 112.7004699707031 C 139.0671691894531 108.9640808105469 143.0372619628906 104.3841934204102 145.7863311767578 99.08798980712891 C 148.6266174316406 93.615966796875 150.1587371826172 87.38258361816406 150.3400726318359 80.56094360351563 C 150.3758697509766 79.21410369873047 150.4196472167969 77.84151458740234 150.4659576416016 76.38832855224609 C 150.7438049316406 67.67469787597656 151.0587158203125 57.79846572875977 149.8072509765625 48.43299102783203 C 148.3701629638672 37.67826080322266 145.13525390625 29.83183288574219 139.9177093505859 24.44535064697266 C 137.2080535888672 21.64798736572266 133.9034576416016 19.49353790283203 130.0957641601563 18.04185485839844 C 125.9412155151367 16.45794677734375 121.047966003418 15.65487670898438 115.5519180297852 15.65499114990234 C 109.5414886474609 15.65510559082031 102.6325531005859 16.61489868164063 95.01707458496094 18.50771331787109 C 88.24494171142578 20.19089508056641 81.10350799560547 21.04434967041016 73.79114532470703 21.04434967041016 C 55.07898712158203 21.04434967041016 37.62421417236328 15.52010345458984 23.59905242919922 11.08128356933594 C 13.56866455078125 7.906761169433594 4.9061279296875 5.165145874023438 -1.66522216796875 5.165145874023438 M -1.665206909179688 4.165153503417969 C 14.49403381347656 4.165153503417969 42.00233459472656 20.04435729980469 73.79115295410156 20.04435729980469 C 80.61386871337891 20.04435729980469 87.62850952148438 19.31370544433594 94.77587127685547 17.53723907470703 C 102.7552032470703 15.55399322509766 109.6311111450195 14.65510559082031 115.5519027709961 14.65499114990234 C 155.6056213378906 14.65422821044922 151.9990234375 55.78498840332031 151.3397064208984 80.58750915527344 C 150.5829467773438 109.056396484375 126.94580078125 125.0729904174805 92.70416259765625 125.0729904174805 C 58.46250915527344 125.0729904174805 -14.1807861328125 95.44139862060547 -16.87467956542969 32.6083984375 C -17.80989074707031 10.79479217529297 -12.10284423828125 4.165153503417969 -1.665206909179688 4.165153503417969 Z" stroke="none"/>
    </g>
    <g id="Path_136" data-name="Path 136" transform="translate(328.183 427.247)" fill="none">
      <path d="M138.255,22.1c86.066-20.657,79.623,46.387,78.572,84.574s-33.885,59.672-81.449,59.672S-13.094,126.6-16.836,42.318,52.19,42.759,138.255,22.1Z" stroke="none"/>
      <path d="M 4.291183471679688 5.165138244628906 C 1.332611083984375 5.165138244628906 -1.176132202148438 5.538330078125 -3.37835693359375 6.306045532226563 C -5.68572998046875 7.110420227050781 -7.597793579101563 8.327705383300781 -9.2237548828125 10.02745056152344 C -11.76504516601563 12.68408203125 -13.53843688964844 16.45448303222656 -14.6453857421875 21.55413818359375 C -15.82492065429688 26.98842620849609 -16.21466064453125 33.76589202880859 -15.8369140625 42.27382659912109 C -14.96919250488281 61.81838989257813 -8.74560546875 80.12570190429688 2.660934448242188 96.68730163574219 C 7.779678344726563 104.1194229125977 13.98664855957031 111.2455444335938 21.109375 117.8677673339844 C 27.73155212402344 124.0246429443359 35.22474670410156 129.8221740722656 43.38070678710938 135.099365234375 C 58.04417419433594 144.5870513916016 74.97799682617188 152.4594573974609 92.35143280029297 157.8655395507813 C 107.8574600219727 162.6905212402344 123.1378021240234 165.3477630615234 135.3777160644531 165.3477630615234 C 158.9286499023438 165.3477630615234 178.8423004150391 160.0464172363281 192.9658660888672 150.0168914794922 C 200.0699310302734 144.9720764160156 205.6210479736328 138.7880859375 209.465087890625 131.6366729736328 C 213.4336853027344 124.2535171508789 215.5743103027344 115.8463287353516 215.8274993896484 106.6485748291016 C 215.8772125244141 104.8427963256836 215.93798828125 103.0020751953125 216.0023345947266 101.0532379150391 C 216.3847045898438 89.47311401367188 216.818115234375 76.34785461425781 215.1339874267578 63.86489105224609 C 213.1947174072266 49.49054718017578 208.8063354492188 38.94173431396484 201.7180938720703 31.61570739746094 C 199.8539581298828 29.68904876708984 197.7719573974609 27.96604919433594 195.5299072265625 26.49461364746094 C 193.1845245361328 24.95532989501953 190.592529296875 23.64432525634766 187.825927734375 22.59798431396484 C 181.9268341064453 20.36695098876953 174.9586791992188 19.23579406738281 167.1150512695313 19.23595428466797 C 158.731689453125 19.23610687255859 149.1004638671875 20.52758026123047 138.4888610839844 23.07448577880859 C 129.1150207519531 25.32432556152344 119.2291793823242 26.46511077880859 109.1060256958008 26.46511077880859 C 83.17852783203125 26.46511077880859 58.9666748046875 19.06545257568359 39.5120849609375 13.11973571777344 C 25.54598999023438 8.851394653320313 13.48443603515625 5.165138244628906 4.291183471679688 5.165138244628906 M 4.291168212890625 4.165138244628906 C 26.73764038085938 4.165138244628906 64.94883728027344 25.46510314941406 109.1060333251953 25.46510314941406 C 118.5833282470703 25.46510314941406 128.3272399902344 24.48501586914063 138.2554931640625 22.10211181640625 C 149.3394165039063 19.44183349609375 158.8905944824219 18.23609161376953 167.1150360107422 18.23594665527344 C 222.7528228759766 18.23492431640625 217.7429809570313 73.40663909912109 216.8271179199219 106.6761093139648 C 215.7759246826172 144.8635101318359 182.9420928955078 166.3477630615234 135.3777160644531 166.3477630615234 C 87.81333923339844 166.3477630615234 -13.09394836425781 126.6007385253906 -16.8359375 42.31817626953125 C -18.13505554199219 13.05796813964844 -10.20751953125 4.165138244628906 4.291168212890625 4.165138244628906 Z" stroke="none"/>
    </g>
    <path id="Path_137" data-name="Path 137" d="M372.943,1274.628s22.954,43.269,90.137,35.191,87.417-9.2,105.572,54.306-44.764,116.959-12.8,170.676" transform="translate(0 -897)" fill="none" stroke="#000" stroke-width="1"/>
    <path id="Path_138" data-name="Path 138" d="M822.745,1700.355s-13.061-38.641-13.54-55.677,2.413-72.949,21.348-109.079,39.614-29.961,54.57-29.961,18.721-17.467,19.2-38.822,10.637-89.1,10.637-89.1" transform="translate(0 -897)" fill="none" stroke="#000" stroke-width="1"/>
    <path id="Path_139" data-name="Path 139" d="M862.689,1693.526s10.559-22.579,7.667-39.8-21.913-33.573-21.205-63.319,11.157-48.862,24.035-55.666,27.265-9.413,45.722,0,39.275,46.395,50.78,36.12,9.809-47.194,10.178-60.3,1.015-36.683,6.952-54.939,16.8-18.088,16.8-18.088" transform="translate(0 -897)" fill="none" stroke="#000" stroke-width="1"/>
    <path id="Path_140" data-name="Path 140" d="M935.579,1403.842c-13.533,22.634-22.1,54.86-22.1,61.886s2.694,24.245,1.711,30.579-2.694,13.324,6.043,20.131,31.853,19.913,35.712,18.457,4.332-5.606,3.859-8.992-8.519-23.772-7.281-29.6,9.465-32.764,14.088-39.789,14.562-17.911,20.386-23.772,14.343-11.394,8.992-26.939-17-32.072-29.378-30.616S949.112,1381.208,935.579,1403.842Z" transform="translate(0 -897)" fill="none" stroke="#000" stroke-width="1"/>
    <path id="Path_141" data-name="Path 141" d="M927.147,1399.527c-11.2,18.554-13.665,46.623-13.665,52.594s1.666,20.6,1.058,25.988-1.666,11.323,3.737,17.109,10.581,13.878,16.7,15.889,6.845-4.877,6.553-7.754-3.678-16.892-2.912-21.842,10.246-31.634,13.105-37.6,13.4-20.5,17-25.483,9.683-14.816,3.859-28.395S938.346,1380.973,927.147,1399.527Z" transform="translate(9.703 -885.479)" fill="none" stroke="#000" stroke-width="1"/>
    <path id="Path_142" data-name="Path 142" d="M923.749,1393.452c-6.288,14.452-10.267,35.027-10.267,39.513s1.252,15.48.795,19.524,1.411,30.068,9.472,28.866.151-7.818,2.236-15.035,2.912-7.062,2.184-19.185,6.032-10.223,10.464-20.052,4.558-15.522,7.264-19.264,10.968-15.3,8.482-25.228S930.036,1379,923.749,1393.452Z" transform="translate(16.256 -868.58)" fill="none" stroke="#000" stroke-width="1"/>
    <path id="Path_145" data-name="Path 145" d="M44.614,48.607C18.771,86.217.978,138.853.412,150.169s2.832,38.819.578,49.105-5.853,21.69,9.108,31.908S65.037,260.535,72,257.861s8.141-9.4,7.573-14.811S66.368,205.489,69.034,196s19.436-53.577,28.208-65.288,27.288-30.091,38.1-40.027,26.376-19.576,18.127-44.156-27.6-50.2-49.685-46.8S70.456,11,44.614,48.607Z" transform="translate(689.225 415.728) rotate(-164)" fill="none" stroke="#000" stroke-width="1"/>
    <path id="Path_144" data-name="Path 144" d="M28.56,32.69C8.291,65.667,1.567,113.838,1.005,124.022s.815,34.947-.7,44.2-3.821,19.512,4.571,28.739,9.811,11.689,18.544,5.24,14.655-22.5,16.387-31.036,19.926-55.175,25.217-65.7S89.119,68.907,95.545,59.984s17.411-26.422,9.056-48.891S48.828-.287,28.56,32.69Z" transform="translate(677.038 387.853) rotate(-164)" fill="none" stroke="#000" stroke-width="1"/>
    <path id="Path_143" data-name="Path 143" d="M15.531,27.221C6.019,52.33,0,88.081,0,95.876s1.893,26.9,1.2,33.923,2.135,52.243,14.329,50.156.229-13.584,3.382-26.123,4.406-12.271,3.3-33.334,9.125-17.762,15.83-34.84,6.9-26.97,10.99-33.472S65.631,25.6,61.869,8.352,25.043,2.111,15.531,27.221Z" transform="matrix(-0.875, -0.485, 0.485, -0.875, 641.796, 369.71)" fill="none" stroke="#000" stroke-width="1"/>
    <path id="Path_146" data-name="Path 146" d="M43.742,30.228c-21.67,21.736-38.067,51.079-39.12,57.2s0,20.706-2.274,26.369S-3.288,125.8,7.491,130.416s40.033,12.563,45.463,10.716,6.691-5.53,6.559-8.407-7.941-19.421-5.4-24.678S71.812,78.1,79.109,71.291s22.351-17.778,31.1-23.754,21.079-12.071,16.182-24.8S108.235-2.643,91.3.481,65.411,8.492,43.742,30.228Z" transform="translate(445.924 178.82) rotate(16)" fill="none" stroke="#000" stroke-width="1"/>
    <path id="Path_147" data-name="Path 147" d="M35.474,21.132C15.6,39.086,6.676,63.5,5.543,68.6S4.068,85.861,2.159,90.569s-4.58,9.977,2.213,13.888,12.819,9.834,21.371,10.389,10.921-5.459,11.04-7.859-2.167-13.715-.11-18.084,20.963-28.934,26.27-34.571S86.4,34.3,92.6,29.368,109.552,14.89,103.622,4.409,55.346,3.177,35.474,21.132Z" transform="translate(453.155 195.884) rotate(16)" fill="none" stroke="#000" stroke-width="1"/>
    <path id="Path_148" data-name="Path 148" d="M10.267,15.667C3.979,30.118,0,50.694,0,55.18S1.252,70.66.795,74.7s1.411,30.068,9.472,28.866.151-7.818,2.236-15.035,2.912-7.062,2.184-19.185S20.719,59.128,25.151,49.3s4.558-15.522,7.264-19.264S43.384,14.732,40.9,4.807,16.554,1.215,10.267,15.667Z" transform="matrix(0.788, 0.616, -0.616, 0.788, 496.421, 210.457)" fill="none" stroke="#000" stroke-width="1"/>
  </g>
</svg>
