<svg xmlns="http://www.w3.org/2000/svg" xmlns:xlink="http://www.w3.org/1999/xlink" width="29.771" height="37.276" viewBox="0 0 29.771 37.276">
  <defs>
    <filter id="Union_3" x="0" y="0" width="29.771" height="37.276" filterUnits="userSpaceOnUse">
      <feOffset dy="3" input="SourceAlpha"/>
      <feGaussianBlur stdDeviation="3" result="blur"/>
      <feFlood flood-color="#4460f1" flood-opacity="0.4"/>
      <feComposite operator="in" in2="blur"/>
      <feComposite in="SourceGraphic"/>
    </filter>
  </defs>
  <g transform="matrix(1, 0, 0, 1, 0, 0)" filter="url(#Union_3)">
    <path id="Union_3-2" data-name="Union 3" d="M3.03,19.192a.8.8,0,0,1-.4-.87l1.429-6.8L.517,10.279a.775.775,0,0,1-.489-.534.811.811,0,0,1,.15-.719L7.282.281a.742.742,0,0,1,.9-.209.794.794,0,0,1,.435.842l-1.1,7.058,3.652.791a.77.77,0,0,1,.566.523.809.809,0,0,1-.151.769L3.945,19.01a.751.751,0,0,1-.571.266A.733.733,0,0,1,3.03,19.192Z" transform="translate(9 6)" fill="#4460f1"/>
  </g>
</svg>
