<svg id="_031-pie-chart" data-name="031-pie-chart" xmlns="http://www.w3.org/2000/svg" width="18" height="18" viewBox="0 0 18 18">
  <g id="Group_128" data-name="Group 128">
    <g id="Group_127" data-name="Group 127">
      <path id="Path_208" data-name="Path 208" d="M9,0a9,9,0,1,0,9,9A9.01,9.01,0,0,0,9,0ZM9,16.65A7.65,7.65,0,1,1,16.65,9,7.659,7.659,0,0,1,9,16.65Z" fill="#4460f1"/>
    </g>
  </g>
  <g id="Group_130" data-name="Group 130" transform="translate(11.357 2.561)">
    <g id="Group_129" data-name="Group 129" transform="translate(0 0)">
      <rect id="Rectangle_110" data-name="Rectangle 110" width="4.423" height="1.35" transform="matrix(0.707, -0.707, 0.707, 0.707, 0, 3.127)" fill="#4460f1"/>
    </g>
  </g>
  <g id="Group_132" data-name="Group 132" transform="translate(0.614 8.081)">
    <g id="Group_131" data-name="Group 131" transform="translate(0 0)">
      <rect id="Rectangle_111" data-name="Rectangle 111" width="1.35" height="4.337" transform="matrix(0.088, -0.996, 0.996, 0.088, 0, 1.345)" fill="#4460f1"/>
    </g>
  </g>
  <g id="Group_134" data-name="Group 134" transform="translate(7.875 0.675)">
    <g id="Group_133" data-name="Group 133">
      <rect id="Rectangle_112" data-name="Rectangle 112" width="1.35" height="4.342" fill="#4460f1"/>
    </g>
  </g>
  <g id="Group_136" data-name="Group 136" transform="translate(4.32 4.32)">
    <g id="Group_135" data-name="Group 135">
      <path id="Path_209" data-name="Path 209" d="M127.56,122.88a4.68,4.68,0,1,0,4.68,4.68A4.685,4.685,0,0,0,127.56,122.88Zm0,8.01a3.33,3.33,0,1,1,3.33-3.33A3.334,3.334,0,0,1,127.56,130.89Z" transform="translate(-122.88 -122.88)" fill="#4460f1"/>
    </g>
  </g>
</svg>
