<svg xmlns="http://www.w3.org/2000/svg" width="18" height="18" viewBox="0 0 18 18">
  <g id="dollar" transform="translate(0 0)">
    <path id="Path_255" data-name="Path 255" d="M9,18A9,9,0,0,1,2.636,2.636,9,9,0,0,1,15.364,15.364,8.941,8.941,0,0,1,9,18ZM9,1.125A7.875,7.875,0,1,0,16.875,9,7.884,7.884,0,0,0,9,1.125Z" transform="translate(0 0)" fill="#505b67"/>
    <path id="Path_256" data-name="Path 256" d="M186.572,101.014A1.393,1.393,0,1,1,188,99.621a.572.572,0,0,0,1.143,0,2.526,2.526,0,0,0-2-2.444v-.62a.572.572,0,0,0-1.143,0v.62a2.5,2.5,0,0,0,.571,4.951,1.393,1.393,0,1,1-1.429,1.393.572.572,0,0,0-1.143,0,2.526,2.526,0,0,0,2,2.444v.62a.572.572,0,0,0,1.143,0v-.62a2.5,2.5,0,0,0-.571-4.951Z" transform="translate(-177.572 -92.571)" fill="#505b67"/>
  </g>
</svg>
