<svg id="Facebook_logo_2019" data-name="Facebook logo 2019" xmlns="http://www.w3.org/2000/svg" width="29.652" height="29.652" viewBox="0 0 29.652 29.652">
  <path id="Path_161" data-name="Path 161" d="M29.652,14.826A14.826,14.826,0,1,0,12.51,29.472V19.112H8.745V14.826H12.51V11.56c0-3.716,2.213-5.768,5.6-5.768a22.8,22.8,0,0,1,3.319.29V9.73h-1.87a2.143,2.143,0,0,0-2.416,2.315v2.781h4.112L20.6,19.112H17.143v10.36A14.83,14.83,0,0,0,29.652,14.826Z" fill="#1877f2"/>
  <path id="Path_162" data-name="Path 162" d="M313.852,213.32l.657-4.286H310.4v-2.781a2.143,2.143,0,0,1,2.416-2.315h1.87V200.29a22.8,22.8,0,0,0-3.319-.29c-3.387,0-5.6,2.053-5.6,5.768v3.266H302v4.286h3.764v10.36a14.983,14.983,0,0,0,4.633,0V213.32Z" transform="translate(-293.255 -194.209)" fill="#fff"/>
</svg>
