<?xml version="1.0" encoding="utf-8"?>
<!-- Generator: Adobe Illustrator 24.0.1, SVG Export Plug-In . SVG Version: 6.00 Build 0)  -->
<svg version="1.1" id="Layer_1" xmlns="http://www.w3.org/2000/svg" xmlns:xlink="http://www.w3.org/1999/xlink" x="0px" y="0px"
	 viewBox="0 0 16 16" style="enable-background:new 0 0 16 16;" xml:space="preserve">
<style type="text/css">
	.st0{fill:#FFFFFF;}
</style>
<path class="st0" d="M8,0C3.6,0,0,3.6,0,8s3.6,8,8,8s8-3.6,8-8S12.4,0,8,0z M11.9,6.4l-4.4,4.4c-0.1,0.1-0.4,0.1-0.5,0L4.5,8.3
	c-0.1-0.1-0.1-0.4,0-0.5L5,7.2C5.2,7,5.4,7,5.6,7.2l1.7,1.7l3.6-3.6c0.1-0.1,0.4-0.1,0.5,0l0.5,0.5C12,6,12,6.2,11.9,6.4z"/>
</svg>
