<svg xmlns="http://www.w3.org/2000/svg" xmlns:xlink="http://www.w3.org/1999/xlink" width="28" height="28" viewBox="0 0 28 28">
  <defs>
    <linearGradient id="linear-gradient" x1="0.286" y1="0.444" x2="1.254" y2="-0.524" gradientUnits="objectBoundingBox">
      <stop offset="0" stop-color="#b3c0ff"/>
      <stop offset="1" stop-color="#4460f1"/>
    </linearGradient>
    <linearGradient id="linear-gradient-2" x1="0.217" y1="0.512" x2="1.405" y2="-0.676" gradientUnits="objectBoundingBox">
      <stop offset="0" stop-color="#00a2f3" stop-opacity="0"/>
      <stop offset="1" stop-color="#0075cd"/>
    </linearGradient>
    <linearGradient id="linear-gradient-3" x1="0.748" y1="0.902" x2="0.343" y2="0.077" xlink:href="#linear-gradient-2"/>
    <radialGradient id="radial-gradient" cx="0.362" cy="0.174" r="0.592" gradientTransform="matrix(1, 0, 0, -1.181, 0, 0.38)" gradientUnits="objectBoundingBox">
      <stop offset="0" stop-color="#b3c0ff"/>
      <stop offset="0.483" stop-color="#b3c0ff"/>
      <stop offset="0.657" stop-color="#b3c0ff"/>
      <stop offset="0.683" stop-color="#b3c0ff"/>
      <stop offset="0.881" stop-color="#4460f1"/>
      <stop offset="0.966" stop-color="#4460f1"/>
      <stop offset="1" stop-color="#4460f1"/>
    </radialGradient>
  </defs>
  <g id="Group_79" data-name="Group 79" transform="translate(-408 -403)">
    <rect id="Rectangle_82" data-name="Rectangle 82" width="28" height="28" rx="7" transform="translate(408 403)" fill="#b3c0ff" opacity="0.2"/>
    <g id="_012-shipping-1" data-name="012-shipping-1" transform="translate(404.877 401.468)">
      <circle id="Ellipse_47" data-name="Ellipse 47" cx="9.04" cy="9.04" r="9.04" transform="translate(8.617 6.984)" fill="url(#linear-gradient)"/>
      <path id="Path_92" data-name="Path 92" d="M78.1,115.265a9.061,9.061,0,0,0-1.037-.621,9.06,9.06,0,0,0-.621-1.037,5.325,5.325,0,0,0-9.3,0,9.062,9.062,0,0,0-.621,1.037,9.062,9.062,0,0,0-1.037.621,5.325,5.325,0,0,0,0,9.3,9.062,9.062,0,0,0,1.037.621,9.06,9.06,0,0,0,.621,1.037,5.325,5.325,0,0,0,9.3,0,9.059,9.059,0,0,0,.621-1.037,9.061,9.061,0,0,0,1.037-.621,5.325,5.325,0,0,0,0-9.3Zm-1.958,9a9.779,9.779,0,0,1-2.254.7c.13-.813.226-1.715.287-2.671.956-.06,1.858-.157,2.671-.287A9.775,9.775,0,0,1,76.144,124.266Zm-4.893,2.116q.27.011.542.012t.542-.012a3.791,3.791,0,0,1-.542,1.287A3.794,3.794,0,0,1,71.251,126.381Zm.542-1.219q-.414,0-.82-.029a25.95,25.95,0,0,1-.325-2.778q.565.016,1.145.017t1.145-.017a25.972,25.972,0,0,1-.325,2.778Q72.207,125.162,71.793,125.162Zm-4.351-.9a9.778,9.778,0,0,1-.7-2.254c.813.13,1.715.226,2.671.287.06.956.157,1.858.287,2.671A9.773,9.773,0,0,1,67.443,124.266Zm0-8.7a9.777,9.777,0,0,1,2.254-.7c-.13.813-.226,1.715-.287,2.671-.956.06-1.858.157-2.671.287A9.777,9.777,0,0,1,67.443,115.565Zm4.893-2.116q-.27-.011-.542-.012t-.542.012a3.791,3.791,0,0,1,.542-1.287A3.791,3.791,0,0,1,72.335,113.449Zm-.542,1.219q.414,0,.82.029a25.949,25.949,0,0,1,.325,2.778q-.565-.016-1.145-.017t-1.145.017a25.968,25.968,0,0,1,.325-2.778Q71.379,114.669,71.793,114.668Zm4.351.9a9.779,9.779,0,0,1,.7,2.254c-.813-.13-1.715-.226-2.671-.287-.06-.956-.157-1.858-.287-2.671A9.78,9.78,0,0,1,76.144,115.565Zm.9,4.351q0,.414-.029.82a25.952,25.952,0,0,1-2.778.325q.016-.565.017-1.145t-.017-1.145a25.974,25.974,0,0,1,2.778.325Q77.04,119.5,77.04,119.915Zm-10.494,0q0-.414.029-.82a25.946,25.946,0,0,1,2.778-.325q-.016.565-.017,1.145t.017,1.145a25.978,25.978,0,0,1-2.778-.325Q66.547,120.33,66.546,119.915Zm4.021,0c0-.406.007-.809.019-1.206.4-.013.8-.019,1.206-.019s.809.007,1.206.019c.013.4.019.8.019,1.206s-.007.809-.019,1.206c-.4.013-.8.019-1.206.019s-.809-.007-1.206-.019Q70.568,120.526,70.568,119.915Zm-5.241.542a3.791,3.791,0,0,1-1.287-.542,3.791,3.791,0,0,1,1.287-.542c-.008.18-.012.361-.012.542S65.319,120.278,65.327,120.457Zm12.933-1.084a3.791,3.791,0,0,1,1.287.542,3.791,3.791,0,0,1-1.287.542q.011-.27.012-.542C78.271,119.734,78.267,119.553,78.259,119.373Zm1.01-.969a9.805,9.805,0,0,0-1.132-.334,11.809,11.809,0,0,0-.312-1.473A5.059,5.059,0,0,1,79.269,118.4Zm-4.158-4.521a11.8,11.8,0,0,0-1.473-.312,9.8,9.8,0,0,0-.334-1.132A5.056,5.056,0,0,1,75.111,113.883Zm-4.829-1.444a9.815,9.815,0,0,0-.334,1.132,11.809,11.809,0,0,0-1.473.312A5.058,5.058,0,0,1,70.282,112.439ZM65.761,116.6a11.8,11.8,0,0,0-.312,1.473,9.8,9.8,0,0,0-1.132.334A5.059,5.059,0,0,1,65.761,116.6Zm-1.444,4.829a9.82,9.82,0,0,0,1.132.334,11.8,11.8,0,0,0,.312,1.473A5.058,5.058,0,0,1,64.317,121.426Zm4.158,4.521a11.8,11.8,0,0,0,1.473.312,9.8,9.8,0,0,0,.334,1.132A5.057,5.057,0,0,1,68.475,125.947Zm4.829,1.444a9.816,9.816,0,0,0,.334-1.132,11.807,11.807,0,0,0,1.473-.312A5.057,5.057,0,0,1,73.3,127.391Zm4.521-4.158a11.806,11.806,0,0,0,.312-1.473,9.8,9.8,0,0,0,1.132-.334A5.057,5.057,0,0,1,77.825,123.233Z" transform="translate(-54.135 -103.891)" fill="url(#linear-gradient-2)"/>
      <path id="Path_93" data-name="Path 93" d="M81.6,246.831a9.123,9.123,0,0,1-.1,1.317c-.638,4.368-5.206,7.713-8.32,7.644s-1.438.826-4.949-1.03a9.326,9.326,0,0,1-4.4-5.562,9.064,9.064,0,0,1-.277-1.547,16.376,16.376,0,0,0,3.3.424c5.607.3,8.841-.264,12.386-2.5l-.183-.269a.974.974,0,0,1,.988-1.5l1.106.211A9.03,9.03,0,0,1,81.6,246.831Z" transform="translate(-54.905 -230.807)" fill="url(#linear-gradient-3)" style="mix-blend-mode: screen;isolation: isolate"/>
      <path id="Path_94" data-name="Path 94" d="M40.5,244.187l-2.031-.387a.974.974,0,0,0-.988,1.5l.183.269c-3.545,2.24-6.779,2.807-12.387,2.5-6.446-.348-3.833-1.812-3.833-1.812-3.066.906-.976,3.066,4.216,3.693,8.2.834,12.145-1.632,13.273-2.518l.191.281a.974.974,0,0,0,1.762-.365l.387-2.031A.974.974,0,0,0,40.5,244.187Z" transform="translate(-13.327 -230.807)" fill="url(#radial-gradient)"/>
    </g>
  </g>
</svg>
