<svg xmlns="http://www.w3.org/2000/svg" width="12.837" height="14.011" viewBox="0 0 12.837 14.011">
  <g id="filter" transform="translate(-2.935 16.359) rotate(-90)">
    <path id="Path_321" data-name="Path 321" d="M77.73,81.508H69.382a1.722,1.722,0,0,0-3.264,0h-1.3a.548.548,0,0,0,0,1.1h1.3a1.722,1.722,0,0,0,3.264,0H77.73a.548.548,0,1,0,0-1.1Zm-9.98,1.174a.626.626,0,1,1,.626-.626A.627.627,0,0,1,67.75,82.682Z" transform="translate(-61.919 -77.399)" fill="#fff"/>
    <path id="Path_322" data-name="Path 322" d="M77.73,210.041h-1.3a1.722,1.722,0,0,0-3.264,0H64.815a.548.548,0,0,0,0,1.1h8.347a1.722,1.722,0,0,0,3.264,0h1.3a.548.548,0,1,0,0-1.1Zm-2.935,1.174a.626.626,0,1,1,.626-.626A.627.627,0,0,1,74.795,211.215Z" transform="translate(-61.919 -201.236)" fill="#fff"/>
    <path id="Path_323" data-name="Path 323" d="M77.73,338.574h-6a1.722,1.722,0,0,0-3.264,0H64.815a.548.548,0,1,0,0,1.1h3.651a1.722,1.722,0,0,0,3.264,0h6a.548.548,0,1,0,0-1.1ZM70.1,339.748a.626.626,0,1,1,.626-.626A.627.627,0,0,1,70.1,339.748Z" transform="translate(-61.919 -325.072)" fill="#fff"/>
  </g>
</svg>
