<?xml version="1.0" encoding="utf-8"?>
<!-- Generator: Adobe Illustrator 24.0.1, SVG Export Plug-In . SVG Version: 6.00 Build 0)  -->
<svg version="1.1" id="Layer_1" xmlns="http://www.w3.org/2000/svg" xmlns:xlink="http://www.w3.org/1999/xlink" x="0px" y="0px"
	 viewBox="0 0 71.2 71.2" style="enable-background:new 0 0 71.2 71.2;" xml:space="preserve">
<style type="text/css">
	.st0{filter:url(#Ellipse_62);}
	.st1{fill:url(#Ellipse_62-2_2_);}
	.st2{fill:url(#Path_170_1_);}
	.st3{fill:url(#Ellipse_63_1_);}
	.st4{fill:url(#Path_171_1_);}
	.st5{fill:url(#Path_172_1_);}
	.st6{fill:url(#Path_173_1_);}
	.st7{fill:url(#Path_174_1_);}
	.st8{fill:url(#Path_175_1_);}
	.st9{fill:url(#Path_176_1_);}
</style>
<filter  filterUnits="userSpaceOnUse" height="71.216" id="Ellipse_62" width="71.216" x="0" y="0">
	<feOffset  dy="7" input="SourceAlpha"></feOffset>
	<feGaussianBlur  result="blur" stdDeviation="6.5"></feGaussianBlur>
	<feFlood  flood-color="#4460f1" flood-opacity="0.6"></feFlood>
	<feComposite  in2="blur" operator="in"></feComposite>
	<feComposite  in="SourceGraphic" operator="over"></feComposite>
</filter>
<g id="Group_94" transform="translate(-41.134 -119.261)">
	<g id="globe" transform="translate(14.04 83.633)">
		<g transform="matrix(1, 0, 0, 1, 27.09, 35.63)" class="st0">
			
				<linearGradient id="Ellipse_62-2_2_" gradientUnits="userSpaceOnUse" x1="-894.0876" y1="561.1266" x2="-893.4816" y2="560.5206" gradientTransform="matrix(32.216 0 0 -32.216 28831.7383 18098.0664)">
				<stop  offset="0" style="stop-color:#18CFFC"/>
				<stop  offset="1" style="stop-color:#4A98F7"/>
			</linearGradient>
			<circle id="Ellipse_62-2_1_" class="st1" cx="35.6" cy="28.6" r="16.1"/>
		</g>
		
			<linearGradient id="Path_170_1_" gradientUnits="userSpaceOnUse" x1="-866.6703" y1="595.9589" x2="-866.8503" y2="597.2559" gradientTransform="matrix(32.206 0 0 -32.206 27977.1484 19275.4316)">
			<stop  offset="0" style="stop-color:#18CFFC;stop-opacity:0"/>
			<stop  offset="1" style="stop-color:#65E1DC"/>
		</linearGradient>
		<path id="Path_170" class="st2" d="M74,55.8c-0.6-0.4-1.1-0.8-1.8-1.1c-0.3-0.6-0.7-1.2-1.1-1.8c-2.3-3.1-5.3-4.8-8.5-4.8
			c-3.2,0-6.2,1.7-8.5,4.8c-0.4,0.6-0.8,1.1-1.1,1.8c-0.6,0.3-1.2,0.7-1.8,1.1c-3.1,2.3-4.8,5.3-4.8,8.5c0,3.2,1.7,6.2,4.8,8.5
			c0.6,0.4,1.1,0.8,1.8,1.1c0.3,0.6,0.7,1.2,1.1,1.8c2.3,3.1,5.3,4.8,8.5,4.8c3.2,0,6.2-1.7,8.5-4.8c0.4-0.6,0.8-1.1,1.1-1.8
			c0.6-0.3,1.2-0.7,1.8-1.1c3.1-2.3,4.8-5.3,4.8-8.5C78.8,61,77.1,58,74,55.8z M62.7,79.6c-0.9,0-1.8-1.3-2.6-3.6
			c1.7,0.2,3.4,0.2,5.1,0C64.5,78.3,63.6,79.6,62.7,79.6z M62.7,75.4c-0.9,0-1.9-0.1-2.8-0.2c-0.5-2.1-0.9-4.2-1.1-6.3
			c1.3,0.1,2.6,0.1,3.9,0.1c1.3,0,2.6,0,3.9-0.1c-0.2,2.1-0.5,4.2-1.1,6.3C64.6,75.3,63.6,75.4,62.7,75.4z M62.7,48.9
			c0.9,0,1.8,1.3,2.6,3.6c-1.7-0.2-3.4-0.2-5.1,0C60.9,50.2,61.8,48.9,62.7,48.9z M62.7,53.1c0.9,0,1.9,0.1,2.8,0.2
			c0.5,2.1,0.9,4.2,1.1,6.3c-1.3-0.1-2.6-0.1-3.9-0.1c-1.3,0-2.6,0-3.9,0.1c0.2-2.1,0.5-4.2,1.1-6.3C60.8,53.1,61.8,53.1,62.7,53.1z
			 M58.6,64.2c0-1.4,0-2.7,0.1-3.9c1.3-0.1,2.6-0.1,3.9-0.1c1.3,0,2.7,0,3.9,0.1c0.1,1.3,0.1,2.6,0.1,3.9c0,1.3,0,2.7-0.1,3.9
			c-1.3,0.1-2.6,0.1-3.9,0.1c-1.4,0-2.7,0-3.9-0.1C58.7,66.9,58.6,65.6,58.6,64.2z M58,68.1c-2.1-0.2-4.2-0.5-6.3-1.1
			c-0.3-1.9-0.3-3.7,0-5.6c2.1-0.6,4.2-0.9,6.3-1.1c-0.1,1.3-0.1,2.6-0.1,3.9C57.9,65.6,57.9,66.9,58,68.1L58,68.1z M67.4,60.4
			c2.1,0.2,4.2,0.5,6.3,1.1c0.3,1.9,0.3,3.7,0,5.6c-2.1,0.5-4.2,0.9-6.3,1.1c0.1-1.3,0.1-2.6,0.1-3.9C67.6,62.9,67.5,61.6,67.4,60.4
			L67.4,60.4z M67.4,59.6c-0.2-2.1-0.5-4.2-1-6.2c1.9,0.3,3.7,0.9,5.4,1.8c0.9,1.7,1.5,3.5,1.8,5.4C71.5,60.1,69.4,59.7,67.4,59.6
			L67.4,59.6z M58,59.6c-2.1,0.2-4.2,0.5-6.2,1c0.3-1.9,0.9-3.7,1.8-5.4c1.7-0.9,3.5-1.5,5.4-1.8C58.6,55.4,58.2,57.5,58,59.6
			L58,59.6z M50.9,66.8c-2.2-0.7-3.6-1.7-3.6-2.6c0-0.9,1.3-1.8,3.6-2.6C50.7,63.4,50.7,65.1,50.9,66.8L50.9,66.8z M58,68.9
			c0.2,2.1,0.5,4.2,1,6.2c-1.9-0.3-3.7-0.9-5.4-1.8c-0.9-1.7-1.5-3.5-1.8-5.4C53.9,68.4,56,68.7,58,68.9L58,68.9z M67.4,68.9
			c2.1-0.2,4.2-0.5,6.2-1c-0.3,1.9-0.9,3.7-1.8,5.4c-1.7,0.9-3.5,1.5-5.4,1.8C66.8,73.1,67.2,71,67.4,68.9L67.4,68.9z M74.5,61.7
			c2.2,0.7,3.6,1.7,3.6,2.6c0,0.9-1.3,1.8-3.6,2.6C74.7,65.1,74.7,63.4,74.5,61.7L74.5,61.7z M77.9,62.5c-1-0.8-2.2-1.4-3.5-1.7
			c-0.3-1.7-0.7-3.4-1.4-4.9C75.4,57.4,77.2,59.8,77.9,62.5L77.9,62.5z M71,54c-1.6-0.7-3.2-1.2-4.9-1.4c-0.3-1.3-0.9-2.5-1.7-3.5
			C67.2,49.8,69.6,51.6,71,54L71,54z M61,49.1c-0.8,1-1.4,2.2-1.7,3.5c-1.7,0.3-3.4,0.7-4.9,1.4C55.8,51.6,58.2,49.8,61,49.1z
			 M52.5,55.9c-0.7,1.6-1.2,3.2-1.4,4.9c-1.3,0.3-2.5,0.9-3.5,1.7C48.2,59.8,50,57.4,52.5,55.9z M47.5,65.9c1,0.8,2.2,1.4,3.5,1.7
			c0.3,1.7,0.7,3.4,1.4,4.9C50,71.1,48.2,68.7,47.5,65.9z M54.4,74.5c1.6,0.7,3.2,1.2,4.9,1.4c0.3,1.3,0.9,2.5,1.7,3.5
			C58.2,78.7,55.8,76.9,54.4,74.5L54.4,74.5z M64.4,79.4c0.8-1,1.4-2.2,1.7-3.5c1.7-0.3,3.4-0.7,4.9-1.4
			C69.6,76.9,67.2,78.7,64.4,79.4L64.4,79.4z M72.9,72.6c0.7-1.6,1.2-3.2,1.4-4.9c1.3-0.3,2.5-0.9,3.5-1.7
			C77.2,68.7,75.4,71.1,72.9,72.6L72.9,72.6z"/>
		
			<linearGradient id="Ellipse_63_1_" gradientUnits="userSpaceOnUse" x1="-863.1896" y1="594.5162" x2="-863.7476" y2="595.0742" gradientTransform="matrix(28.758 0 0 -28.758 24889.7891 17164.8145)">
			<stop  offset="0" style="stop-color:#18CFFC;stop-opacity:0"/>
			<stop  offset="1" style="stop-color:#65E1DC"/>
		</linearGradient>
		<circle id="Ellipse_63" class="st3" cx="62.7" cy="64.2" r="14.4"/>
		
			<linearGradient id="Path_171_1_" gradientUnits="userSpaceOnUse" x1="-795.1756" y1="576.3629" x2="-792.6166" y2="575.088" gradientTransform="matrix(9.15 0 0 -13.9442 7330.0591 8102.9302)">
			<stop  offset="0" style="stop-color:#B3C0FF"/>
			<stop  offset="1" style="stop-color:#384DB1"/>
		</linearGradient>
		<path id="Path_171" class="st4" d="M61.2,64.9l0.6,0.6c0.2,0.2,0.4,0.5,0.4,0.9c0,0.7,0.5,1.2,1.2,1.2l0,0c0.7,0,1.3,0.6,1.3,1.3
			c0,0,0,0,0,0c0,0.9-0.2,1.8-0.6,2.6l-2.2,5.1c-0.2,0.5-0.9,0.8-1.4,0.6c-0.1-0.1-0.2-0.1-0.3-0.2c-0.8-0.8-1.2-1.8-1.2-3v-0.6
			c0-1.5-0.6-3-1.7-4.1l-0.1-0.1c-1-1-1.6-2.4-1.6-3.9v-0.2c0-1,0.8-1.8,1.8-1.8h0C58.8,63.3,60.2,63.9,61.2,64.9z"/>
		
			<linearGradient id="Path_172_1_" gradientUnits="userSpaceOnUse" x1="-841.4774" y1="578.8167" x2="-840.3124" y2="578.6807" gradientTransform="matrix(17.0357 0 0 -15.0875 14387.123 8789.0254)">
			<stop  offset="0" style="stop-color:#B3C0FF"/>
			<stop  offset="1" style="stop-color:#4460F1"/>
		</linearGradient>
		<path id="Path_172" class="st5" d="M57.2,49.1c-4,1.5-7.3,4.5-9.1,8.4c-0.2,0.5-0.3,1-0.3,1.5c0,0.9,0.4,1.8,1,2.5l0.3,0.3
			c1.5,1.5,3.5,2.3,5.6,2.3c0.3,0,0.6-0.3,0.6-0.6S55,63,54.7,63h-1.7c-0.8,0-1.5-0.6-1.5-1.4c0-0.8,0.6-1.5,1.5-1.5l0,0h1.4
			c1.6,0,3.2-0.6,4.3-1.8l2.1-2.1c0.5-0.5,1.1-0.7,1.7-0.7c0.9,0,1.8-0.5,2.2-1.4c0.4-0.8,0-1.7-0.7-2.1c-0.2-0.1-0.4-0.2-0.7-0.2
			h-2.7c-0.8,0-1.4-0.6-1.4-1.4c0-0.8-0.6-1.4-1.4-1.4C57.5,49,57.3,49,57.2,49.1z"/>
		
			<linearGradient id="Path_173_1_" gradientUnits="userSpaceOnUse" x1="-838.1551" y1="575.5204" x2="-838.6001" y2="576.0414" gradientTransform="matrix(16.1578 0 0 -13.792 13601.5 7996.6851)">
			<stop  offset="0" style="stop-color:#B3C0FF;stop-opacity:0"/>
			<stop  offset="1" style="stop-color:#B3C0FF"/>
		</linearGradient>
		<path id="Path_173" class="st6" d="M63.2,51.9h-2.7c-0.8,0-1.4-0.6-1.4-1.4c0,0,0-0.1,0-0.1c-5.3,1.4-9.3,5.6-10.5,11
			c0.1,0.1,0.1,0.1,0.2,0.2l0.3,0.3c1.5,1.5,3.5,2.3,5.6,2.3c0.3,0,0.6-0.3,0.6-0.6S55,63,54.7,63h-1.7c-0.8,0-1.5-0.6-1.5-1.4
			c0-0.8,0.6-1.5,1.5-1.5l0,0h1.4c1.6,0,3.2-0.6,4.3-1.8l2.1-2.1c0.5-0.5,1.1-0.7,1.7-0.7c0.9,0,1.8-0.5,2.2-1.4
			c0.4-0.8,0-1.7-0.7-2.1C63.7,51.9,63.5,51.9,63.2,51.9z"/>
		
			<linearGradient id="Path_174_1_" gradientUnits="userSpaceOnUse" x1="-801.0352" y1="577.8181" x2="-799.8701" y2="577.6821" gradientTransform="matrix(9.7548 0 0 -14.6387 7885.4526 8524.1426)">
			<stop  offset="0" style="stop-color:#B3C0FF"/>
			<stop  offset="1" style="stop-color:#4460F1"/>
		</linearGradient>
		<path id="Path_174" class="st7" d="M78.4,60.8c-0.2-1-1.1-1.7-2.2-1.7h-3.5c-2.1,0-3.7,1.7-3.7,3.7v0.5c0,1.8,1.5,3.3,3.3,3.3l0,0
			c0.9,0,1.7,0.7,1.7,1.7v4.4c0,0.6,0.5,1.1,1.2,1.1c0.4,0,0.7-0.2,0.9-0.5c1.3-2,2.2-4.3,2.5-6.7C78.9,64.6,78.8,62.7,78.4,60.8
			L78.4,60.8z"/>
		
			<linearGradient id="Path_175_1_" gradientUnits="userSpaceOnUse" x1="-750.7719" y1="450.7791" x2="-749.6068" y2="450.6431" gradientTransform="matrix(6.3705 0 0 -3.117 4855.0923 1460.4095)">
			<stop  offset="0" style="stop-color:#B3C0FF"/>
			<stop  offset="1" style="stop-color:#4460F1"/>
		</linearGradient>
		<path id="Path_175" class="st8" d="M77.1,57h-4.8c-0.9,0-1.6-0.7-1.6-1.6c0-0.9,0.7-1.6,1.6-1.6l0,0H75
			C75.8,54.8,76.5,55.9,77.1,57z"/>
		
			<linearGradient id="Path_176_1_" gradientUnits="userSpaceOnUse" x1="-865.0959" y1="595.6198" x2="-864.3699" y2="596.9688" gradientTransform="matrix(30.5216 0 0 -30.5216 26469.7637 18245.2031)">
			<stop  offset="0" style="stop-color:#0469BC;stop-opacity:0"/>
			<stop  offset="1" style="stop-color:#0469BC"/>
		</linearGradient>
		<path id="Path_176" class="st9" d="M69.9,49.8c4,8,0.7,17.6-7.2,21.6c-4.5,2.3-9.9,2.3-14.4,0c4,8,13.7,11.2,21.6,7.2
			S81.1,65,77.1,57C75.6,53.9,73,51.4,69.9,49.8z"/>
	</g>
</g>
</svg>
