<svg xmlns="http://www.w3.org/2000/svg" width="12.734" height="14.856" viewBox="0 0 12.734 14.856">
  <path id="Icon_metro-file-excel" data-name="Icon metro-file-excel" d="M14.741,5.354a1.929,1.929,0,0,1,.4.63,1.913,1.913,0,0,1,.166.73v9.55a.793.793,0,0,1-.8.8H3.367a.793.793,0,0,1-.8-.8V3a.793.793,0,0,1,.8-.8h7.428a1.914,1.914,0,0,1,.73.166,1.929,1.929,0,0,1,.63.4ZM11.06,3.331V6.448h3.117a.906.906,0,0,0-.182-.34L11.4,3.513a.905.905,0,0,0-.34-.182ZM14.243,16V7.509H10.795a.793.793,0,0,1-.8-.8V3.265H3.632V16H14.243Zm-8.116-1.94v.879h2.33v-.879H7.835l.854-1.335a1.188,1.188,0,0,0,.083-.137q.041-.079.062-.112t.029-.033H8.88a.286.286,0,0,0,.041.083.463.463,0,0,0,.037.062l.05.066.054.07.887,1.335h-.63v.879h2.412v-.879h-.564L9.576,11.8l1.617-2.338h.555V8.57H9.435v.887h.613l-.854,1.318q-.033.058-.083.137t-.075.112l-.017.025H9a.285.285,0,0,0-.041-.083.989.989,0,0,0-.141-.191L7.943,9.457h.63V8.57h-2.4v.887h.564L8.3,11.712,6.691,14.059H6.127Z" transform="translate(-2.571 -2.204)" fill="#505b67"/>
</svg>
