<svg xmlns="http://www.w3.org/2000/svg" xmlns:xlink="http://www.w3.org/1999/xlink" width="29.063" height="28.589" viewBox="0 0 29.063 28.589">
  <defs>
    <filter id="Icon_awesome-star" x="0" y="0" width="29.063" height="28.589" filterUnits="userSpaceOnUse">
      <feOffset dy="3" input="SourceAlpha"/>
      <feGaussianBlur stdDeviation="3" result="blur"/>
      <feFlood flood-opacity="0.161"/>
      <feComposite operator="in" in2="blur"/>
      <feComposite in="SourceGraphic"/>
    </filter>
  </defs>
  <g transform="matrix(1, 0, 0, 1, 0, 0)" filter="url(#Icon_awesome-star)">
    <path id="Icon_awesome-star-2" data-name="Icon awesome-star" d="M6.38.367,5.029,3.105l-3.021.44a.662.662,0,0,0-.366,1.129L3.828,6.8,3.311,9.814a.661.661,0,0,0,.96.7l2.7-1.421,2.7,1.421a.662.662,0,0,0,.96-.7L10.118,6.8,12.3,4.675a.662.662,0,0,0-.366-1.129l-3.021-.44L7.567.367a.662.662,0,0,0-1.187,0Z" transform="translate(7.56 6)" fill="#4460f1"/>
  </g>
</svg>
