<svg id="_010-search" data-name="010-search" xmlns="http://www.w3.org/2000/svg" width="29.652" height="29.652" viewBox="0 0 29.652 29.652">
  <path id="Path_48" data-name="Path 48" d="M6.572,148.18l-1.032,3.853-3.773.08a14.852,14.852,0,0,1-.109-13.845h0l3.359.616,1.471,3.338a8.848,8.848,0,0,0,.083,5.957Z" transform="translate(0 -130.26)" fill="#fbbb00"/>
  <path id="Path_49" data-name="Path 49" d="M275.869,208.176a14.821,14.821,0,0,1-5.285,14.332h0l-4.23-.216-.6-3.738a8.836,8.836,0,0,0,3.8-4.512h-7.928v-5.865h14.241Z" transform="translate(-246.476 -196.12)" fill="#518ef8"/>
  <path id="Path_50" data-name="Path 50" d="M52.849,317.877h0a14.831,14.831,0,0,1-22.341-4.536l4.8-3.933a8.818,8.818,0,0,0,12.706,4.515Z" transform="translate(-28.742 -291.49)" fill="#28b446"/>
  <path id="Path_51" data-name="Path 51" d="M51.256,3.413l-4.8,3.932a8.817,8.817,0,0,0-13,4.616l-4.83-3.954h0A14.829,14.829,0,0,1,51.256,3.413Z" transform="translate(-26.966)" fill="#f14336"/>
</svg>
