<svg xmlns="http://www.w3.org/2000/svg" width="19.121" height="19.121" viewBox="0 0 19.121 19.121">
  <g id="Icon_feather-eye-off" data-name="Icon feather-eye-off" transform="translate(3.879 3.879)">
    <path id="Path_159" data-name="Path 159" d="M14.59,16.772A7.781,7.781,0,0,1,10,18.364c-5.409,0-8.5-6.182-8.5-6.182a14.257,14.257,0,0,1,3.91-4.59M8.377,6.185A7.047,7.047,0,0,1,10,6c5.409,0,8.5,6.182,8.5,6.182a14.3,14.3,0,0,1-1.669,2.465m-5.193-.827a2.318,2.318,0,1,1-3.276-3.276" transform="translate(-4.319 -6.407)" fill="none" stroke="#a0aab6" stroke-linecap="round" stroke-linejoin="round" stroke-width="1.5"/>
    <path id="Path_160" data-name="Path 160" d="M1.5,1.5l17,17" transform="translate(-4.319 -4.319)" fill="none" stroke="#a0aab6" stroke-linecap="round" stroke-linejoin="round" stroke-width="1.5"/>
  </g>
</svg>
