<svg xmlns="http://www.w3.org/2000/svg" width="62" height="62" viewBox="0 0 62 62">
  <g id="instagram" transform="translate(-575 -897)">
    <g id="Ellipse_82" data-name="Ellipse 82" transform="translate(575 897)" fill="#fff" stroke="#4460f1" stroke-width="1">
      <circle cx="31" cy="31" r="31" stroke="none"/>
      <circle cx="31" cy="31" r="30.5" fill="none"/>
    </g>
    <path id="Icon_awesome-instagram" data-name="Icon awesome-instagram" d="M16.276,10.167a8.345,8.345,0,1,0,8.345,8.345A8.332,8.332,0,0,0,16.276,10.167Zm0,13.77A5.425,5.425,0,1,1,21.7,18.512,5.435,5.435,0,0,1,16.276,23.937ZM26.909,9.826a1.946,1.946,0,1,1-1.946-1.946A1.942,1.942,0,0,1,26.909,9.826ZM32.436,11.8a9.632,9.632,0,0,0-2.629-6.82,9.7,9.7,0,0,0-6.82-2.629C20.3,2.2,12.245,2.2,9.558,2.352a9.682,9.682,0,0,0-6.82,2.622,9.664,9.664,0,0,0-2.629,6.82c-.153,2.687-.153,10.742,0,13.429a9.632,9.632,0,0,0,2.629,6.82,9.708,9.708,0,0,0,6.82,2.629c2.687.153,10.742.153,13.429,0a9.632,9.632,0,0,0,6.82-2.629,9.7,9.7,0,0,0,2.629-6.82c.153-2.687.153-10.734,0-13.422ZM28.964,28.106A5.493,5.493,0,0,1,25.87,31.2c-2.143.85-7.227.654-9.594.654s-7.459.189-9.594-.654a5.493,5.493,0,0,1-3.094-3.094c-.85-2.143-.654-7.227-.654-9.594s-.189-7.459.654-9.594A5.493,5.493,0,0,1,6.682,5.824c2.143-.85,7.227-.654,9.594-.654s7.459-.189,9.594.654a5.493,5.493,0,0,1,3.094,3.094c.85,2.143.654,7.227.654,9.594S29.814,25.971,28.964,28.106Z" transform="translate(589.838 909.488)" fill="#4460f1"/>
  </g>
</svg>
